<ttFont>
<head>
    <!-- Most of this table will be recalculated by the compiler -->
    <tableVersion value="1.0"/>
    <fontRevision value="1.002"/>
    <checkSumAdjustment value="0x7efe8db"/>
    <magicNumber value="0x5f0f3cf5"/>
    <flags value="00000000 00001011"/>
    <unitsPerEm value="1000"/>
    <created value="Thu Jan 14 16:35:19 2016"/>
    <modified value="Thu Jan  2 08:44:58 2020"/>
    <xMin value="-1628"/>
    <yMin value="-364"/>
    <xMax value="743"/>
    <yMax value="1137"/>
    <macStyle value="00000000 00000010"/>
    <lowestRecPPEM value="8"/>
    <fontDirectionHint value="2"/>
    <indexToLocFormat value="0"/>
    <glyphDataFormat value="0"/>
  </head>
          <CharString index="0">
            -38 -29 -30 -37 -38 29 -29 38 39 28 29 38 hvcurveto
            37 -28 30 -39 vhcurveto
            return
          </CharString>
          <CharString index="1">
            -266 -186 -100 -152 0 -167 0 -124 57 -133 142 -163 rrcurveto
            83 60 rlineto
            -129 142 -49 112 0 107 0 141 74 127 246 165 rrcurveto
            return
          </CharString>
          <CharString index="2">
            265 186 101 152 0 167 0 124 -57 132 -142 164 rrcurveto
            -84 -60 rlineto
            130 -142 48 -113 0 -106 0 -141 -73 -128 -246 -164 rrcurveto
            return
          </CharString>
          <CharString index="3">
            110 8 rlineto
            -13 208 -17 205 -19 204 rrcurveto
            -153 hlineto
            return
          </CharString>
          <CharString index="4">
            -100 -206 -97 -209 -90 -206 rrcurveto
            112 hlineto
            23 57 25 57 24 57 rrcurveto
            186 hlineto
            3 -59 3 -58 3 -58 rrcurveto
            return
          </CharString>
          <CharString index="5">
            8 hlineto
            6 -90 6 -91 5 -91 rrcurveto
            -146 hlineto
            40 91 41 91 40 90 rrcurveto
            return
          </CharString>
          <CharString index="6">
            -176 -142 -195 -212 hvcurveto
            0 -209 143 -84 256 88 rrcurveto
            11 99 rlineto
            -205 -71 -94 43 0 151 0 136 77 156 107 0 59 0 11 -44 -3 -100 rrcurveto
            105 2 rlineto
            7 160 -38 80 -118 0 rrcurveto
            return
          </CharString>
          <CharString index="7">
            0 191 -124 80 -251 -41 rrcurveto
            return
          </CharString>
          <CharString index="8">
            -119 -616 rlineto
            353 -46 141 205 0 227 rrcurveto
            return
          </CharString>
          <CharString index="9">
            0 -159 -85 -141 -171 11 rrcurveto
            86 447 rlineto
            115 11 55 -54 0 -115 rrcurveto
            return
          </CharString>
          <CharString index="10">
            -274 0 35 178 228 0 16 81 -228 0 34 175 269 0 18 93 -380 0 -120 -620 377 0 rlineto
            return
          </CharString>
          <CharString index="11">
            83 353 -104 -3 -33 -146 rlineto
            -127 -38 -62 49 0 127 0 142 74 157 104 0 56 0 11 -46 -2 -97 rrcurveto
            104 2 rlineto
            9 163 -42 77 -115 0 -171 0 -140 -197 0 -217 rrcurveto
            return
          </CharString>
          <CharString index="12">
            0 -175 101 -86 178 42 rrcurveto
            -25 -109 rlineto
            return
          </CharString>
          <CharString index="13">
            86 444 139 0 16 88 -390 0 -17 -88 141 0 -86 -444 -139 0 -17 -88 390 0 21 88 rlineto
            return
          </CharString>
          <CharString index="14">
            117 14 -150 302 252 311 -119 0 -252 -310 rlineto
            return
          </CharString>
          <CharString index="15">
            -121 -620 111 0 120 620 rlineto
            return
          </CharString>
          <CharString index="16">
            19 95 -284 0 101 525 -112 0 -120 -620 rlineto
            return
          </CharString>
          <CharString index="17">
            120 620 -104 0 -78 -420 -5 0 rlineto
            return
          </CharString>
          <CharString index="18">
            -118 422 -107 -4 -120 -618 104 0 79 425 5 0 rlineto
            return
          </CharString>
          <CharString index="19">
            -172 -122 -198 -212 -163 80 -72 110 173 122 198 212 163 -80 72 -111 hvcurveto
            return
          </CharString>
          <CharString index="20">
            -53 -34 44 100 151 67 159 98 53 35 -45 -99 -152 -67 -158 -99 hvcurveto
            return
          </CharString>
          <CharString index="21">
            120 16 -129 256 rlineto
            98 54 64 68 0 89 0 103 -92 77 -277 -38 rrcurveto
            return
          </CharString>
          <CharString index="22">
            -119 -617 110 0 102 531 rlineto
            110 13 55 -30 0 -61 0 -63 -47 -51 -128 -59 rrcurveto
            -1 vlineto
            return
          </CharString>
          <CharString index="23">
            -19 114 -53 63 -110 0 -136 0 -93 -90 0 -99 0 -145 244 -63 0 -89 0 -52 -78 -36 -228 62 rrcurveto
            return
          </CharString>
          <CharString index="24">
            318 -65 125 102 0 103 0 138 -247 62 0 104 0 46 40 37 55 0 57 0 34 -29 16 -74 rrcurveto
            return
          </CharString>
          <CharString index="25">
            178 0 19 95 -469 0 -19 -95 178 0 -101 -525 112 0 rlineto
            return
          </CharString>
          <CharString index="26">
            75 390 -110 0 -75 -384 rlineto
            -35 -177 74 -73 131 0 123 0 85 64 31 157 rrcurveto
            80 413 -111 0 -80 -415 rlineto
            -17 -86 -38 -37 -59 0 -62 0 -34 37 22 111 rrcurveto
            return
          </CharString>
          <CharString index="27">
            110 hlineto
            39 117 67 236 65 267 rrcurveto
            -108 hlineto
            return
          </CharString>
          <CharString index="28">
            -15 -65 -86 -373 -10 -32 rrcurveto
            -4 0 -15 284 -62 0 -126 -284 -4 0 rlineto
            2 32 58 373 10 65 rrcurveto
            -110 hlineto
            -39 -265 -24 -237 -4 -118 rrcurveto
            107 0 132 296 rlineto
            return
          </CharString>
          <CharString index="29">
            279 420 -119 0 -193 -309 rlineto
            return
          </CharString>
          <CharString index="30">
            -80 311 -115 -4 118 -411 -40 -207 rlineto
            return
          </CharString>
          <CharString index="31">
            18 97 -297 -2 377 431 15 94 -414 0 -19 -97 293 2 -381 -431 -17 -94 rlineto
            return
          </CharString>
          <CharString index="32">
            318 0 17 85 -211 0 136 705 211 0 17 86 -317 0 rlineto
            return
          </CharString>
          <CharString index="33">
            -318 0 -17 -86 211 0 -136 -705 -211 0 -17 -85 317 0 rlineto
            return
          </CharString>
          <CharString index="34">
            -61 43 -89 77 -59 59 rrcurveto
            -66 -85 rlineto
            68 -48 113 -62 70 -28 rrcurveto
            return
          </CharString>
          <CharString index="35">
            -30 -24 23 57 119 67 130 79 hvcurveto
            20 0 32 -5 33 -11 -14 -76 -23 -117 -10 -48 rrcurveto
            -44 -41 -52 -31 -34 0 rrcurveto
            return
          </CharString>
          <CharString index="36">
            -10 54 rlineto
            -82 -25 -4 9 11 55 rrcurveto
            68 352 rlineto
            return
          </CharString>
          <CharString index="37">
            -52 15 -52 7 -45 0 rrcurveto
            -190 -120 -180 -185 -105 45 -50 60 hvcurveto
            54 0 68 46 58 56 rrcurveto
            -8 -104 45 -37 154 92 rrcurveto
            return
          </CharString>
          <CharString index="38">
            8 130 -45 53 -99 0 -165 0 -140 -156 0 -176 0 -161 131 -98 274 128 rrcurveto
            -10 56 rlineto
            -218 -50 -70 31 0 115 rrcurveto
            116 75 103 93 49 19 -25 -67 vhcurveto
            return
          </CharString>
          <CharString index="39">
            -33 -26 29 66 112 68 126 79 hvcurveto
            20 0 32 -5 34 -11 rrcurveto
            -48 -247 rlineto
            -41 -40 -50 -30 -35 0 rrcurveto
            return
          </CharString>
          <CharString index="40">
            -9 52 rlineto
            -86 -27 -4 9 10 56 rrcurveto
            112 572 -107 -8 -37 -190 rlineto
            return
          </CharString>
          <CharString index="41">
            -19 3 -18 1 -17 0 rrcurveto
            -186 -119 -178 -179 -111 48 -55 61 hvcurveto
            53 0 66 44 56 55 rrcurveto
            -8 -101 45 -34 159 91 rrcurveto
            return
          </CharString>
          <CharString index="42">
            -12 55 rlineto
            -231 -59 -78 21 -3 110 227 16 122 71 0 115 rrcurveto
            77 -55 48 -91 -172 -134 -175 -159 vhcurveto
            0 -164 145 -99 282 143 rrcurveto
            return
          </CharString>
          <CharString index="43">
            45 28 -25 -35 hvcurveto
            0 -70 -93 -38 -150 -12 18 92 64 88 88 0 rrcurveto
            return
          </CharString>
          <CharString index="44">
            28 56 -28 74 0 122 0 9 0 9 1 10 rrcurveto
            return
          </CharString>
          <CharString index="45">
            57 102 46 121 0 43 0 19 -44 18 -25 0 -9 0 -12 -9 -11 -16 rrcurveto
            return
          </CharString>
          <CharString index="46">
            -31 14 -31 7 -35 0 rrcurveto
            -169 -117 -165 -164 -104 52 -49 67 hvcurveto
            59 0 60 39 49 52 4 -80 15 -67 -19 -19 -20 -21 -92 -13 -175 13 rrcurveto
            -11 -103 rlineto
            241 -11 115 44 35 69 rrcurveto
            return
          </CharString>
          <CharString index="47">
            -11 54 rlineto
            -64 -22 -10 5 0 23 rrcurveto
            return
          </CharString>
          <CharString index="48">
            42 137 -124 -6 -32 -136 rlineto
            return
          </CharString>
          <CharString index="49">
            -10 56 rlineto
            -197 -41 -16 14 22 87 rrcurveto
            87 333 -91 0 rlineto
            return
          </CharString>
          <CharString index="50">
            -208 -49 7 -56 167 14 -71 -261 rlineto
            -42 -154 86 -56 266 113 rrcurveto
            return
          </CharString>
          <CharString index="51">
            121 14 -158 195 rlineto
            131 82 52 75 0 64 0 53 -35 35 -61 0 -63 0 -72 -37 -72 -73 rrcurveto
            59 304 -107 -8 rlineto
            return
          </CharString>
          <CharString index="52">
            -135 -697 105 0 61 313 rlineto
            61 63 56 37 45 0 26 0 16 -13 0 -24 0 -38 -42 -59 -145 -83 rrcurveto
            return
          </CharString>
          <CharString index="53">
            -17 54 rlineto
            -142 -60 -74 5 -15 104 209 153 102 152 0 124 rrcurveto
            72 -39 40 -63 -150 -170 -240 -274 vhcurveto
            0 -9 0 -9 1 -9 -26 -17 -36 -23 -4 -3 rrcurveto
            26 -44 rlineto
            3 2 23 14 22 13 34 -139 127 -16 189 110 rrcurveto
            return
          </CharString>
          <CharString index="54">
            24 18 -17 -36 hvcurveto
            0 -74 -63 -112 -152 -128 7 207 95 160 71 0 rrcurveto
            return
          </CharString>
          <CharString index="55">
            0 51 62 162 0 99 0 53 -22 45 -67 0 -60 0 -65 -36 -65 -66 rrcurveto
            return
          </CharString>
          <CharString index="56">
            5 38 7 46 1 8 rrcurveto
            -105 -6 rlineto
            -21 -147 -22 -112 -46 -236 rrcurveto
            105 hlineto
            return
          </CharString>
          <CharString index="57">
            6 35 48 233 12 64 52 51 46 26 34 0 30 0 13 -18 0 -32 rrcurveto
            return
          </CharString>
          <CharString index="58">
            0 -75 -60 -153 0 -76 rrcurveto
            0 -74 65 -21 132 81 rrcurveto
            return
          </CharString>
          <CharString index="59">
            -130 73 -75 116 155 115 146 174 129 -74 76 -115 -155 -115 -148 -172 vhcurveto
            return
          </CharString>
          <CharString index="60">
            -113 -60 -104 -87 -60 -36 47 83 112 60 105 87 60 36 -47 -83 vhcurveto
            return
          </CharString>
          <CharString index="61">
            -7 55 rlineto
            -138 -39 -24 21 170 410 rrcurveto
            -51 25 rlineto
            return
          </CharString>
          <CharString index="62">
            -52 -26 -68 -20 -61 -10 2 10 1 10 0 9 rrcurveto
            35 -20 20 -31 -60 -60 -61 -51 vhcurveto
            0 -30 23 -18 35 -8 -29 -55 -43 -55 -58 -68 rrcurveto
            39 -40 rlineto
            70 70 59 76 37 67 40 2 44 8 43 12 rrcurveto
            -165 -375 69 -79 235 105 rrcurveto
            return
          </CharString>
          <CharString index="63">
            0 82 -95 79 -38 68 rrcurveto
            return
          </CharString>
          <CharString index="64">
            91 97 -24 64 -70 0 -61 0 -66 -52 0 -68 0 -19 4 -18 8 -18 -34 -31 -50 -35 -72 -47 rrcurveto
            24 -49 rlineto
            68 36 54 35 44 32 rrcurveto
            return
          </CharString>
          <CharString index="65">
            46 -63 64 -54 0 -45 0 -42 -53 -21 -197 14 rrcurveto
            return
          </CharString>
          <CharString index="66">
            -2 -97 rlineto
            280 -9 79 77 0 84 rrcurveto
            return
          </CharString>
          <CharString index="67">
            -7 54 rlineto
            -198 -53 -30 29 22 95 rrcurveto
            52 235 183 0 16 83 -180 0 32 145 -81 -6 -86 -139 -60 0 -21 -83 92 0 -54 -241 rlineto
            -37 -166 99 -87 258 134 rrcurveto
            return
          </CharString>
          <CharString index="68">
            -10 54 rlineto
            -77 -27 -4 11 11 55 rrcurveto
            return
          </CharString>
          <CharString index="69">
            71 364 -104 0 -63 -323 rlineto
            -48 -57 -45 -29 -36 0 -38 0 -13 29 15 67 rrcurveto
            return
          </CharString>
          <CharString index="70">
            101 hlineto
            68 199 44 140 41 158 rrcurveto
            -111 hlineto
            return
          </CharString>
          <CharString index="71">
            -26 -130 -23 -101 -31 -140 rrcurveto
            -5 0 -28 241 -65 0 -121 -240 -3 0 rlineto
            21 135 15 103 24 132 rrcurveto
            -106 hlineto
            -27 -188 -19 -201 -4 -108 rrcurveto
            100 0 123 236 rlineto
            return
          </CharString>
          <CharString index="72">
            30 60 -21 105 0 98 rrcurveto
            6 vlineto
            55 100 38 127 0 47 0 21 -46 12 -28 0 -37 0 -67 -160 -6 -149 -49 -47 -49 -25 -34 0 rrcurveto
            return
          </CharString>
          <CharString index="73">
            -53 0 -26 57 112 316 rrcurveto
            -104 -4 rlineto
            -138 -372 56 -92 96 0 65 0 70 40 54 52 4 -86 9 -66 -20 -20 -21 -20 -86 -12 -171 13 rrcurveto
            -15 -103 rlineto
            237 -11 109 43 36 70 rrcurveto
            return
          </CharString>
          <CharString index="74">
            26 94 -285 -3 337 317 18 90 -393 0 -25 -94 276 3 -338 -317 -18 -90 rlineto
            return
          </CharString>
          <CharString index="75">
            45 80 rlineto
            -135 57 -61 40 0 45 rrcurveto
            return
          </CharString>
          <CharString index="76">
            0 61 114 34 0 74 0 34 -23 32 -66 22 rrcurveto
            return
          </CharString>
          <CharString index="77">
            0 49 -61 59 0 39 0 46 75 34 181 34 rrcurveto
            -20 89 rlineto
            -257 -61 -81 -78 0 -74 rrcurveto
            return
          </CharString>
          <CharString index="78">
            0 -63 64 -52 0 -38 0 -28 -32 -23 -118 -6 rrcurveto
            -16 -76 rlineto
            return
          </CharString>
          <CharString index="79">
            0 -50 -119 -32 0 -90 rrcurveto
            0 -67 71 -51 189 -84 rrcurveto
            return
          </CharString>
          <CharString index="80">
            0 63 -64 52 0 38 0 28 32 23 118 6 rrcurveto
            16 76 rlineto
            return
          </CharString>
          <CharString index="81">
            0 50 119 32 0 90 0 66 -70 52 -190 84 rrcurveto
            -44 -80 rlineto
            135 -58 60 -40 0 -44 rrcurveto
            return
          </CharString>
          <CharString index="82">
            0 -61 -114 -34 0 -74 0 -34 23 -32 67 -23 rrcurveto
            return
          </CharString>
          <CharString index="83">
            0 -49 61 -58 0 -40 0 -45 -76 -35 -180 -33 rrcurveto
            return
          </CharString>
          <CharString index="84">
            43 136 -123 -3 -33 -134 rlineto
            return
          </CharString>
          <CharString index="85">
            42 135 -123 -1 -33 -135 rlineto
            return
          </CharString>
          <CharString index="86">
            88 56 -130 203 206 202 -67 67 -203 -210 -22 -109 rlineto
            return
          </CharString>
          <CharString index="87">
            207 197 -66 69 -204 -205 -24 -108 rlineto
            return
          </CharString>
          <CharString index="88">
            -345 0 -18 -89 346 0 rlineto
            return
          </CharString>
          <CharString index="89">
            15 72 -183 0 rlineto
            136 81 75 62 0 77 0 84 -89 43 -174 -26 rrcurveto
            -11 -74 rlineto
            138 18 44 -24 0 -42 0 -59 -93 -59 -151 -88 rrcurveto
            -65 vlineto
            return
          </CharString>
          <CharString index="90">
            0 43 -39 38 -99 24 rrcurveto
            164 104 9 70 -268 0 -14 -71 179 0 -170 -105 -5 -35 rlineto
            112 -21 46 -27 0 -26 0 -28 -44 -26 -169 18 rrcurveto
            -10 -75 rlineto
            227 -22 81 73 0 66 rrcurveto
            return
          </CharString>
          <CharString index="91">
            20 -47 rlineto
            77 26 128 54 72 51 rrcurveto
            -70 84 rlineto
            -61 -57 -102 -74 -64 -37 rrcurveto
            return
          </CharString>
          <CharString index="92">
            17 71 -107 0 68 339 -84 -7 -12 -59 -118 -13 -11 -64 114 3 -40 -200 -117 0 -14 -70 rlineto
            return
          </CharString>
          <CharString index="93">
            202 210 23 108 -129 210 -88 -57 130 -203 -206 -202 rlineto
            return
          </CharString>
          <CharString index="94">
            204 205 25 109 -127 213 -87 -55 126 -207 -207 -196 rlineto
            return
          </CharString>
          <CharString index="95">
            17 71 -107 0 68 339 -84 -7 -12 -59 -118 -13 -11 -64 114 3 rlineto
            return
          </CharString>
          <CharString index="96">
            -40 -200 -117 0 -14 -70 rlineto
            return
          </CharString>
          <CharString index="97">
            436 0 14 68 -436 0 rlineto
            return
          </CharString>
          <CharString index="98">
            20 70 -51 0 25 124 -79 -6 -23 -118 -123 0 rlineto
            47 69 37 69 39 114 rrcurveto
            -90 4 rlineto
            -35 -114 -33 -70 -49 -84 rrcurveto
            -6 -58 199 0 -14 -74 77 0 15 74 rlineto
            return
          </CharString>
          <CharString index="99">
            0 43 -39 38 -99 24 rrcurveto
            164 104 9 70 -268 0 -14 -71 179 0 -170 -105 -5 -35 rlineto
            return
          </CharString>
          <CharString index="100">
            112 -21 46 -27 0 -26 0 -28 -44 -26 -169 18 rrcurveto
            -10 -75 rlineto
            227 -22 81 73 0 66 rrcurveto
            return
          </CharString>
          <CharString index="101">
            73 56 -149 149 -6 0 -214 -146 48 -55 150 102 rlineto
            return
          </CharString>
          <CharString index="102">
            -37 0 -33 92 -66 0 -53 0 -56 -54 -48 -82 rrcurveto
            53 -30 rlineto
            34 53 27 32 22 0 rrcurveto
            return
          </CharString>
          <CharString index="103">
            36 0 34 -93 66 0 53 0 55 56 49 82 rrcurveto
            -52 30 rlineto
            -35 -53 -28 -33 -21 0 rrcurveto
            return
          </CharString>
          <CharString index="104">
            -84 -60 -52 -62 -55 49 -45 76 83 60 53 62 hvcurveto
            54 -49 45 -75 vhcurveto
            return
          </CharString>
          <CharString index="105">
            10 0 rlineto
            -55 -282 -86 0 rlineto
            44 94 43 94 44 94 rrcurveto
            return
          </CharString>
          <CharString index="106">
            248 0 23 91 -160 0 36 183 126 0 15 76 -126 0 35 179 155 0 18 91 -322 0 rlineto
            -104 -206 -105 -209 -101 -205 rrcurveto
            108 hlineto
            26 55 27 56 26 56 rrcurveto
            108 hlineto
            return
          </CharString>
          <CharString index="107">
            0 191 -124 80 -251 -41 rrcurveto
            -51 -265 -63 0 -15 -77 63 0 rlineto
            return
          </CharString>
          <CharString index="108">
            -53 -274 rlineto
            353 -46 141 205 0 227 rrcurveto
            return
          </CharString>
          <CharString index="109">
            20 77 -112 0 35 182 rlineto
            115 11 55 -54 0 -115 0 -159 -85 -141 -171 11 rrcurveto
            36 188 rlineto
            return
          </CharString>
          <CharString index="110">
            157 63 153 97 vhcurveto
            28 0 23 -12 16 -26 rrcurveto
            -225 -310 rlineto
            -1 11 -1 13 0 14 rrcurveto
            return
          </CharString>
          <CharString index="111">
            -30 0 -24 13 -15 28 rrcurveto
            227 311 rlineto
            1 -12 1 -15 0 -15 0 -157 -64 -153 -96 0 rrcurveto
            return
          </CharString>
          <CharString index="112">
            0 61 -10 49 -19 38 rrcurveto
            63 86 rlineto
            return
          </CharString>
          <CharString index="113">
            -63 41 -48 -66 rlineto
            -31 24 -39 12 -44 0 -168 0 -121 -191 0 -212 0 -60 10 -49 18 -38 rrcurveto
            -63 -87 rlineto
            return
          </CharString>
          <CharString index="114">
            63 -41 49 67 rlineto
            31 -25 39 -12 45 0 rrcurveto
            return
          </CharString>
          <CharString index="115">
            73 56 -149 149 -6 0 rlineto
            return
          </CharString>
          <CharString index="116">
            48 -55 150 102 rlineto
            return
          </CharString>
          <CharString index="117">
            -10 53 rlineto
            -139 -54 -41 20 0 86 0 8 0 8 1 9 164 24 70 92 0 95 rrcurveto
            return
          </CharString>
          <CharString index="118">
            63 -37 44 -64 vhcurveto
            -34 0 -33 -12 -29 -22 rrcurveto
            return
          </CharString>
          <CharString index="119">
            21 9 -15 -24 hvcurveto
            0 -42 -34 -71 -94 -21 rrcurveto
            16 90 38 83 44 0 rrcurveto
            return
          </CharString>
          <CharString index="120">
            120 51 140 62 vhcurveto
            16 0 20 -4 23 -16 -43 -67 -27 -91 0 -97 rrcurveto
            -2 vlineto
            -24 -32 -23 -22 -23 0 rrcurveto
            return
          </CharString>
          <CharString index="121">
            114 60 106 88 vhcurveto
            28 0 23 -10 16 -20 rrcurveto
            -211 -236 rlineto
            -3 14 -1 15 0 17 rrcurveto
            return
          </CharString>
          <CharString index="122">
            -27 0 -22 9 -16 18 rrcurveto
            209 234 rlineto
            3 -12 1 -14 0 -15 0 -115 -60 -105 -88 0 rrcurveto
            return
          </CharString>
          <CharString index="123">
            0 44 -9 37 -15 31 rrcurveto
            66 74 rlineto
            return
          </CharString>
          <CharString index="124">
            -59 43 -54 -61 rlineto
            -31 24 -40 13 -47 0 -155 0 -115 -148 0 -172 0 -46 9 -39 17 -31 rrcurveto
            -65 -72 rlineto
            return
          </CharString>
          <CharString index="125">
            57 -43 55 60 rlineto
            31 -22 39 -12 46 0 rrcurveto
            return
          </CharString>
          <CharString index="126">
            69 318 -105 -7 -84 -126 49 -32 -36 -167 rlineto
            -27 -123 36 -61 76 0 56 0 56 35 60 67 -11 -105 51 -33 151 90 rrcurveto
            return
          </CharString>
          <CharString index="127">
            -10 54 rlineto
            -77 -27 -4 11 11 55 rrcurveto
            71 364 -104 0 rlineto
            return
          </CharString>
          <CharString index="128">
            -53 -63 -41 -37 -46 0 -48 0 -31 32 -32 74 rrcurveto
            -80 -43 rlineto
            38 -98 59 -49 71 0 75 0 77 54 72 93 rrcurveto
            return
          </CharString>
          <CharString index="129">
            43 135 -126 -1 -33 -135 rlineto
            return
          </CharString>
          <CharString index="130">
            213 147 -48 54 -150 -101 -98 105 -73 -56 149 -149 rlineto
            return
          </CharString>
          <CharString index="131">
            2 -78 -7 -72 -39 -85 rrcurveto
            46 -18 rlineto
            70 82 36 80 10 95 rrcurveto
            return
          </CharString>
          <CharString index="132">
            -38 -28 26 61 96 59 116 81 hvcurveto
            22 0 31 -7 37 -20 -22 -59 -19 -74 -7 -67 -38 -47 -41 -25 -37 0 rrcurveto
            return
          </CharString>
          <CharString index="133">
            44 -19 rlineto
            72 56 45 79 9 78 rrcurveto
            -135 -2 rlineto
            8 -59 -8 -69 -35 -64 rrcurveto
            return
          </CharString>
          <CharString index="134">
            -43 19 rlineto
            -73 -56 -45 -79 -9 -78 rrcurveto
            135 2 rlineto
            -7 60 7 68 35 64 rrcurveto
            return
          </CharString>
          <CharString index="135">
            0 -75 -60 -153 0 -76 0 -74 65 -21 132 81 rrcurveto
            return
          </CharString>
          <CharString index="136">
            64 49 78 77 45 53 rrcurveto
            -99 54 rlineto
            -32 -57 -57 -85 -45 -55 rrcurveto
            return
          </CharString>
          <CharString index="137">
            64 49 76 75 44 55 rrcurveto
            -102 47 rlineto
            -32 -57 -52 -78 -46 -55 rrcurveto
            return
          </CharString>
          <CharString index="138">
            -52 -26 -68 -20 -61 -10 2 10 1 10 0 9 rrcurveto
            35 -20 20 -31 -60 -60 -61 -51 vhcurveto
            0 -30 23 -18 35 -8 -29 -55 -43 -55 -58 -68 rrcurveto
            39 -40 rlineto
            70 70 59 76 37 67 40 2 44 8 43 12 -165 -375 69 -79 235 105 rrcurveto
            return
          </CharString>
          <CharString index="139">
            -84 -60 -52 -62 -55 49 -45 76 83 60 53 62 54 -49 45 -75 hvcurveto
            return
          </CharString>
          <CharString index="140">
            -48 54 -150 -101 -98 105 -73 -56 149 -149 rlineto
            return
          </CharString>
          <CharString index="141">
            33 146 -113 0 -32 -146 rlineto
            return
          </CharString>
          <CharString index="142">
            78 73 -173 195 263 190 -60 83 -270 -211 -27 -108 rlineto
            return
          </CharString>
          <CharString index="143">
            270 211 27 109 -190 221 -77 -73 172 -195 -263 -189 rlineto
            return
          </CharString>
          <CharString index="144">
            -101 56 -58 81 114 93 119 135 102 -54 58 -82 -115 -93 -119 -136 vhcurveto
            return
          </CharString>
          <CharString index="145">
            -87 -45 -90 -66 -40 -24 32 62 87 44 92 66 41 24 -33 -63 vhcurveto
            return
          </CharString>
          <CharString index="146">
            0 49 -43 44 -134 22 rrcurveto
            19 79 173 0 21 71 -256 0 -46 -199 rlineto
            137 -18 46 -26 0 -29 0 -32 -48 -31 -172 14 rrcurveto
            -9 -75 rlineto
            228 -17 84 75 0 73 rrcurveto
            return
          </CharString>
          <CharString index="147">
            93 72 59 86 hvcurveto
            0 100 -113 41 -105 -71 22 53 58 54 132 27 rrcurveto
            -18 69 rlineto
            -210 -51 -77 -116 0 -111 rrcurveto
            -93 62 -47 84 vhcurveto
            return
          </CharString>
          <CharString index="148">
            -39 -39 24 64 hvcurveto
            0 6 0 6 1 6 81 51 69 -27 0 -59 rrcurveto
            -38 -25 -33 -48 vhcurveto
            return
          </CharString>
          <CharString index="149">
            63 111 77 115 90 105 rrcurveto
            15 70 -301 0 -17 -72 212 0 1 -4 rlineto
            -91 -102 -77 -107 -63 -107 rrcurveto
            return
          </CharString>
          <CharString index="150">
            -92 -53 -21 -35 0 -39 rrcurveto
            -54 52 -38 86 vhcurveto
            98 67 49 62 hvcurveto
            return
          </CharString>
          <CharString index="151">
            -41 -33 17 29 hvcurveto
            0 17 12 20 66 37 36 -28 31 -24 0 -24 rrcurveto
            -25 -29 -19 -42 vhcurveto
            return
          </CharString>
          <CharString index="152">
            210 51 77 115 0 111 rrcurveto
            93 -62 47 -84 -93 -72 -59 -86 vhcurveto
            0 -99 113 -40 104 69 -22 -53 -58 -53 -131 -27 rrcurveto
            return
          </CharString>
          <CharString index="153">
            39 25 33 48 39 39 -24 -64 vhcurveto
            0 -6 0 -6 -1 -6 -81 -51 -69 26 0 59 rrcurveto
            return
          </CharString>
          <CharString index="154">
            0 41 -36 36 -39 32 33 16 40 18 49 21 rrcurveto
            -25 46 rlineto
            -57 -24 -47 -22 -39 -19 -26 21 -21 20 0 18 0 27 34 18 113 -28 rrcurveto
            29 78 rlineto
            -167 24 -88 -61 0 -65 0 -33 26 -29 31 -27 rrcurveto
            return
          </CharString>
          <CharString index="155">
            210 51 77 115 0 111 rrcurveto
            93 -62 47 -84 -93 -72 -59 -86 vhcurveto
            return
          </CharString>
          <CharString index="156">
            0 -99 113 -40 104 69 -22 -53 -58 -53 -131 -27 rrcurveto
            return
          </CharString>
          <CharString index="157">
            39 25 33 48 39 39 -24 -64 vhcurveto
            0 -6 0 -6 -1 -6 rrcurveto
            -81 -51 -69 26 0 59 rrcurveto
            return
          </CharString>
          <CharString index="158">
            65 334 -72 0 -89 -182 -3 0 rlineto
            return
          </CharString>
          <CharString index="159">
            0 49 -43 44 -134 22 rrcurveto
            19 79 173 0 21 71 -256 0 -46 -199 rlineto
            return
          </CharString>
          <CharString index="160">
            137 -18 46 -26 0 -29 0 -32 -48 -31 -172 14 rrcurveto
            return
          </CharString>
          <CharString index="161">
            -9 -75 rlineto
            228 -17 84 75 0 73 rrcurveto
            return
          </CharString>
          <CharString index="162">
            0 41 -36 36 -39 32 33 16 40 18 49 21 rrcurveto
            -25 46 rlineto
            -57 -24 -47 -22 -39 -19 -26 21 -21 20 0 18 0 27 34 18 113 -28 rrcurveto
            29 78 rlineto
            -167 24 -88 -61 0 -65 rrcurveto
            return
          </CharString>
          <CharString index="163">
            0 -33 26 -29 31 -27 rrcurveto
            return
          </CharString>
          <CharString index="164">
            -92 -53 -21 -35 0 -39 rrcurveto
            -54 52 -38 86 98 67 49 62 vhcurveto
            return
          </CharString>
          <CharString index="165">
            9 7 6 9 9 7 -6 -9 -9 -7 -7 -9 vhcurveto
            -9 -7 6 10 hvcurveto
            return
          </CharString>
          <CharString index="166">
            8 -2 3 -4 -4 -2 -3 -8 -9 2 -3 4 vhcurveto
            4 2 3 9 hvcurveto
            return
          </CharString>
          <CharString index="167">
            -6 2 -3 5 vhcurveto
            4 0 2 2 1 4 rrcurveto
            5 hlineto
            return
          </CharString>
          <CharString index="168">
            -23.83398 -48 -29.33301 -37 -37.58301 0 -55.91699 0 -29.33301 100 -91.66699 0 -91.66699 0 -25.66602 -100 -55.91699 0 -55.91699 0 -29.33301 100 -91.66699 0 -81.58301 0 -39.41699 -70 -27.5 -58 rrcurveto
            55 -30 rlineto
            23.83398 48 27.5 37 39.41602 0 58.66699 0 32.08301 -100 86.16699 0 86.16699 0 29.33301 100 57.75 0 58.66699 0 32.08301 -100 86.16699 0 80.66602 0 40.33398 69 27.5 57 rrcurveto
            return
          </CharString>
          <CharString index="169">
            77 0 -5.5 -202 174.16602 68 23.83398 -79 -177.83398 -58 112.75 -160 -61.41602 -49 -104.5 168 -104.5 -168 -61.41699 49 112.75 160 -177.83301 58 23.83301 79 174.16699 -68 rlineto
            return
          </CharString>
          <CharString index="170">
            77 0 -5.5 -202 174.16699 68 23.83301 -79 -177.83301 -58 112.75 -160 -61.41699 -49 -104.5 168 -104.5 -168 -61.41602 49 112.75 160 -177.83398 58 23.83398 79 174.16602 -68 rlineto
            return
          </CharString>
          <CharString index="171">
            0 -89 323.58398 -217 -323.58398 -218 0 -90 389.58398 265 0 86 rlineto
            return
          </CharString>
          <CharString index="172">
            390.5 880 -61.41602 32 -391.41699 -882 rlineto
            return
          </CharString>
          <CharString index="173">
            77 0 -5.5 -202 174.16699 68 23.83301 -79 -177.83301 -58 112.75 -160 -61.41699 -49 -104.5 168 -104.5 -168 -61.41699 49 112.75 160 -177.83301 58 23.83301 79 174.16699 -68 rlineto
            return
          </CharString>
          <CharString index="174">
            -68.75 -909 68.75 hlineto
            return
          </CharString>
          <CharString index="175">
            0 622 462.91699 -310 rlineto
            return
          </CharString>
          <CharString index="176">
            -132.91699 0 26.58398 222 134.75 0 rlineto
            return
          </CharString>
          <CharString index="177">
            -45 31.16699 -37 42.16699 43.08301 31.16699 37 45 44 -31.16699 36 -43.08301 -42.16699 -31.16699 -36 -44 vhcurveto
            return
          </CharString>
          <CharString index="178">
            -46 31.16699 -35 42.16699 43.08301 31.16699 35 46 44 -31.16699 37 -43.08301 -42.16699 -31.16699 -37 -44 vhcurveto
            return
          </CharString>
          <CharString index="179">
            -506.91602 -72 506.91602 hlineto
            return
          </CharString>
          <CharString index="180">
            -45 31.16699 -37 42.16602 43.08398 31.16602 37 45 44 -31.16602 36 -43.08398 -42.16602 -31.16699 -36 -44 vhcurveto
            return
          </CharString>
          <CharString index="181">
            -46 31.16699 -35 42.16602 43.08398 31.16602 35 46 44 -31.16602 37 -43.08398 -42.16602 -31.16699 -37 -44 vhcurveto
            return
          </CharString>
          <CharString index="182">
            -66.91699 29 -19.25 30 0 47 0 57 36.66699 39 49.5 9 rrcurveto
            return
          </CharString>
          <CharString index="183">
            0 -101 -55 -38 -60.5 -14 rrcurveto
            290 vlineto
            68.75 -32 46.75 -52 0 -53 rrcurveto
            return
          </CharString>
          <CharString index="184">
            -905.66602 -72 905.66602 hlineto
            return
          </CharString>
          <CharString index="185">
            -86.16699 0 rlineto
            return
          </CharString>
          <CharString index="186">
            9.16699 -462 68.75 0 rlineto
            return
          </CharString>
          <CharString index="187">
            -34.83301 -26.58301 -30 -37 -38 26.58301 -29 34.83301 35.75 25.66699 29 38 37 -25.66699 30 -35.75 hvcurveto
            return
          </CharString>
          <CharString index="188">
            -30.25 -65 363 -204 -363 -204 30.25 -65 405.16602 226 0 85 rlineto
            return
          </CharString>
          <CharString index="189">
            -30.25 -65 363 -204 -363 -204 30.25 -65 405.16699 226 0 85 rlineto
            return
          </CharString>
          <CharString index="190">
            348.33398 72 -348.33398 hlineto
            return
          </CharString>
          <CharString index="191">
            -389.58301 -262 0 -87 389.58301 -265 0 89 -323.58301 219 323.58301 217 rlineto
            return
          </CharString>
          <CharString index="192">
            -462.91699 312 462.91699 310 rlineto
            return
          </CharString>
          <CharString index="193">
            44 -31.16699 36 -42.16602 -43.08398 -31.16602 -36 -44 -45 31.16602 -37 43.08398 42.16602 31.16699 37 45 vhcurveto
            return
          </CharString>
          <CharString index="194">
            44 -31.16699 37 -42.16602 -43.08398 -31.16602 -37 -44 -46 31.16602 -35 43.08398 42.16602 31.16699 35 46 vhcurveto
            return
          </CharString>
          <CharString index="195">
            -405.16699 -227 0 -85 405.16699 -226 30.25 65 -363 204 363 204 rlineto
            return
          </CharString>
          <CharString index="196">
            -405.16602 -227 0 -85 405.16602 -226 30.25 65 -363 204 363 204 rlineto
            return
          </CharString>
          <CharString index="197">
            -71.5 -249 -223.66699 -70 223.66699 -249 71.5 249 225.5 70 -225.5 hlineto
            return
          </CharString>
          <CharString index="198">
            -423.5 -65 423.5 hlineto
            return
          </CharString>
          <CharString index="199">
            81.58301 66 -73.33301 hlineto
            21.08301 167 -65.08301 0 -21.08301 -167 -133.83398 0 21.08398 167 -65.08398 0 -21.08301 -167 -81.58301 0 0 -66 74.25 0 -28.41699 -222 -79.75 0 0 -64 72.41699 0 -20.16699 -170 rlineto
            65.08301 0 21.08398 170 132.91602 0 -20.16602 -170 65.08301 0 19.25 170 83.41699 0 0 64 -74.25 0 rlineto
            return
          </CharString>
          <CharString index="200">
            26.58301 222 134.75 0 -28.41602 -222 rlineto
            return
          </CharString>
          <CharString index="201">
            -285.08301 0 26.58301 222 286.91699 0 rlineto
            return
          </CharString>
          <CharString index="202">
            26.58398 222 134.75 0 -28.41699 -222 rlineto
            return
          </CharString>
          <CharString index="203">
            -85.25 -49.5 -74 -86 -85 49.5 -77 85.25 86.16699 48.58301 77 85 86 -48.58301 74 -86.16699 hvcurveto
            return
          </CharString>
          <CharString index="204">
            -50 34.83301 -38 45.83301 46.75 33.91699 38 50 49 -33.91699 39 -46.75 -45.83301 -34.83301 -39 -49 vhcurveto
            return
          </CharString>
          <CharString index="205">
            -34.83301 -25.66699 -30 -37 -38 25.66699 -29 34.83301 35.75 26.58398 29 38 37 -26.58398 30 -35.75 hvcurveto
            return
          </CharString>
          <CharString index="206">
            -34.83398 -26.58301 -30 -37 -38 26.58301 -29 34.83398 35.75 25.66602 29 38 37 -25.66602 30 -35.75 hvcurveto
            return
          </CharString>
          <CharString index="207">
            -73.33398 0 -65.08301 -31 -53.16699 -68 rrcurveto
            54.08398 -45 rlineto
            38.5 51 48.58301 23 43.08301 0 61.41699 0 46.75 -33 0 -57 0 -113 -162.25 1 0 -162 rrcurveto
            -39 77 34 vlineto
            0 147 165.91699 -23 0 160 rrcurveto
            79 -68.75 76 -112.75 vhcurveto
            return
          </CharString>
          <CharString index="208">
            -34.83301 -26.58398 -30 -37 -38 26.58398 -29 34.83301 35.75 25.66699 29 38 37 -25.66699 30 -35.75 hvcurveto
            return
          </CharString>
          <CharString index="209">
            390.5 880 -61.41699 32 -391.41602 -882 rlineto
            return
          </CharString>
          <CharString index="210">
            -483.08301 0 -33 -72 516.08301 0 rlineto
            return
          </CharString>
          <CharString index="211">
            -567.41699 0 -33 -72 600.41699 0 rlineto
            return
          </CharString>
          <CharString index="212">
            -69.66699 -801 69.66699 hlineto
            return
          </CharString>
          <CharString index="213">
            -599.5 -72 599.5 hlineto
            return
          </CharString>
          <CharString index="214">
            -506.91699 -72 506.91699 hlineto
            return
          </CharString>
          <CharString index="215">
            -1455.66602 -72 1455.66602 hlineto
            return
          </CharString>
          <CharString index="216">
            -590.33301 -72 590.33301 hlineto
            return
          </CharString>
          <CharString index="217">
            -57.75 -54 209.91699 -251 -209.91699 -251 57.75 -54 248.41699 305 rlineto
            return
          </CharString>
          <CharString index="218">
            -248.41699 -305 248.41699 -305 57.75 54 -209.91699 251 209.91699 251 rlineto
            return
          </CharString>
          <CharString index="219">
            395.08301 72 -395.08301 hlineto
            return
          </CharString>
          <CharString index="220">
            -57.75 54 -248.41699 -305 248.41699 -305 57.75 54 -209.91699 251 rlineto
            return
          </CharString>
          <CharString index="221">
            -352 -237 0 -87 348.33398 -237 41.25 61 -323.58398 219 323.58398 217 rlineto
            return
          </CharString>
          <CharString index="222">
            -389.58398 -262 0 -87 389.58398 -265 0 89 -323.58398 219 323.58398 217 rlineto
            return
          </CharString>
          <CharString index="223">
            0 -89 323.58301 -217 -323.58301 -218 0 -90 389.58301 265 0 86 rlineto
            return
          </CharString>
          <CharString index="224">
            -801 69.66699 801 vlineto
            return
          </CharString>
          <CharString index="225">
            -50 34.83398 -38 45.83301 46.75 33.91699 38 50 49 -33.91699 39 -46.75 -45.83301 -34.83398 -39 -49 vhcurveto
            return
          </CharString>
        <CharString name=".notdef">
          -200 50 900 50 hstem
          0.5 53.5 432 54.5 vstem
          8 -200 rmoveto
          540 0 -15 1000 -540 0 rlineto
          77 -50 rmoveto
          387 0 -188 -390 rlineto
          211 316 rmoveto
          12 -752 -191 376 rlineto
          -241 -376 rmoveto
          -12 752 192 -376 rlineto
          31 -60 rmoveto
          200 -390 -387 0 rlineto
          endchar
        </CharString>
        <CharString name="A">
          17 -21 25 -21 25 -21 167 83 272 95 hstemhm
          359 119 hintmask 10011100
          368 -4 rmoveto
          hintmask 00111100
          -104 callsubr
          hintmask 01011100
          -103 callsubr
          hintmask 00111100
          -38 530 rmoveto
          -102 callsubr
          endchar
        </CharString>
        <CharString name="AE">
          0 91 76 80 27 76 179 91 hstem
          -30 632 vstem
          325 529 rmoveto
          -2 callsubr
          -93 -529 rmoveto
          -1 callsubr
          endchar
        </CharString>
        <CharString name="AEacute">
          0 91 76 80 27 76 179 91 hstem
          -30 632 vstem
          305 728 rmoveto
          -16 callsubr
          20 -199 rmoveto
          -2 callsubr
          -93 -529 rmoveto
          -1 callsubr
          endchar
        </CharString>
        <CharString name="Aacute">
          17 -21 25 -21 25 -21 167 83 272 95 hstemhm
          359 119 hintmask 00111100
          234 729 rmoveto
          -16 callsubr
          hintmask 10011100
          134 -733 rmoveto
          hintmask 00111100
          -104 callsubr
          hintmask 01011100
          -103 callsubr
          hintmask 00111100
          -38 530 rmoveto
          -102 callsubr
          endchar
        </CharString>
        <CharString name="Abreve">
          17 -21 25 -21 25 -21 167 83 272 95 66 84 hstemhm
          359 119 hintmask 00111110
          530 871 rmoveto
          21 callsubr
          hintmask 10011110
          -223 -838 rmoveto
          hintmask 00111110
          -104 callsubr
          hintmask 01011110
          -103 callsubr
          hintmask 00111110
          -38 530 rmoveto
          -102 callsubr
          endchar
        </CharString>
        <CharString name="Acircumflex">
          17 -21 25 -21 25 -21 167 83 272 95 hstemhm
          359 119 hintmask 00111100
          488 680 rmoveto
          -6 callsubr
          hintmask 10011100
          -22 -790 rmoveto
          hintmask 00111100
          -104 callsubr
          hintmask 01011100
          -103 callsubr
          hintmask 00111100
          -38 530 rmoveto
          -102 callsubr
          endchar
        </CharString>
        <CharString name="Adieresis">
          17 -21 25 -21 25 -21 167 83 272 95 76.5 135 hstemhm
          359 119 hintmask 00111110
          527 700 rmoveto
          -23 callsubr
          -106 -1 rmoveto
          -22 callsubr
          hintmask 10011110
          174 -701 rmoveto
          hintmask 00111110
          -104 callsubr
          hintmask 01011110
          -103 callsubr
          hintmask 00111110
          -38 530 rmoveto
          -102 callsubr
          endchar
        </CharString>
        <CharString name="Agrave">
          17 -21 25 -21 25 -21 167 83 272 95 hstemhm
          359 119 hintmask 00111100
          512 722 rmoveto
          -73 callsubr
          hintmask 10011100
          -120 -682 rmoveto
          hintmask 00111100
          -104 callsubr
          hintmask 01011100
          -103 callsubr
          hintmask 00111100
          -38 530 rmoveto
          -102 callsubr
          endchar
        </CharString>
        <CharString name="Amacron">
          17 -21 25 -21 25 -21 167 83 272 95 102 89 hstemhm
          359 119 hintmask 00111110
          564 812 rmoveto
          -19 callsubr
          hintmask 10011110
          -179 -727 rmoveto
          hintmask 00111110
          -104 callsubr
          hintmask 01011110
          -103 callsubr
          hintmask 00111110
          -38 530 rmoveto
          -102 callsubr
          endchar
        </CharString>
        <CharString name="Aogonek">
          -211 73 -30 30 159 -21 25 -21 167 83 272 95 hstemhm
          200 98 61 119 hintmask 10011111
          446 -168 rmoveto
          hintmask 01011111
          -12 49 rlineto
          -98 -33 -38 15 0 31 0 33 49 41 131 36 -13 208 -17 205 -19 204 rrcurveto
          -153 hlineto
          hintmask 10101111
          -100 -206 -97 -209 -90 -206 rrcurveto
          112 hlineto
          23 57 25 57 24 57 rrcurveto
          186 hlineto
          3 -52 2 -51 3 -51 -121 -50 -47 -56 1 -48 rrcurveto
          1 -67 85 -43 160 79 rrcurveto
          hintmask 01011111
          -116 694 rmoveto
          -102 callsubr
          endchar
        </CharString>
        <CharString name="Aring">
          17 -21 25 -21 25 -21 167 83 272 95 53 214 hstemhm
          359 119 hintmask 00111110
          394 888 rmoveto
          -3 callsubr
          hintmask 10011110
          -26 -892 rmoveto
          hintmask 00111110
          -104 callsubr
          hintmask 01011110
          -103 callsubr
          hintmask 00111110
          -38 530 rmoveto
          -102 callsubr
          endchar
        </CharString>
        <CharString name="Aringacute">
          17 -21 25 -21 25 -21 167 83 272 95 hstemhm
          359 119 hintmask 00111100
          288 969 rmoveto
          -16 callsubr
          106 -81 rmoveto
          32 callsubr
          hintmask 10011100
          -26 -892 rmoveto
          hintmask 00111100
          -104 callsubr
          hintmask 01011100
          -103 callsubr
          hintmask 00111100
          -38 530 rmoveto
          -102 callsubr
          endchar
        </CharString>
        <CharString name="Atilde">
          17 -21 25 -21 25 -21 167 83 272 95 70 82 11 81 hstemhm
          359 119 hintmask 00111101
          463 773 rmoveto
          hintmask 00111111
          -5 callsubr
          hintmask 00111101
          -4 callsubr
          hintmask 10011101
          -95 -777 rmoveto
          hintmask 00111101
          -104 callsubr
          hintmask 01011101
          -103 callsubr
          hintmask 00111101
          -38 530 rmoveto
          -102 callsubr
          endchar
        </CharString>
        <CharString name="B">
          -7 91 -62 -21 536 90 hstemhm
          386 107 -76 108 hintmask 10110000
          493 192 rmoveto
          0 62 -41 48 -68 19 rrcurveto
          hintmask 01101000
          89 34 52 61 0 71 0 99 -105 70 -262 -40 rrcurveto
          -119 -615 rlineto
          331 -41 123 115 0 117 rrcurveto
          hintmask 10101000
          -76 271 rmoveto
          0 -60 -61 -55 -141 -9 rrcurveto
          38 198 rlineto
          109 12 55 -32 0 -54 rrcurveto
          hintmask 10110000
          -31 -276 rmoveto
          0 -67 -72 -52 -148 20 rrcurveto
          37 187 rlineto
          128 11 55 -38 0 -61 rrcurveto
          endchar
        </CharString>
        <CharString name="C">
          -13 100 448 98 hstem
          58 111 251 105 vstem
          376 633 rmoveto
          -101 callsubr
          endchar
        </CharString>
        <CharString name="CR.1.0">
          endchar
        </CharString>
        <CharString name="CR.10.0">
          endchar
        </CharString>
        <CharString name="CR.100.0">
          endchar
        </CharString>
        <CharString name="CR.100.1">
          endchar
        </CharString>
        <CharString name="CR.101.0">
          endchar
        </CharString>
        <CharString name="CR.101.1">
          endchar
        </CharString>
        <CharString name="CR.102.0">
          endchar
        </CharString>
        <CharString name="CR.102.1">
          endchar
        </CharString>
        <CharString name="CR.103.0">
          endchar
        </CharString>
        <CharString name="CR.103.1">
          endchar
        </CharString>
        <CharString name="CR.104.0">
          endchar
        </CharString>
        <CharString name="CR.104.1">
          endchar
        </CharString>
        <CharString name="CR.105.0">
          endchar
        </CharString>
        <CharString name="CR.105.1">
          endchar
        </CharString>
        <CharString name="CR.106.0">
          endchar
        </CharString>
        <CharString name="CR.106.1">
          endchar
        </CharString>
        <CharString name="CR.107.0">
          endchar
        </CharString>
        <CharString name="CR.107.1">
          endchar
        </CharString>
        <CharString name="CR.108.0">
          endchar
        </CharString>
        <CharString name="CR.108.1">
          endchar
        </CharString>
        <CharString name="CR.109.0">
          endchar
        </CharString>
        <CharString name="CR.109.1">
          endchar
        </CharString>
        <CharString name="CR.11.0">
          endchar
        </CharString>
        <CharString name="CR.110.0">
          endchar
        </CharString>
        <CharString name="CR.110.1">
          endchar
        </CharString>
        <CharString name="CR.111.0">
          endchar
        </CharString>
        <CharString name="CR.111.1">
          endchar
        </CharString>
        <CharString name="CR.112.0">
          endchar
        </CharString>
        <CharString name="CR.112.1">
          endchar
        </CharString>
        <CharString name="CR.113.0">
          endchar
        </CharString>
        <CharString name="CR.113.1">
          endchar
        </CharString>
        <CharString name="CR.114.0">
          endchar
        </CharString>
        <CharString name="CR.114.1">
          endchar
        </CharString>
        <CharString name="CR.115.0">
          endchar
        </CharString>
        <CharString name="CR.115.1">
          endchar
        </CharString>
        <CharString name="CR.116.0">
          endchar
        </CharString>
        <CharString name="CR.116.1">
          endchar
        </CharString>
        <CharString name="CR.117.0">
          endchar
        </CharString>
        <CharString name="CR.117.1">
          endchar
        </CharString>
        <CharString name="CR.118.0">
          endchar
        </CharString>
        <CharString name="CR.118.1">
          endchar
        </CharString>
        <CharString name="CR.119.0">
          endchar
        </CharString>
        <CharString name="CR.119.1">
          endchar
        </CharString>
        <CharString name="CR.12.0">
          endchar
        </CharString>
        <CharString name="CR.120.0">
          endchar
        </CharString>
        <CharString name="CR.120.1">
          endchar
        </CharString>
        <CharString name="CR.121.0">
          endchar
        </CharString>
        <CharString name="CR.121.1">
          endchar
        </CharString>
        <CharString name="CR.122.0">
          endchar
        </CharString>
        <CharString name="CR.122.1">
          endchar
        </CharString>
        <CharString name="CR.123.0">
          endchar
        </CharString>
        <CharString name="CR.123.1">
          endchar
        </CharString>
        <CharString name="CR.124.0">
          endchar
        </CharString>
        <CharString name="CR.124.1">
          endchar
        </CharString>
        <CharString name="CR.125.0">
          endchar
        </CharString>
        <CharString name="CR.125.1">
          endchar
        </CharString>
        <CharString name="CR.126.0">
          endchar
        </CharString>
        <CharString name="CR.126.1">
          endchar
        </CharString>
        <CharString name="CR.126.2">
          endchar
        </CharString>
        <CharString name="CR.127.0">
          endchar
        </CharString>
        <CharString name="CR.127.1">
          endchar
        </CharString>
        <CharString name="CR.127.2">
          endchar
        </CharString>
        <CharString name="CR.128.0">
          endchar
        </CharString>
        <CharString name="CR.128.1">
          endchar
        </CharString>
        <CharString name="CR.128.2">
          endchar
        </CharString>
        <CharString name="CR.129.0">
          endchar
        </CharString>
        <CharString name="CR.129.1">
          endchar
        </CharString>
        <CharString name="CR.129.2">
          endchar
        </CharString>
        <CharString name="CR.13.0">
          endchar
        </CharString>
        <CharString name="CR.130.0">
          endchar
        </CharString>
        <CharString name="CR.130.1">
          endchar
        </CharString>
        <CharString name="CR.130.2">
          endchar
        </CharString>
        <CharString name="CR.14.0">
          endchar
        </CharString>
        <CharString name="CR.15.0">
          endchar
        </CharString>
        <CharString name="CR.16.0">
          endchar
        </CharString>
        <CharString name="CR.17.0">
          endchar
        </CharString>
        <CharString name="CR.18.0">
          endchar
        </CharString>
        <CharString name="CR.19.0">
          endchar
        </CharString>
        <CharString name="CR.2.0">
          endchar
        </CharString>
        <CharString name="CR.20.0">
          endchar
        </CharString>
        <CharString name="CR.21.0">
          endchar
        </CharString>
        <CharString name="CR.22.0">
          endchar
        </CharString>
        <CharString name="CR.23.0">
          endchar
        </CharString>
        <CharString name="CR.24.0">
          endchar
        </CharString>
        <CharString name="CR.25.0">
          endchar
        </CharString>
        <CharString name="CR.26.0">
          endchar
        </CharString>
        <CharString name="CR.27.0">
          endchar
        </CharString>
        <CharString name="CR.28.0">
          endchar
        </CharString>
        <CharString name="CR.29.0">
          endchar
        </CharString>
        <CharString name="CR.3.0">
          endchar
        </CharString>
        <CharString name="CR.30.0">
          endchar
        </CharString>
        <CharString name="CR.31.0">
          endchar
        </CharString>
        <CharString name="CR.32.0">
          endchar
        </CharString>
        <CharString name="CR.33.0">
          endchar
        </CharString>
        <CharString name="CR.34.0">
          endchar
        </CharString>
        <CharString name="CR.35.0">
          endchar
        </CharString>
        <CharString name="CR.36.0">
          endchar
        </CharString>
        <CharString name="CR.37.0">
          endchar
        </CharString>
        <CharString name="CR.38.0">
          endchar
        </CharString>
        <CharString name="CR.39.0">
          endchar
        </CharString>
        <CharString name="CR.4.0">
          endchar
        </CharString>
        <CharString name="CR.40.0">
          endchar
        </CharString>
        <CharString name="CR.41.0">
          endchar
        </CharString>
        <CharString name="CR.42.0">
          endchar
        </CharString>
        <CharString name="CR.43.0">
          endchar
        </CharString>
        <CharString name="CR.44.0">
          endchar
        </CharString>
        <CharString name="CR.45.0">
          endchar
        </CharString>
        <CharString name="CR.46.0">
          endchar
        </CharString>
        <CharString name="CR.47.0">
          endchar
        </CharString>
        <CharString name="CR.48.0">
          endchar
        </CharString>
        <CharString name="CR.49.0">
          endchar
        </CharString>
        <CharString name="CR.5.0">
          endchar
        </CharString>
        <CharString name="CR.50.0">
          endchar
        </CharString>
        <CharString name="CR.51.0">
          endchar
        </CharString>
        <CharString name="CR.52.0">
          endchar
        </CharString>
        <CharString name="CR.53.0">
          endchar
        </CharString>
        <CharString name="CR.54.0">
          endchar
        </CharString>
        <CharString name="CR.55.0">
          endchar
        </CharString>
        <CharString name="CR.56.0">
          endchar
        </CharString>
        <CharString name="CR.57.0">
          endchar
        </CharString>
        <CharString name="CR.58.0">
          endchar
        </CharString>
        <CharString name="CR.59.0">
          endchar
        </CharString>
        <CharString name="CR.6.0">
          endchar
        </CharString>
        <CharString name="CR.60.0">
          endchar
        </CharString>
        <CharString name="CR.61.0">
          endchar
        </CharString>
        <CharString name="CR.62.0">
          endchar
        </CharString>
        <CharString name="CR.63.0">
          endchar
        </CharString>
        <CharString name="CR.64.0">
          endchar
        </CharString>
        <CharString name="CR.65.0">
          endchar
        </CharString>
        <CharString name="CR.66.0">
          endchar
        </CharString>
        <CharString name="CR.67.0">
          endchar
        </CharString>
        <CharString name="CR.68.0">
          endchar
        </CharString>
        <CharString name="CR.69.0">
          endchar
        </CharString>
        <CharString name="CR.7.0">
          endchar
        </CharString>
        <CharString name="CR.70.0">
          endchar
        </CharString>
        <CharString name="CR.71.0">
          endchar
        </CharString>
        <CharString name="CR.72.0">
          endchar
        </CharString>
        <CharString name="CR.73.0">
          endchar
        </CharString>
        <CharString name="CR.74.0">
          endchar
        </CharString>
        <CharString name="CR.75.0">
          endchar
        </CharString>
        <CharString name="CR.75.1">
          endchar
        </CharString>
        <CharString name="CR.76.0">
          endchar
        </CharString>
        <CharString name="CR.76.1">
          endchar
        </CharString>
        <CharString name="CR.77.0">
          endchar
        </CharString>
        <CharString name="CR.77.1">
          endchar
        </CharString>
        <CharString name="CR.78.0">
          endchar
        </CharString>
        <CharString name="CR.78.1">
          endchar
        </CharString>
        <CharString name="CR.79.0">
          endchar
        </CharString>
        <CharString name="CR.79.1">
          endchar
        </CharString>
        <CharString name="CR.8.0">
          endchar
        </CharString>
        <CharString name="CR.80.0">
          endchar
        </CharString>
        <CharString name="CR.80.1">
          endchar
        </CharString>
        <CharString name="CR.81.0">
          endchar
        </CharString>
        <CharString name="CR.81.1">
          endchar
        </CharString>
        <CharString name="CR.82.0">
          endchar
        </CharString>
        <CharString name="CR.82.1">
          endchar
        </CharString>
        <CharString name="CR.83.0">
          endchar
        </CharString>
        <CharString name="CR.83.1">
          endchar
        </CharString>
        <CharString name="CR.84.0">
          endchar
        </CharString>
        <CharString name="CR.84.1">
          endchar
        </CharString>
        <CharString name="CR.85.0">
          endchar
        </CharString>
        <CharString name="CR.85.1">
          endchar
        </CharString>
        <CharString name="CR.86.0">
          endchar
        </CharString>
        <CharString name="CR.86.1">
          endchar
        </CharString>
        <CharString name="CR.87.0">
          endchar
        </CharString>
        <CharString name="CR.87.1">
          endchar
        </CharString>
        <CharString name="CR.88.0">
          endchar
        </CharString>
        <CharString name="CR.88.1">
          endchar
        </CharString>
        <CharString name="CR.89.0">
          endchar
        </CharString>
        <CharString name="CR.89.1">
          endchar
        </CharString>
        <CharString name="CR.9.0">
          endchar
        </CharString>
        <CharString name="CR.90.0">
          endchar
        </CharString>
        <CharString name="CR.90.1">
          endchar
        </CharString>
        <CharString name="CR.91.0">
          endchar
        </CharString>
        <CharString name="CR.91.1">
          endchar
        </CharString>
        <CharString name="CR.92.0">
          endchar
        </CharString>
        <CharString name="CR.92.1">
          endchar
        </CharString>
        <CharString name="CR.93.0">
          endchar
        </CharString>
        <CharString name="CR.93.1">
          endchar
        </CharString>
        <CharString name="CR.94.0">
          endchar
        </CharString>
        <CharString name="CR.94.1">
          endchar
        </CharString>
        <CharString name="CR.95.0">
          endchar
        </CharString>
        <CharString name="CR.95.1">
          endchar
        </CharString>
        <CharString name="CR.96.0">
          endchar
        </CharString>
        <CharString name="CR.96.1">
          endchar
        </CharString>
        <CharString name="CR.97.0">
          endchar
        </CharString>
        <CharString name="CR.97.1">
          endchar
        </CharString>
        <CharString name="CR.98.0">
          endchar
        </CharString>
        <CharString name="CR.98.1">
          endchar
        </CharString>
        <CharString name="CR.99.0">
          endchar
        </CharString>
        <CharString name="CR.99.1">
          endchar
        </CharString>
        <CharString name="Cacute">
          -13 100 448 98 hstem
          58 111 251 105 vstem
          245 741 rmoveto
          -16 callsubr
          131 -108 rmoveto
          -101 callsubr
          endchar
        </CharString>
        <CharString name="Ccaron">
          -13 100 448 98 hstem
          58 111 251 105 vstem
          375 689 rmoveto
          23 callsubr
          8 -56 rmoveto
          -101 callsubr
          endchar
        </CharString>
        <CharString name="Ccedilla">
          -66 153 -99 99 -68 -21 537 98 hstemhm
          58 111 105 93 53 105 hintmask 10011110
          367 -186 rmoveto
          hintmask 01011110
          5 88 -23 57 -37 29 44 4 48 11 53 18 rrcurveto
          11 99 rlineto
          -205 -71 -94 43 0 151 0 136 77 156 107 0 59 0 11 -44 -3 -100 rrcurveto
          105 2 rlineto
          7 160 -38 80 -118 0 -176 0 -142 -195 0 -212 rrcurveto
          hintmask 00111110
          0 -121 48 -80 91 -27 rrcurveto
          hintmask 10011110
          -39 -21 -35 -47 -31 -75 rrcurveto
          55 -18 rlineto
          30 61 28 36 29 0 29 0 16 -34 -5 -88 rrcurveto
          endchar
        </CharString>
        <CharString name="Cdotaccent">
          -13 100 448 98 77.5 135 hstem
          58 111 251 105 vstem
          429 711 rmoveto
          22 callsubr
          63 -77 rmoveto
          -101 callsubr
          endchar
        </CharString>
        <CharString name="D">
          -5 92 -65 -21 533 93 hstemhm
          417 111 hintmask 10110000
          528 387 rmoveto
          -100 callsubr
          hintmask 01110000
          -99 callsubr
          -111 -11 rmoveto
          -98 callsubr
          endchar
        </CharString>
        <CharString name="Dcaron">
          -5 92 -65 -21 533 93 hstemhm
          417 111 hintmask 10110000
          363 683 rmoveto
          23 callsubr
          172 -296 rmoveto
          -100 callsubr
          hintmask 01110000
          -99 callsubr
          -111 -11 rmoveto
          -98 callsubr
          endchar
        </CharString>
        <CharString name="Dcroat">
          -5 92 -65 -21 274 77 182 93 hstemhm
          417 111 hintmask 10111000
          528 387 rmoveto
          0 callsubr
          hintmask 01111000
          1 callsubr
          -224 -112 rmoveto
          2 callsubr
          endchar
        </CharString>
        <CharString name="E">
          0 93 178 81 175 93 hstem
          48 500 vstem
          450 93 rmoveto
          -97 callsubr
          endchar
        </CharString>
        <CharString name="Eacute">
          0 93 178 81 175 93 hstem
          48 500 vstem
          241 728 rmoveto
          -16 callsubr
          209 -635 rmoveto
          -97 callsubr
          endchar
        </CharString>
        <CharString name="Ebreve">
          0 93 178 81 175 93 66 84 hstem
          48 549 vstem
          536 870 rmoveto
          21 callsubr
          -147 -740 rmoveto
          -97 callsubr
          endchar
        </CharString>
        <CharString name="Ecaron">
          0 93 178 81 175 93 hstem
          48 536 vstem
          371 676 rmoveto
          23 callsubr
          86 -583 rmoveto
          -97 callsubr
          endchar
        </CharString>
        <CharString name="Ecircumflex">
          0 93 178 81 175 93 hstem
          48 519 vstem
          494 679 rmoveto
          -6 callsubr
          54 -692 rmoveto
          -97 callsubr
          endchar
        </CharString>
        <CharString name="Edieresis">
          0 93 178 81 175 93 76.5 135 hstem
          48 528 vstem
          533 699 rmoveto
          -23 callsubr
          -106 -1 rmoveto
          -22 callsubr
          250 -603 rmoveto
          -97 callsubr
          endchar
        </CharString>
        <CharString name="Edotaccent">
          0 93 178 81 175 93 77.5 135 hstem
          48 500 vstem
          425 698 rmoveto
          22 callsubr
          141 -604 rmoveto
          -97 callsubr
          endchar
        </CharString>
        <CharString name="Egrave">
          0 93 178 81 175 93 hstem
          48 500 vstem
          519 721 rmoveto
          -73 callsubr
          -45 -584 rmoveto
          -97 callsubr
          endchar
        </CharString>
        <CharString name="Emacron">
          0 93 178 81 175 93 102 89 hstem
          48 522 vstem
          570 811 rmoveto
          -19 callsubr
          -103 -629 rmoveto
          -97 callsubr
          endchar
        </CharString>
        <CharString name="Eogonek">
          -212 74 -31 31 138 93 178 81 175 93 hstemhm
          148 97 hintmask 10111100
          393 -169 rmoveto
          hintmask 01111100
          -11 49 rlineto
          -98 -33 -39 16 0 31 0 32 50 39 130 35 rrcurveto
          25 93 -274 0 35 178 228 0 16 81 -228 0 34 175 269 0 18 93 -380 0 -120 -620 236 0 rlineto
          hintmask 10111100
          -97 -45 -39 -49 0 -44 rrcurveto
          0 -67 85 -43 160 79 rrcurveto
          endchar
        </CharString>
        <CharString name="Eth">
          -5 92 -65 -21 274 77 182 93 hstemhm
          417 111 hintmask 10111000
          528 387 rmoveto
          0 callsubr
          hintmask 01111000
          1 callsubr
          -224 -112 rmoveto
          2 callsubr
          endchar
        </CharString>
        <CharString name="Euro">
          -12 90 103 78 -68 71 75 70 136 91 hstemhm
          28 532 -455 101 258 96 hintmask 10111100
          482 37 rmoveto
          -10 64 rlineto
          -176 -49 -74 27 -14 112 rrcurveto
          199 0 17 71 rlineto
          hintmask 10111011
          -218 hlineto
          1 25 4 25 6 25 rrcurveto
          224 0 17 70 -218 0 rlineto
          33 77 54 59 64 0 50 0 16 -30 7 -59 rrcurveto
          96 15 rlineto
          -8 113 -45 52 -91 0 -117 0 -102 -92 -54 -127 rrcurveto
          -70 0 -16 -78 61 0 rlineto
          hintmask 11011010
          -6 -25 -4 -26 -3 -27 rrcurveto
          -61 0 -16 -78 78 0 rlineto
          16 -165 119 -90 241 111 rrcurveto
          endchar
        </CharString>
        <CharString name="F">
          21 -21 255 86 184 95 hstem
          51 510 vstem
          447 255 rmoveto
          17 86 -236 0 36 184 280 0 17 95 -390 0 -120 -620 111 0 50 255 rlineto
          endchar
        </CharString>
        <CharString name="G">
          -10 95 -64 -21 534 99 hstemhm
          57 112 243 104 hintmask 10111000
          412 -107 rmoveto
          -96 callsubr
          hintmask 01111000
          -95 callsubr
          endchar
        </CharString>
        <CharString name="Gbreve">
          -10 95 -64 -21 534 99 66 84 hstemhm
          57 112 243 104 hintmask 10111100
          535 883 rmoveto
          21 callsubr
          -184 -953 rmoveto
          -96 callsubr
          hintmask 01111100
          -95 callsubr
          endchar
        </CharString>
        <CharString name="Gcommaaccent">
          -10 95 -64 -21 534 99 hstemhm
          57 112 -27 132 138 104 hintmask 10110100
          412 -107 rmoveto
          -96 callsubr
          hintmask 01110100
          -95 callsubr
          hintmask 10101100
          -207 -236 rmoveto
          26 callsubr
          endchar
        </CharString>
        <CharString name="Gdotaccent">
          -10 95 -64 -21 534 99 77.5 135 hstemhm
          57 112 243 104 hintmask 10111100
          424 711 rmoveto
          22 callsubr
          104 -817 rmoveto
          -96 callsubr
          hintmask 01111100
          -95 callsubr
          endchar
        </CharString>
        <CharString name="H">
          21 -21 270 86 264 -20 hstem
          29 531 vstem
          328 hmoveto
          112 0 120 620 -112 0 -51 -264 -186 0 51 264 -113 0 -120 -620 113 0 52 270 186 0 rlineto
          endchar
        </CharString>
        <CharString name="Hbar">
          21 -21 253 87 96 77 -73 70 -70 180 hstemhm
          29 574 hintmask 11010100
          394 340 rmoveto
          -186 0 19 100 186 0 rlineto
          -85 -440 rmoveto
          112 0 rlineto
          hintmask 11100100
          84 436 64 0 15 77 -64 0 rlineto
          hintmask 11001100
          21 107 -112 0 rlineto
          hintmask 11010100
          -21 -110 -186 0 rlineto
          hintmask 11001100
          21 110 -113 0 rlineto
          hintmask 11100100
          -21 -107 -64 0 -15 -77 64 0 -84 -436 113 0 49 253 186 0 rlineto
          endchar
        </CharString>
        <CharString name="I">
          0 88 444 88 hstem
          28 508 vstem
          295 88 rmoveto
          -94 callsubr
          endchar
        </CharString>
        <CharString name="Iacute">
          0 88 444 88 hstem
          28 508 vstem
          225 728 rmoveto
          -16 callsubr
          70 -640 rmoveto
          -94 callsubr
          endchar
        </CharString>
        <CharString name="Ibreve">
          0 88 444 88 66 84 hstem
          28 554 vstem
          521 870 rmoveto
          21 callsubr
          -287 -745 rmoveto
          -94 callsubr
          endchar
        </CharString>
        <CharString name="Icircumflex">
          0 88 444 88 hstem
          28 523 vstem
          478 679 rmoveto
          -6 callsubr
          -85 -697 rmoveto
          -94 callsubr
          endchar
        </CharString>
        <CharString name="Idieresis">
          0 88 444 88 76.5 135 hstem
          28 533 vstem
          518 699 rmoveto
          -23 callsubr
          -106 -1 rmoveto
          -22 callsubr
          110 -608 rmoveto
          -94 callsubr
          endchar
        </CharString>
        <CharString name="Idotaccent">
          0 88 444 88 77.5 135 hstem
          28 508 vstem
          409 698 rmoveto
          22 callsubr
          2 -609 rmoveto
          -94 callsubr
          endchar
        </CharString>
        <CharString name="Igrave">
          0 88 444 88 hstem
          28 508 vstem
          503 721 rmoveto
          -73 callsubr
          -184 -589 rmoveto
          -94 callsubr
          endchar
        </CharString>
        <CharString name="Imacron">
          0 88 444 88 102 89 hstem
          28 526 vstem
          554 811 rmoveto
          -19 callsubr
          -242 -634 rmoveto
          -94 callsubr
          endchar
        </CharString>
        <CharString name="Iogonek">
          -211 73 -30 30 138 88 444 88 hstemhm
          72 98 hintmask 10111000
          318 -168 rmoveto
          hintmask 01111000
          -11 49 rlineto
          -98 -33 -39 15 0 31 0 32 33 38 84 36 rrcurveto
          131 0 21 88 -144 0 86 444 139 0 16 88 -390 0 -17 -88 141 0 -86 -444 -139 0 -17 -88 148 0 rlineto
          hintmask 10111000
          -73 -45 -31 -48 0 -43 rrcurveto
          0 -68 85 -43 161 79 rrcurveto
          endchar
        </CharString>
        <CharString name="J">
          -11 101 442 88 hstem
          30 475 vstem
          364 52 rmoveto
          28 28 14 32 35 181 rrcurveto
          64 327 -307 0 -18 -88 196 0 -49 -251 rlineto
          -25 -124 -8 -27 -16 -16 -23 -23 -43 -3 -165 2 rrcurveto
          -17 -101 rlineto
          205 -2 87 23 42 42 rrcurveto
          endchar
        </CharString>
        <CharString name="K">
          14 -21 28 -21 28 -21 613 -20 hstemhm
          36 556 hintmask 10011000
          373 -7 rmoveto
          hintmask 00111000
          -93 callsubr
          -64 310 rmoveto
          hintmask 01011000
          -92 callsubr
          endchar
        </CharString>
        <CharString name="Kcommaaccent">
          14 -21 28 -21 28 -21 613 -20 hstemhm
          183 132 hintmask 10011000
          373 -7 rmoveto
          hintmask 00111000
          -93 callsubr
          -64 310 rmoveto
          hintmask 01011000
          -92 callsubr
          -122 -888 rmoveto
          26 callsubr
          endchar
        </CharString>
        <CharString name="L">
          0 95 525 -20 hstem
          53 415 vstem
          449 hmoveto
          -91 callsubr
          endchar
        </CharString>
        <CharString name="Lacute">
          0 95 525 -20 hstem
          53 496 vstem
          252 728 rmoveto
          -16 callsubr
          197 -728 rmoveto
          -91 callsubr
          endchar
        </CharString>
        <CharString name="Lcaron">
          0 95 525 -20 101 -20 hstem
          463 118 vstem
          463 697 rmoveto
          24 callsubr
          -132 -701 rmoveto
          -91 callsubr
          endchar
        </CharString>
        <CharString name="Lcommaaccent">
          0 95 525 -20 hstem
          173 132 vstem
          449 hmoveto
          -91 callsubr
          82 -261 rmoveto
          26 callsubr
          endchar
        </CharString>
        <CharString name="Ldot">
          0 95 166 127 232 -20 hstem
          53 464 vstem
          449 hmoveto
          -91 callsubr
          433 261 rmoveto
          31 127 -110 0 -32 -127 rlineto
          endchar
        </CharString>
        <CharString name="Lslash">
          0 95 525 -20 hstem
          54 431 vstem
          466 hmoveto
          19 95 -284 0 46 241 147 68 -3 74 -128 -59 39 201 -112 0 -50 -258 -86 -40 3 -74 67 31 -54 -279 rlineto
          endchar
        </CharString>
        <CharString name="M">
          21 -21 620 -20 23 -20 hstemhm
          25 547 hintmask 10110000
          257 623 rmoveto
          -113 -6 -119 -617 102 0 76 425 3 0 22 -302 61 0 141 302 4 0 -86 -425 105 0 rlineto
          hintmask 11010000
          119 620 -118 0 -168 -363 -2 0 rlineto
          endchar
        </CharString>
        <CharString name="N">
          21 -21 620 -20 22 -20 hstemhm
          30 532 hintmask 10110000
          345 hmoveto
          97 0 rlineto
          hintmask 11010000
          -90 callsubr
          hintmask 10110000
          -89 callsubr
          endchar
        </CharString>
        <CharString name="NUL">
          0 endchar
        </CharString>
        <CharString name="Nacute">
          21 -21 620 -20 22 -20 hstemhm
          30 532 hintmask 10110000
          237 730 rmoveto
          -16 callsubr
          108 -730 rmoveto
          97 0 rlineto
          hintmask 11010000
          -90 callsubr
          hintmask 10110000
          -89 callsubr
          endchar
        </CharString>
        <CharString name="Ncaron">
          21 -21 620 -20 22 -20 hstemhm
          30 551 hintmask 10110000
          368 678 rmoveto
          23 callsubr
          -16 -678 rmoveto
          97 0 rlineto
          hintmask 11010000
          -90 callsubr
          hintmask 10110000
          -89 callsubr
          endchar
        </CharString>
        <CharString name="Ncommaaccent">
          21 -21 620 -20 22 -20 hstemhm
          158 132 hintmask 10110000
          345 hmoveto
          97 0 rlineto
          hintmask 11010000
          -90 callsubr
          hintmask 10110000
          -89 callsubr
          -98 -686 rmoveto
          26 callsubr
          endchar
        </CharString>
        <CharString name="Ntilde">
          21 -21 620 -20 22 -20 90 82 11 81 hstemhm
          30 572 hintmask 10111100
          466 774 rmoveto
          hintmask 10101100
          -5 callsubr
          hintmask 10111100
          -4 callsubr
          hintmask 11001100
          -121 -774 rmoveto
          97 0 120 620 -104 0 -78 -420 -5 0 rlineto
          hintmask 10101100
          -89 callsubr
          endchar
        </CharString>
        <CharString name="O">
          -13 96 454 95 hstem
          52 116 253 116 vstem
          346 632 rmoveto
          -88 callsubr
          -91 -549 rmoveto
          -87 callsubr
          endchar
        </CharString>
        <CharString name="OE">
          0 91 183 76 179 91 hstem
          44 110 vstem
          154 215 rmoveto
          0 96 43 213 132 5 rrcurveto
          -84 -438 rlineto
          -62 -29 44 80 hvcurveto
          346 -124 rmoveto
          -159 0 35 183 126 0 15 76 -127 0 35 179 156 0 17 91 -205 0 rlineto
          -272 -77 -250 -158 -160 86 -52 132 hvcurveto
          214 hlineto
          endchar
        </CharString>
        <CharString name="Oacute">
          -13 96 454 95 hstem
          52 116 253 116 vstem
          238 742 rmoveto
          -16 callsubr
          108 -110 rmoveto
          -88 callsubr
          -91 -549 rmoveto
          -87 callsubr
          endchar
        </CharString>
        <CharString name="Obreve">
          -13 96 454 95 68 84 hstem
          52 116 253 116 vstem
          533 884 rmoveto
          21 callsubr
          -248 -215 rmoveto
          -88 callsubr
          -91 -549 rmoveto
          -87 callsubr
          endchar
        </CharString>
        <CharString name="Ocircumflex">
          -13 96 454 95 hstem
          52 116 253 116 vstem
          491 693 rmoveto
          -6 callsubr
          -47 -167 rmoveto
          -88 callsubr
          -91 -549 rmoveto
          -87 callsubr
          endchar
        </CharString>
        <CharString name="Odieresis">
          -13 96 454 95 78.5 135 hstem
          52 116 253 116 vstem
          530 713 rmoveto
          -23 callsubr
          -106 -1 rmoveto
          -22 callsubr
          149 -78 rmoveto
          -88 callsubr
          -91 -549 rmoveto
          -87 callsubr
          endchar
        </CharString>
        <CharString name="Ograve">
          -13 96 454 95 hstem
          52 116 253 116 vstem
          516 735 rmoveto
          -73 callsubr
          -146 -59 rmoveto
          -88 callsubr
          -91 -549 rmoveto
          -87 callsubr
          endchar
        </CharString>
        <CharString name="Ohungarumlaut">
          -13 96 454 95 hstem
          52 116 253 116 vstem
          254 698 rmoveto
          29 callsubr
          260 -37 rmoveto
          30 callsubr
          -74 -101 rmoveto
          -88 callsubr
          -91 -549 rmoveto
          -87 callsubr
          endchar
        </CharString>
        <CharString name="Omacron">
          -13 96 454 95 104 89 hstem
          52 116 253 116 vstem
          567 825 rmoveto
          -19 callsubr
          -204 -104 rmoveto
          -88 callsubr
          -91 -549 rmoveto
          -87 callsubr
          endchar
        </CharString>
        <CharString name="Omega">
          0 88 450 96 hstem
          82 96 232 109 vstem
          196 7 rmoveto
          -11 64 -7 51 0 125 rrcurveto
          163 45 128 95 59 33 -42 -78 vhcurveto
          0 -96 -44 -127 -95 -188 rrcurveto
          1 -7 189 0 17 88 -81 0 rlineto
          82 135 40 113 0 99 rrcurveto
          123 -65 76 -117 -175 -80 -156 -197 vhcurveto
          0 -69 10 -61 13 -63 rrcurveto
          -86 0 -17 -88 190 0 rlineto
          endchar
        </CharString>
        <CharString name="Oslash">
          -14 94 -62 -21 505 -20 58 94 -11 -20 hstemhm
          54 115 251 114 hintmask 10110110
          169 230 rmoveto
          3 callsubr
          91 -150 rmoveto
          4 callsubr
          -14 -94 rmoveto
          168 120 191 212 hvcurveto
          hintmask 10101110
          5 callsubr
          hintmask 01110110
          6 callsubr
          hintmask 10110110
          7 callsubr
          endchar
        </CharString>
        <CharString name="Oslashacute">
          -14 94 -62 -21 505 -20 58 94 -11 -20 hstemhm
          54 115 251 114 hintmask 10110110
          238 742 rmoveto
          -16 callsubr
          -69 -512 rmoveto
          3 callsubr
          91 -150 rmoveto
          4 callsubr
          -14 -94 rmoveto
          168 120 191 212 hvcurveto
          hintmask 10101110
          5 callsubr
          hintmask 01110110
          6 callsubr
          hintmask 10110110
          7 callsubr
          endchar
        </CharString>
        <CharString name="Otilde">
          -13 96 454 95 72 82 11 81 hstem
          52 116 253 116 vstem
          466 786 rmoveto
          -37 0 -33 92 -66 0 -53 0 -56 -54 -48 -82 rrcurveto
          53 -30 rlineto
          34 53 27 32 22 0 rrcurveto
          36 0 34 -93 66 0 53 0 55 56 49 82 rrcurveto
          -52 30 rlineto
          -35 -53 -28 -33 -21 0 rrcurveto
          -120 -154 rmoveto
          -172 -122 -198 -212 -163 80 -72 110 173 122 198 212 hvcurveto
          163 -80 72 -111 vhcurveto
          -91 -549 rmoveto
          -87 callsubr
          endchar
        </CharString>
        <CharString name="P">
          21 -21 535 92 hstem
          437 108 vstem
          152 hmoveto
          36 185 rlineto
          224 24 133 99 0 144 0 121 -110 83 -274 -39 rrcurveto
          -119 -617 rlineto
          395 434 rmoveto
          0 -92 -81 -67 -149 8 rrcurveto
          48 248 rlineto
          121 17 61 -43 0 -71 rrcurveto
          endchar
        </CharString>
        <CharString name="Q">
          539 95 hstem
          66 111 246 115 vstem
          409 -147 rmoveto
          45 89 -201 85 rlineto
          160 81 125 150 0 164 0 125 -66 87 -131 0 -217 0 -118 -256 90 -250 rrcurveto
          96 35 rlineto
          -49 222 71 154 111 0 61 0 37 -39 0 -82 0 -142 -113 -149 -171 -65 rrcurveto
          -27 -81 rlineto
          endchar
        </CharString>
        <CharString name="R">
          13 -21 29 -21 29 -21 526 93 hstemhm
          414 111 hintmask 10011000
          372 -8 rmoveto
          hintmask 00111000
          -86 callsubr
          hintmask 01011000
          -85 callsubr
          endchar
        </CharString>
        <CharString name="R_p">
          -154 -21 187 -21 24 -21 27 -21 27 -21 488 -20 26 -20 30 -20 134 -20 hstemhm
          375 72 hintmask 1010000111000000
          167 -6 rmoveto
          hintmask 1000100111000000
          86 12 -36 267 rlineto
          67 63 46 84 0 84 0 90 -59 46 -148 -20 rrcurveto
          hintmask 1001000111000000
          -121 -620 82 0 45 224 13 3 rlineto
          187 -394 rmoveto
          hintmask 1010000111000000
          4 19 23 123 4 19 rrcurveto
          hintmask 1100000111000000
          9 -2 9 -1 7 0 rrcurveto
          111 75 239 164 82 -17 34 -32 hvcurveto
          -26 0 -28 -22 -24 -30 rrcurveto
          hintmask 1000101011000000
          6 42 rlineto
          hintmask 1000110011000000
          -75 -6 rlineto
          -9 -56 -97 -504 -21 -109 rrcurveto
          endchar
        </CharString>
        <CharString name="Racute">
          13 -21 29 -21 29 -21 526 93 hstemhm
          414 111 hintmask 00111000
          221 735 rmoveto
          -16 callsubr
          hintmask 10011000
          151 -743 rmoveto
          hintmask 00111000
          -86 callsubr
          hintmask 01011000
          -85 callsubr
          endchar
        </CharString>
        <CharString name="Rcaron">
          13 -21 29 -21 29 -21 526 93 hstemhm
          414 111 hintmask 00111000
          351 683 rmoveto
          23 callsubr
          hintmask 10011000
          28 -691 rmoveto
          hintmask 00111000
          -86 callsubr
          hintmask 01011000
          -85 callsubr
          endchar
        </CharString>
        <CharString name="Rcommaaccent">
          13 -21 29 -21 29 -21 526 93 hstemhm
          167 132 115 111 hintmask 10011100
          372 -8 rmoveto
          hintmask 00111100
          -86 callsubr
          hintmask 01011100
          -85 callsubr
          -110 -548 rmoveto
          26 callsubr
          endchar
        </CharString>
        <CharString name="S">
          -8 95 -75 75 452 93 hstemhm
          111 112 132 115 hintmask 10111000
          522 455 rmoveto
          -84 callsubr
          hintmask 01111000
          -22 -108 rlineto
          hintmask 10111000
          -83 callsubr
          endchar
        </CharString>
        <CharString name="Sacute">
          -8 95 -75 75 452 93 hstemhm
          111 112 132 115 hintmask 10111000
          245 740 rmoveto
          -16 callsubr
          277 -285 rmoveto
          -84 callsubr
          hintmask 01111000
          -22 -108 rlineto
          hintmask 10111000
          -83 callsubr
          endchar
        </CharString>
        <CharString name="Scaron">
          -8 95 -75 75 452 93 hstemhm
          111 112 132 115 hintmask 10111000
          376 688 rmoveto
          23 callsubr
          153 -233 rmoveto
          -84 callsubr
          hintmask 01111000
          -22 -108 rlineto
          hintmask 10111000
          -83 callsubr
          endchar
        </CharString>
        <CharString name="Scedilla">
          -66 153 -94 94 -92 92 452 93 hstemhm
          111 112 22 93 17 115 hintmask 10011110
          245 -188 rmoveto
          93 2 rlineto
          hintmask 00111110
          6 96 -28 60 -43 25 rrcurveto
          hintmask 00111010
          139 17 58 70 0 70 0 138 -247 62 0 104 0 46 40 37 55 0 57 0 34 -29 16 -74 rrcurveto
          97 19 rlineto
          -19 114 -53 63 -110 0 -136 0 -93 -90 0 -99 rrcurveto
          hintmask 01011010
          0 -145 244 -63 0 -89 0 -52 -78 -36 -228 62 rrcurveto
          hintmask 10011010
          -22 -108 rlineto
          hintmask 01011010
          49 -10 44 -6 40 -3 rrcurveto
          hintmask 10011110
          -36 -22 -32 -45 -29 -71 rrcurveto
          55 -18 rlineto
          30 61 28 36 29 0 rrcurveto
          29 0 16 -34 -5 -88 rrcurveto
          endchar
        </CharString>
        <CharString name="Scommaaccent">
          -8 95 -75 75 452 93 hstemhm
          111 112 -76 132 76 115 hintmask 10110100
          522 455 rmoveto
          -84 callsubr
          hintmask 01110100
          -22 -108 rlineto
          hintmask 10110100
          -83 callsubr
          hintmask 10101100
          -316 -706 rmoveto
          26 callsubr
          endchar
        </CharString>
        <CharString name="T">
          21 -21 525 95 hstem
          94 488 vstem
          385 525 rmoveto
          -82 callsubr
          endchar
        </CharString>
        <CharString name="Tcaron">
          21 -21 525 95 hstem
          94 488 vstem
          358 676 rmoveto
          23 callsubr
          34 -151 rmoveto
          -82 callsubr
          endchar
        </CharString>
        <CharString name="Tcommaaccent">
          21 -21 525 95 hstem
          149 132 vstem
          385 525 rmoveto
          -82 callsubr
          -172 -261 rmoveto
          26 callsubr
          endchar
        </CharString>
        <CharString name="Thorn">
          21 -21 0 190 252 92 -92 178 hstemhm
          418 109 hintmask 10011000
          152 hmoveto
          18 92 rlineto
          224 25 133 98 0 145 rrcurveto
          hintmask 10101000
          0 102 -79 75 -191 -3 rrcurveto
          hintmask 10011000
          17 86 -111 0 -121 -620 rlineto
          376 341 rmoveto
          hintmask 01011000
          0 -91 -80 -67 -149 7 rrcurveto
          49 249 rlineto
          120 16 60 -42 0 -72 rrcurveto
          endchar
        </CharString>
        <CharString name="U">
          -14 96 538 -20 hstem
          63 113 vstem
          182 230 rmoveto
          -81 callsubr
          endchar
        </CharString>
        <CharString name="Uacute">
          -14 96 538 -20 hstem
          63 113 vstem
          235 728 rmoveto
          -16 callsubr
          -53 -498 rmoveto
          -81 callsubr
          endchar
        </CharString>
        <CharString name="Ubreve">
          -14 96 538 -20 86 84 hstem
          63 113 vstem
          530 870 rmoveto
          21 callsubr
          -409 -603 rmoveto
          -81 callsubr
          endchar
        </CharString>
        <CharString name="Ucircumflex">
          -14 96 538 -20 hstem
          63 113 vstem
          488 679 rmoveto
          -6 callsubr
          -208 -555 rmoveto
          -81 callsubr
          endchar
        </CharString>
        <CharString name="Udieresis">
          -14 96 538 -20 96.5 135 hstem
          63 113 vstem
          527 699 rmoveto
          -23 callsubr
          -106 -1 rmoveto
          -22 callsubr
          -12 -466 rmoveto
          -81 callsubr
          endchar
        </CharString>
        <CharString name="Ugrave">
          -14 96 538 -20 hstem
          63 113 vstem
          513 721 rmoveto
          -73 callsubr
          -307 -447 rmoveto
          -81 callsubr
          endchar
        </CharString>
        <CharString name="Uhungarumlaut">
          -14 96 538 -20 hstem
          63 113 vstem
          251 684 rmoveto
          29 callsubr
          260 -37 rmoveto
          30 callsubr
          -235 -489 rmoveto
          -81 callsubr
          endchar
        </CharString>
        <CharString name="Umacron">
          -14 96 538 -20 122 89 hstem
          63 113 vstem
          564 811 rmoveto
          -19 callsubr
          -365 -492 rmoveto
          -81 callsubr
          endchar
        </CharString>
        <CharString name="Uogonek">
          -211 73 -30 30 146 -21 0 95 538 -20 hstemhm
          63 113 -70 97 hintmask 10101010
          351 -168 rmoveto
          hintmask 01101010
          -11 49 rlineto
          -98 -33 -39 15 0 31 0 33 41 28 114 58 62 32 41 62 20 100 rrcurveto
          80 413 -111 0 -80 -415 rlineto
          hintmask 01011100
          -17 -86 -38 -37 -59 0 -62 0 -34 37 22 111 rrcurveto
          75 390 -110 0 -75 -384 rlineto
          -33 -165 62 -74 115 -10 rrcurveto
          hintmask 10101010
          -75 -41 -35 -43 0 -40 rrcurveto
          0 -67 85 -43 160 79 rrcurveto
          endchar
        </CharString>
        <CharString name="Uring">
          -14 96 538 -20 73 214 hstem
          63 113 vstem
          395 887 rmoveto
          32 callsubr
          -213 -657 rmoveto
          -81 callsubr
          endchar
        </CharString>
        <CharString name="V">
          0 101 519 -20 24 -20 hstemhm
          100 111 hintmask 10110000
          304 hmoveto
          hintmask 11010000
          103 206 98 208 91 206 rrcurveto
          -112 hlineto
          -73 -172 -80 -174 -80 -173 rrcurveto
          -9 hlineto
          hintmask 10110000
          -13 173 -12 178 -6 172 rrcurveto
          -111 -8 rlineto
          10 -206 17 -204 22 -206 rrcurveto
          endchar
        </CharString>
        <CharString name="W">
          21 -21 0 150 470 -20 hstemhm
          302.5 59 hintmask 10110000
          311 hmoveto
          -80 callsubr
          hintmask 01110000
          -79 callsubr
          endchar
        </CharString>
        <CharString name="Wacute">
          21 -21 0 150 470 -20 hstemhm
          302.5 59 hintmask 10110000
          237 728 rmoveto
          -16 callsubr
          74 -728 rmoveto
          -80 callsubr
          hintmask 01110000
          -79 callsubr
          endchar
        </CharString>
        <CharString name="Wcircumflex">
          21 -21 0 150 470 -20 hstemhm
          302.5 59 hintmask 10110000
          490 679 rmoveto
          -6 callsubr
          -81 -785 rmoveto
          -80 callsubr
          hintmask 01110000
          -79 callsubr
          endchar
        </CharString>
        <CharString name="Wdieresis">
          21 -21 0 150 470 -20 96.5 135 hstemhm
          302.5 59 hintmask 10111000
          530 699 rmoveto
          -23 callsubr
          -106 -1 rmoveto
          -22 callsubr
          114 -696 rmoveto
          -80 callsubr
          hintmask 01111000
          -79 callsubr
          endchar
        </CharString>
        <CharString name="Wgrave">
          21 -21 0 150 470 -20 hstemhm
          302.5 59 hintmask 10110000
          515 721 rmoveto
          -73 callsubr
          -180 -677 rmoveto
          -80 callsubr
          hintmask 01110000
          -79 callsubr
          endchar
        </CharString>
        <CharString name="X">
          18 -21 24 -21 24 -21 617 -20 23 -20 hstemhm
          -13 610 hintmask 10001100
          361 -3 rmoveto
          hintmask 00110100
          115 6 -120 299 241 318 -121 0 -165 -235 rlineto
          hintmask 01001100
          -90 238 -115 -6 120 -300 -239 -317 120 0 165 234 rlineto
          endchar
        </CharString>
        <CharString name="Y">
          21 -21 620 -20 22 -20 hstemhm
          96 507 hintmask 10110000
          285 hmoveto
          39 200 rlineto
          hintmask 11010000
          -78 callsubr
          hintmask 10110000
          -77 callsubr
          endchar
        </CharString>
        <CharString name="Yacute">
          21 -21 620 -20 22 -20 hstemhm
          96 507 hintmask 10110000
          230 730 rmoveto
          -16 callsubr
          55 -730 rmoveto
          39 200 rlineto
          hintmask 11010000
          -78 callsubr
          hintmask 10110000
          -77 callsubr
          endchar
        </CharString>
        <CharString name="Ycircumflex">
          21 -21 620 -20 22 -20 hstemhm
          96 507 hintmask 10110000
          484 681 rmoveto
          -6 callsubr
          -101 -787 rmoveto
          39 200 rlineto
          hintmask 11010000
          -78 callsubr
          hintmask 10110000
          -77 callsubr
          endchar
        </CharString>
        <CharString name="Ydieresis">
          21 -21 620 -20 22 -20 96.5 135 hstemhm
          96 507 hintmask 10111000
          523 701 rmoveto
          -23 callsubr
          -106 -1 rmoveto
          -22 callsubr
          95 -698 rmoveto
          39 200 rlineto
          hintmask 11011000
          -78 callsubr
          hintmask 10111000
          -77 callsubr
          endchar
        </CharString>
        <CharString name="Ygrave">
          21 -21 620 -20 22 -20 hstemhm
          96 507 hintmask 10110000
          508 723 rmoveto
          -73 callsubr
          -199 -679 rmoveto
          39 200 rlineto
          hintmask 11010000
          -78 callsubr
          hintmask 10110000
          -77 callsubr
          endchar
        </CharString>
        <CharString name="Z">
          0 96 428 96 hstem
          17 538 vstem
          442 hmoveto
          -76 callsubr
          endchar
        </CharString>
        <CharString name="Zacute">
          0 96 428 96 hstem
          17 538 vstem
          230 728 rmoveto
          -16 callsubr
          212 -728 rmoveto
          -76 callsubr
          endchar
        </CharString>
        <CharString name="Zcaron">
          0 96 428 96 hstem
          17 556 vstem
          360 676 rmoveto
          23 callsubr
          89 -676 rmoveto
          -76 callsubr
          endchar
        </CharString>
        <CharString name="Zdotaccent">
          0 96 428 96 77.5 135 hstem
          17 538 vstem
          414 698 rmoveto
          22 callsubr
          144 -697 rmoveto
          -76 callsubr
          endchar
        </CharString>
        <CharString name="a">
          -12 101 -100 93 336 90 0 -20 hstemhm
          40 108 177 102 hintmask 10101100
          202 89 rmoveto
          -72 callsubr
          hintmask 01011100
          314 -48 rmoveto
          -71 callsubr
          hintmask 01101100
          -70 callsubr
          endchar
        </CharString>
        <CharString name="aacute">
          -12 101 -100 93 336 90 0 -20 212 -20 hstemhm
          40 108 177 102 hintmask 01101110
          230 616 rmoveto
          -16 callsubr
          hintmask 10101110
          -28 -527 rmoveto
          -72 callsubr
          hintmask 01011110
          314 -48 rmoveto
          -71 callsubr
          hintmask 01101110
          -70 callsubr
          endchar
        </CharString>
        <CharString name="abreve">
          -12 101 -100 93 336 90 0 -20 86 84 hstemhm
          40 108 177 102 hintmask 01101110
          525 758 rmoveto
          21 callsubr
          hintmask 10101110
          -384 -632 rmoveto
          -72 callsubr
          hintmask 01011110
          314 -48 rmoveto
          -71 callsubr
          hintmask 01101110
          -70 callsubr
          endchar
        </CharString>
        <CharString name="acircumflex">
          -12 101 -100 93 336 90 0 -20 135 -20 23 -20 hstemhm
          40 108 177 102 hintmask 01101011
          483 567 rmoveto
          8 callsubr
          hintmask 01100111
          -214 -146 rlineto
          hintmask 10101011
          9 callsubr
          -183 -584 rmoveto
          -30 -24 23 57 119 67 130 79 hvcurveto
          20 0 32 -5 33 -11 -14 -76 -23 -117 -10 -48 -44 -41 -52 -31 -34 0 rrcurveto
          hintmask 01010111
          314 -48 rmoveto
          -71 callsubr
          hintmask 01100111
          -70 callsubr
          endchar
        </CharString>
        <CharString name="acute">
          559 215 hstem
          148 297 vstem
          148 606 rmoveto
          -16 callsubr
          endchar
        </CharString>
        <CharString name="adieresis">
          -12 101 -100 93 336 90 0 -20 96.5 135 hstemhm
          40 108 177 102 hintmask 01101110
          522 587 rmoveto
          -23 callsubr
          -106 -1 rmoveto
          -22 callsubr
          hintmask 10101110
          13 -495 rmoveto
          -72 callsubr
          hintmask 01011110
          314 -48 rmoveto
          -71 callsubr
          hintmask 01101110
          -70 callsubr
          endchar
        </CharString>
        <CharString name="ae">
          -7 90 -89 95 331 84 -83 87 hstemhm
          21 109 102 100 136 99 hintmask 10101110
          522 60 rmoveto
          10 callsubr
          hintmask 10011110
          11 callsubr
          hintmask 10101110
          -35 20 -38 10 -37 0 rrcurveto
          -136 -103 -192 -186 -91 30 -41 52 hvcurveto
          50 0 46 34 42 47 rrcurveto
          28 -89 87 -32 166 106 rrcurveto
          hintmask 01011110
          -84 361 rmoveto
          12 callsubr
          -276 -332 rmoveto
          -22 -10 24 47 hvcurveto
          hintmask 01101110
          13 callsubr
          endchar
        </CharString>
        <CharString name="aeacute">
          -7 90 -89 95 331 84 -83 87 189 -20 hstemhm
          21 109 102 100 136 99 hintmask 10101111
          228 613 rmoveto
          -16 callsubr
          294 -553 rmoveto
          10 callsubr
          hintmask 10011111
          11 callsubr
          hintmask 10101111
          -35 20 -38 10 -37 0 rrcurveto
          -136 -103 -192 -186 -91 30 -41 52 hvcurveto
          50 0 46 34 42 47 28 -89 87 -32 166 106 rrcurveto
          hintmask 01011111
          -84 361 rmoveto
          12 callsubr
          -276 -332 rmoveto
          -22 -10 24 47 hvcurveto
          hintmask 01101111
          13 callsubr
          endchar
        </CharString>
        <CharString name="agrave">
          -12 101 -100 93 336 90 0 -20 215 -20 hstemhm
          40 108 177 102 hintmask 01101110
          508 609 rmoveto
          -73 callsubr
          hintmask 10101110
          -282 -476 rmoveto
          -72 callsubr
          hintmask 01011110
          314 -48 rmoveto
          -71 callsubr
          hintmask 01101110
          -70 callsubr
          endchar
        </CharString>
        <CharString name="amacron">
          -12 101 -100 93 336 90 0 -20 122 89 hstemhm
          40 108 177 102 hintmask 01101110
          559 699 rmoveto
          -19 callsubr
          hintmask 10101110
          -340 -521 rmoveto
          -72 callsubr
          hintmask 01011110
          314 -48 rmoveto
          -71 callsubr
          hintmask 01101110
          -70 callsubr
          endchar
        </CharString>
        <CharString name="ampersand">
          -11 68 296 67 216 63 hstemhm
          15 82 -46 82 235 77 hintmask 11110100
          240 699 rmoveto
          hintmask 11101100
          -117 -72 -77 -88 hvcurveto
          0 -62 30 -61 90 -21 rrcurveto
          -3 vlineto
          hintmask 11110100
          -100 -21 -56 -68 0 -103 0 -103 67 -103 156 0 115 0 62 54 30 38 rrcurveto
          272 90 67 -278 vlineto
          hintmask 11101100
          -70 -54 53 61 59 35 43 71 hvcurveto
          50 0 33 -19 35 -39 rrcurveto
          50 46 rlineto
          -55 61 -52 14 -60 0 rrcurveto
          128 -346 rmoveto
          -244 vlineto
          -27 -34 -46 -18 -55 0 rrcurveto
          -101 -42 68 73 71 44 84 103 hvcurveto
          endchar
        </CharString>
        <CharString name="aogonek">
          -210 73 146 -21 0 101 -58 -21 31 41 336 90 0 -20 hstemhm
          40 108 73 98 6 102 hintmask 1001110110000000
          465 -169 rmoveto
          -9 51 rlineto
          -99 -33 -38 14 0 32 0 38 50 48 147 60 rrcurveto
          hintmask 1001101101000000
          -71 callsubr
          hintmask 1010010101000000
          -52 15 -52 7 -45 0 rrcurveto
          -190 -120 -180 -185 -105 45 -50 60 hvcurveto
          54 0 68 46 58 56 rrcurveto
          hintmask 1100010101000000
          -3 -42 7 -26 22 -12 rrcurveto
          hintmask 1001010110000000
          -95 -53 -35 -49 0 -46 rrcurveto
          0 -65 85 -43 159 77 rrcurveto
          hintmask 1010010101000000
          -263 258 rmoveto
          -72 callsubr
          endchar
        </CharString>
        <CharString name="approxequal">
          95 93 3 93 31 93 3 93 -4 -20 hstemhm
          26 511 hintmask 10101100
          375 315 rmoveto
          62 0 42 49 58 104 rrcurveto
          -59 32 rlineto
          -35 -55 -26 -37 -25 0 rrcurveto
          hintmask 10010100
          -42 0 -30 96 -79 0 -64 0 -49 -53 -59 -106 rrcurveto
          58 -32 rlineto
          37 58 29 40 25 0 rrcurveto
          45 0 33 -96 79 0 rrcurveto
          -43 -220 rmoveto
          62 0 42 49 59 104 rrcurveto
          -59 32 rlineto
          -35 -55 -26 -37 -25 0 rrcurveto
          hintmask 01101100
          -42 0 -31 96 -77 0 -65 0 -50 -54 -59 -105 rrcurveto
          60 -31 rlineto
          37 57 28 40 25 0 45 0 32 -96 79 0 rrcurveto
          endchar
        </CharString>
        <CharString name="aring">
          -12 101 -100 93 336 90 0 -20 73 214 hstemhm
          40 108 177 102 hintmask 01101110
          390 775 rmoveto
          -3 callsubr
          hintmask 10101110
          -188 -686 rmoveto
          -72 callsubr
          hintmask 01011110
          314 -48 rmoveto
          -71 callsubr
          hintmask 01101110
          -70 callsubr
          endchar
        </CharString>
        <CharString name="aringacute">
          -12 101 -100 93 336 90 0 -20 hstemhm
          40 108 177 102 hintmask 01101100
          284 858 rmoveto
          -16 callsubr
          106 -83 rmoveto
          32 callsubr
          hintmask 10101100
          -188 -686 rmoveto
          -72 callsubr
          hintmask 01011100
          314 -48 rmoveto
          -71 callsubr
          hintmask 01101100
          -70 callsubr
          endchar
        </CharString>
        <CharString name="asciicircum">
          527 313 hstem
          49 452 vstem
          312 840 rmoveto
          -74 0 -189 -313 90 0 135 237 136 -237 91 0 rlineto
          endchar
        </CharString>
        <CharString name="asciitilde">
          228 73 27 73 hstem
          18 514 vstem
          180 401 rmoveto
          -89 0 -43 -70 -30 -58 rrcurveto
          60 -30 rlineto
          26 48 30 37 43 0 64 0 35 -100 94 0 rrcurveto
          88 0 44 69 30 57 rrcurveto
          -60 32 rlineto
          -26 -48 -32 -37 -41 0 -61 0 -32 100 -100 0 rrcurveto
          endchar
        </CharString>
        <CharString name="asterisk">
          98 480 hstem
          23 504 vstem
          233 578 rmoveto
          84 0 -6 -202 190 68 26 -79 -194 -58 123 -160 -67 -49 -114 168 -114 -168 -67 49 123 160 -194 58 26 79 190 -68 rlineto
          endchar
        </CharString>
        <CharString name="asterisk.alt">
          700 -20 hstem
          78 470 vstem
          360 537 rmoveto
          58 138 -95 25 -15 -151 rlineto
          -34 -7 rmoveto
          -91 118 -69 -70 123 -88 rlineto
          163 -44 rmoveto
          148 21 -26 95 -139 -62 rlineto
          -157 -42 rmoveto
          -148 -21 26 -95 139 62 rlineto
          110 -30 rmoveto
          92 -118 69 70 -124 88 rlineto
          -124 -35 rmoveto
          -57 -139 96 -25 13 151 rlineto
          endchar
        </CharString>
        <CharString name="at">
          -156 82 139.5 80.5 256 80 122 81 hstemhm
          37 89 89 91 93 87 -15 92 hintmask 11111101
          415 -145 rmoveto
          13 83 rlineto
          -222 -42 -80 72 0 173 0 241 135 222 133 0 63 0 22 -45 -11 -80 -14 2 -14 1 -12 0 rrcurveto
          -134 -79 -158 -142 -85 31 -40 43 hvcurveto
          hintmask 11111110
          35 0 41 26 37 35 rrcurveto
          -6 -52 90 -1 rlineto
          9 61 10 61 10 51 rrcurveto
          38 187 rlineto
          hintmask 11111101
          34 168 -50 92 -127 0 -209 0 -164 -272 0 -280 rrcurveto
          0 -212 107 -116 271 50 rrcurveto
          -77 291 rmoveto
          -18 -14 18 42 82 47 114 42 hvcurveto
          12 0 23 -4 21 -8 rrcurveto
          -41 -211 rlineto
          -25 -21 -29 -12 -18 0 rrcurveto
          endchar
        </CharString>
        <CharString name="atilde">
          -12 101 -100 93 336 90 0 -20 90 82 -44 -20 75 81 hstemhm
          40 108 177 102 hintmask 0110101110000000
          458 660 rmoveto
          hintmask 0110011110000000
          -5 callsubr
          hintmask 0110101110000000
          -4 callsubr
          hintmask 1010011110000000
          -256 -571 rmoveto
          -72 callsubr
          hintmask 0101011110000000
          314 -48 rmoveto
          -71 callsubr
          hintmask 0110011110000000
          -70 callsubr
          endchar
        </CharString>
        <CharString name="b">
          -12 91 334 99 193 -20 hstem
          403 106 vstem
          200 -12 rmoveto
          189 120 176 180 112 -47 56 -63 hvcurveto
          -53 0 -64 -41 -56 -53 rrcurveto
          56 287 -107 -8 -132 -681 rlineto
          47 -15 61 -13 49 0 rrcurveto
          54 91 rmoveto
          -22 0 -33 5 -35 11 rrcurveto
          47 243 rlineto
          43 41 52 34 37 0 rrcurveto
          32 28 -29 -67 -115 -69 -123 -80 hvcurveto
          endchar
        </CharString>
        <CharString name="backslash">
          -103 912 hstem
          28 494 vstem
          28 777 rmoveto
          426 -880 68 30 -428 882 rlineto
          endchar
        </CharString>
        <CharString name="bar">
          -102 909 hstem
          237 75 vstem
          312 807 rmoveto
          -75 -909 75 hlineto
          endchar
        </CharString>
        <CharString name="braceleft">
          -211 940 hstemhm
          97 109 -12 102 -80 104 -62 99 hintmask 11001000
          357 -211 rmoveto
          -32 callsubr
          hintmask 11010000
          -31 callsubr
          hintmask 11001000
          91 23 35 47 0 41 rrcurveto
          hintmask 10100000
          -30 callsubr
          hintmask 11001000
          -29 callsubr
          hintmask 11010000
          84 -12 40 -23 0 -32 rrcurveto
          hintmask 11001000
          -28 callsubr
          endchar
        </CharString>
        <CharString name="braceleft.cap">
          -162 940 hstemhm
          107 109 -12 102 -80 104 -62 99 hintmask 11001000
          367 -162 rmoveto
          -32 callsubr
          hintmask 11010000
          -31 callsubr
          hintmask 11001000
          91 23 35 47 0 41 rrcurveto
          hintmask 10100000
          -30 callsubr
          hintmask 11001000
          -29 callsubr
          hintmask 11010000
          84 -12 40 -23 0 -32 rrcurveto
          hintmask 11001000
          -28 callsubr
          endchar
        </CharString>
        <CharString name="braceright">
          -211 941 hstemhm
          191 98 -62 104 -79 101 -12 109 hintmask 11001000
          15 -211 rmoveto
          hintmask 10010000
          257 62 81 78 0 74 rrcurveto
          hintmask 11001000
          -27 callsubr
          hintmask 10101000
          -84 12 -40 23 0 32 rrcurveto
          hintmask 11001000
          -26 callsubr
          hintmask 10101000
          -25 callsubr
          hintmask 11001000
          -91 -22 -35 -48 0 -41 rrcurveto
          hintmask 10010000
          -24 callsubr
          endchar
        </CharString>
        <CharString name="braceright.cap">
          699 -20 hstemhm
          201 98 -62 104 -79 101 -12 109 hintmask 11001000
          25 -162 rmoveto
          hintmask 10010000
          257 62 81 78 0 74 rrcurveto
          hintmask 11001000
          -27 callsubr
          hintmask 10101000
          -84 12 -40 23 0 32 rrcurveto
          hintmask 11001000
          -26 callsubr
          hintmask 10101000
          -25 callsubr
          hintmask 11001000
          -91 -22 -35 -48 0 -41 rrcurveto
          hintmask 10010000
          -24 callsubr
          endchar
        </CharString>
        <CharString name="bracketleft">
          -179 85 705 86 hstem
          55 488 vstem
          55 -179 rmoveto
          -75 callsubr
          endchar
        </CharString>
        <CharString name="bracketleft.cap">
          -130 85 705 86 hstem
          65 488 vstem
          65 -130 rmoveto
          -75 callsubr
          endchar
        </CharString>
        <CharString name="bracketright">
          -178 85 705 86 hstem
          3 488 vstem
          491 698 rmoveto
          -74 callsubr
          endchar
        </CharString>
        <CharString name="bracketright.cap">
          -129 85 705 86 hstem
          13 488 vstem
          501 747 rmoveto
          -74 callsubr
          endchar
        </CharString>
        <CharString name="breve">
          564 84 hstem
          100 392 vstem
          431 748 rmoveto
          21 callsubr
          endchar
        </CharString>
        <CharString name="bullet">
          158 280 hstem
          147 269 vstem
          416 315 rmoveto
          72 -51 51 -73 -74 -71 -62 -94 -72 54 -52 68 75 72 62 95 vhcurveto
          endchar
        </CharString>
        <CharString name="bullet.alt">
          178 241 hstem
          140 289 vstem
          381 178 rmoveto
          48 241 -240 0 -49 -241 rlineto
          endchar
        </CharString>
        <CharString name="c">
          -11 92 338 92 hstem
          59 107 236 98 vstem
          500 328 rmoveto
          -69 callsubr
          endchar
        </CharString>
        <CharString name="cacute">
          -11 92 338 92 192 -20 hstem
          59 107 236 98 vstem
          218 619 rmoveto
          -16 callsubr
          282 -291 rmoveto
          -69 callsubr
          endchar
        </CharString>
        <CharString name="caron">
          701 -20 22 -20 hstemhm
          120 369 hintmask 01100000
          276 554 rmoveto
          hintmask 10100000
          213 147 rlineto
          hintmask 01100000
          33 callsubr
          endchar
        </CharString>
        <CharString name="caron.alt">
          547 257 hstem
          281 118 vstem
          281 800 rmoveto
          24 callsubr
          endchar
        </CharString>
        <CharString name="ccaron">
          -11 92 338 92 hstem
          59 107 236 98 vstem
          349 567 rmoveto
          23 callsubr
          158 -239 rmoveto
          -69 callsubr
          endchar
        </CharString>
        <CharString name="ccedilla">
          -66 147 -87 87 338 92 hstemhm
          59 107 101 93 42 98 hintmask 10111100
          360 -186 rmoveto
          hintmask 01111100
          6 94 -27 59 -41 27 48 7 55 18 63 29 rrcurveto
          -10 56 rlineto
          -218 -50 -70 31 0 115 rrcurveto
          116 75 103 93 49 19 -25 -67 vhcurveto
          98 1 rlineto
          8 130 -45 53 -99 0 -165 0 -140 -156 0 -176 0 -91 42 -71 86 -21 rrcurveto
          hintmask 10111100
          -38 -22 -34 -46 -30 -73 rrcurveto
          55 -18 rlineto
          30 61 28 36 29 0 29 0 16 -34 -5 -88 rrcurveto
          endchar
        </CharString>
        <CharString name="cdotaccent">
          -11 92 338 92 77.5 135 hstem
          59 107 236 98 vstem
          403 589 rmoveto
          22 callsubr
          213 -260 rmoveto
          -69 callsubr
          endchar
        </CharString>
        <CharString name="cedilla">
          -177 198 -175 -21 120 76 hstemhm
          287 93 hintmask 01110000
          160 -152 rmoveto
          30 61 28 36 29 0 29 0 16 -34 -5 -88 rrcurveto
          93 2 rlineto
          hintmask 10010000
          8 133 -57 63 -71 0 -61 0 -50 -49 -44 -106 rrcurveto
          endchar
        </CharString>
        <CharString name="cent">
          26 95 263 103 133 -20 hstem
          68 101 vstem
          169 261 rmoveto
          0 55 30 47 104 17 rrcurveto
          -50 -225 rlineto
          -61 25 -23 36 0 45 rrcurveto
          257 -235 rmoveto
          17 95 rlineto
          -46 2 -39 5 -32 6 rrcurveto
          56 253 rlineto
          30 1 35 -1 40 -3 rrcurveto
          19 103 rlineto
          -35 3 -32 0 -30 -1 rrcurveto
          29 131 -95 0 -28 -140 rlineto
          -182 -33 -65 -109 0 -96 0 -80 50 -64 102 -37 rrcurveto
          -34 -145 96 0 25 122 rlineto
          36 -6 39 -4 44 -2 rrcurveto
          endchar
        </CharString>
        <CharString name="check.1">
          5 -21 0 139 510 -20 hstemhm
          61 525 hintmask 10110000
          586 633 rmoveto
          -104 46 rlineto
          hintmask 01110000
          -104 -163 -89 -193 -70 -200 rrcurveto
          -6 0 -53 255 -99 -30 88 -363 94 -1 rlineto
          97 243 114 209 132 197 rrcurveto
          endchar
        </CharString>
        <CharString name="check.2">
          13 -21 22 -21 35 -21 626 -20 hstemhm
          16 556 hintmask 01011000
          282 -7 rmoveto
          hintmask 00111000
          106 14 -88 259 272 367 -98 48 -209 -321 -49 164 -103 -27 78 -226 rlineto
          hintmask 10011000
          -175 -249 67 -30 141 191 rlineto
          endchar
        </CharString>
        <CharString name="circumflex">
          616 -20 hstem
          98 369 vstem
          394 557 rmoveto
          -6 callsubr
          endchar
        </CharString>
        <CharString name="colon">
          -11 162 198 162 hstem
          194 161 vstem
          194 431 rmoveto
          -45 34 -37 46 47 34 37 45 44 -34 36 -47 -46 -34 -36 -44 vhcurveto
          -361 vmoveto
          -46 34 -35 46 47 34 35 46 44 -34 37 -47 -46 -34 -37 -44 vhcurveto
          endchar
        </CharString>
        <CharString name="colon.alt">
          78 141 180 141 hstem
          171 231 vstem
          375 399 rmoveto
          27 141 -138 0 -27 -141 rlineto
          73 -321 rmoveto
          27 141 -139 0 -27 -141 rlineto
          endchar
        </CharString>
        <CharString name="colonmonetary">
          502 97 hstem
          58 97 vstem
          317 138 rmoveto
          -23 6 -21 6 -18 7 rrcurveto
          86 320 rlineto
          22 5 24 5 26 4 rrcurveto
          -258 -205 rmoveto
          0 66 27 60 88 40 rrcurveto
          -71 -263 rlineto
          -30 24 -14 31 0 42 rrcurveto
          99 -360 rmoveto
          75 0 28 105 rlineto
          20 -3 22 -3 23 -3 rrcurveto
          39 91 rlineto
          -30 4 -27 4 -25 4 rrcurveto
          101 373 rlineto
          24 2 27 1 28 1 rrcurveto
          11 97 rlineto
          -21 -1 -20 -1 -19 -1 rrcurveto
          27 97 -75 0 -28 -106 rlineto
          -23 -3 -22 -4 -21 -5 rrcurveto
          32 118 -75 0 -37 -141 rlineto
          -175 -62 -55 -112 0 -110 0 -80 35 -57 71 -40 rrcurveto
          -47 -165 75 0 37 136 rlineto
          18 -6 20 -6 21 -5 rrcurveto
          endchar
        </CharString>
        <CharString name="comma">
          -160 306 hstem
          185 137 vstem
          109 -136 rmoveto
          44 -24 rlineto
          109 91 58 89 2 126 rrcurveto
          -137 -4 rlineto
          8 -113 -14 -77 -70 -88 rrcurveto
          endchar
        </CharString>
        <CharString name="commaaccent">
          -280 213 hstem
          206 132 vstem
          168 -261 rmoveto
          26 callsubr
          endchar
        </CharString>
        <CharString name="commaaccent.rot">
          568 213 hstem
          199 135 vstem
          369 762 rmoveto
          27 callsubr
          endchar
        </CharString>
        <CharString name="copyright">
          7 57 84 67 190 68 83 57 hstem
          41 63 66 70 89 59 75 63 vstem
          319 613 rmoveto
          -155 -123 -151 -209 -158 91 -88 122 165 107 155 208 157 -86 86 -121 hvcurveto
          -8 -57 rmoveto
          86 66 -63 -134 -166 -77 -129 -123 -89 -70 66 133 168 92 125 115 hvcurveto
          4 -83 rmoveto
          -81 -64 -98 -107 hvcurveto
          0 -95 58 -52 118 41 rrcurveto
          11 63 rlineto
          -85 -25 -32 20 0 61 0 62 27 62 36 0 18 0 9 -17 -1 -33 rrcurveto
          59 1 rlineto
          4 78 -26 39 -51 0 rrcurveto
          endchar
        </CharString>
        <CharString name="d">
          -12 101 -99 90 342 89 -4 -20 218 -20 hstemhm
          41 106 178 103 hintmask 10101110
          206 89 rmoveto
          -68 callsubr
          hintmask 01011110
          315 -46 rmoveto
          -67 callsubr
          hintmask 10101110
          -66 callsubr
          endchar
        </CharString>
        <CharString name="dagger">
          448 85 -60.5 85 141.5 -20 hstemhm
          117 412 hintmask 01110000
          281 133 rmoveto
          hintmask 10110000
          85 322 146 -14 17 85 -142 14 33 149 -103 10 rlineto
          hintmask 01110000
          -32 -149 -151 15 -17 -85 150 -15 -74 -349 14 -10 rlineto
          endchar
        </CharString>
        <CharString name="daggerdbl">
          249.5 84 114.5 85 -60.5 85 141.5 -20 hstemhm
          77 452 hintmask 10111000
          270 82 rmoveto
          45 175 157 -15 17 84 -153 15 rlineto
          hintmask 11011000
          29 114 147 -14 17 85 -143 14 34 149 -103 10 rlineto
          hintmask 10111000
          -32 -149 -151 15 -17 -85 150 -15 -24 -114 -149 15 -17 -86 148 -14 -43 -200 14 -11 rlineto
          endchar
        </CharString>
        <CharString name="dcaron">
          -12 101 -99 90 342 89 -4 -20 218 -20 hstemhm
          41 106 178 103 197 118 hintmask 01101111
          625 800 rmoveto
          24 callsubr
          hintmask 10101111
          -537 -715 rmoveto
          -68 callsubr
          hintmask 01011111
          315 -46 rmoveto
          -67 callsubr
          hintmask 10101111
          -66 callsubr
          endchar
        </CharString>
        <CharString name="dcroat">
          -12 101 -99 90 342 89 -4 -20 84 68 66 -20 hstemhm
          41 106 178 103 hintmask 10101111
          206 89 rmoveto
          -68 callsubr
          hintmask 01011111
          315 -46 rmoveto
          -9 52 rlineto
          -86 -27 -4 9 10 56 rrcurveto
          86 437 63 0 13 69 -63 0 13 66 -107 -8 -11 -58 -128 0 -13 -68 128 0 -13 -64 rlineto
          hintmask 10101111
          -66 callsubr
          endchar
        </CharString>
        <CharString name="degree">
          301 81 219 80 hstem
          133 86 199 86 vstem
          336 681 rmoveto
          -106 -97 -83 -124 -106 71 -67 96 106 98 83 124 106 -71 67 -97 hvcurveto
          -25 -299 rmoveto
          -55 -37 42 58 71 47 48 60 55 37 -43 -58 -71 -47 -47 -60 hvcurveto
          endchar
        </CharString>
        <CharString name="dieresis">
          574.5 135 hstem
          106 376 vstem
          439 577 rmoveto
          -23 callsubr
          -106 -1 rmoveto
          -22 callsubr
          endchar
        </CharString>
        <CharString name="divide">
          62 110 80 91 80 111 hstem
          55 460 vstem
          366 423 rmoveto
          23 111 -115 0 -23 -111 rlineto
          264 -80 rmoveto
          -442 0 -18 -91 441 0 rlineto
          -200 -190 rmoveto
          23 110 -114 0 -23 -110 rlineto
          endchar
        </CharString>
        <CharString name="dollar">
          -75 192 386 86 hstem
          111 101 155 100 vstem
          212 461 rmoveto
          0 26 31 18 72 -2 rrcurveto
          -38 -124 rlineto
          -37 31 -28 27 0 24 rrcurveto
          155 -300 rmoveto
          0 -27 -33 -18 -72 1 rrcurveto
          38 128 rlineto
          38 -32 29 -28 0 -24 rrcurveto
          -147 -236 rmoveto
          28 104 rlineto
          160 4 59 62 0 62 0 65 -70 60 -66 54 rrcurveto
          49 160 rlineto
          35 -5 41 -8 47 -13 rrcurveto
          19 96 rlineto
          -36 8 -34 5 -30 4 rrcurveto
          36 111 -97 0 -31 -105 rlineto
          -158 -61 -63 -64 hvcurveto
          0 -63 68 -59 66 -52 rrcurveto
          -50 -167 rlineto
          -40 5 -47 9 -55 13 rrcurveto
          -21 -97 rlineto
          46 -9 41 -6 37 -3 rrcurveto
          -32 -108 rlineto
          endchar
        </CharString>
        <CharString name="dotaccent">
          575.5 135 hstem
          204 159 vstem
          320 576 rmoveto
          22 callsubr
          endchar
        </CharString>
        <CharString name="dotlessi">
          -11 94 317 98 0 -20 hstemhm
          163 112 hintmask 10110000
          483 49 rmoveto
          -58 callsubr
          hintmask 11010000
          -57 callsubr
          endchar
        </CharString>
        <CharString name="e">
          -11 92 104 59 180 88 hstem
          53 103 248 101 vstem
          480 58 rmoveto
          -65 callsubr
          -149 366 rmoveto
          -64 callsubr
          endchar
        </CharString>
        <CharString name="eacute">
          -11 92 104 59 180 88 192 -20 hstem
          53 103 248 101 vstem
          221 620 rmoveto
          -16 callsubr
          259 -562 rmoveto
          -65 callsubr
          -149 366 rmoveto
          -64 callsubr
          endchar
        </CharString>
        <CharString name="ebreve">
          -11 92 104 59 180 88 66 84 hstem
          53 103 248 101 vstem
          516 762 rmoveto
          21 callsubr
          -97 -667 rmoveto
          -65 callsubr
          -149 366 rmoveto
          -64 callsubr
          endchar
        </CharString>
        <CharString name="ecaron">
          -11 92 104 59 180 88 hstem
          53 103 248 101 vstem
          351 568 rmoveto
          23 callsubr
          136 -510 rmoveto
          -65 callsubr
          -149 366 rmoveto
          -64 callsubr
          endchar
        </CharString>
        <CharString name="ecircumflex">
          -11 92 104 59 180 88 115 -20 23 -20 hstemhm
          53 103 248 101 hintmask 11110110
          474 571 rmoveto
          8 callsubr
          hintmask 11101110
          -214 -146 rlineto
          hintmask 11110110
          9 callsubr
          104 -619 rmoveto
          -65 callsubr
          -149 366 rmoveto
          -64 callsubr
          endchar
        </CharString>
        <CharString name="edieresis">
          -11 92 104 59 180 88 76.5 135 hstem
          53 103 248 101 vstem
          513 591 rmoveto
          -23 callsubr
          -106 -1 rmoveto
          -22 callsubr
          300 -530 rmoveto
          -65 callsubr
          -149 366 rmoveto
          -64 callsubr
          endchar
        </CharString>
        <CharString name="edotaccent">
          -11 92 104 59 180 88 77.5 135 hstem
          53 103 248 101 vstem
          405 590 rmoveto
          22 callsubr
          191 -531 rmoveto
          -65 callsubr
          -149 366 rmoveto
          -64 callsubr
          endchar
        </CharString>
        <CharString name="egrave">
          -11 92 104 59 180 88 195 -20 hstem
          53 103 248 101 vstem
          499 613 rmoveto
          -73 callsubr
          5 -511 rmoveto
          -65 callsubr
          -149 366 rmoveto
          -64 callsubr
          endchar
        </CharString>
        <CharString name="eight">
          -12 84 422 -20 65 91 -4 -20 hstemhm
          43 102 -18 100 134 97 hintmask 11100110
          458 154 rmoveto
          0 65 -53 58 -56 53 49 29 61 33 74 40 rrcurveto
          -32 62 rlineto
          -82 -43 -67 -37 -56 -33 -39 37 -30 35 0 32 0 44 50 31 163 -36 rrcurveto
          hintmask 11010110
          30 102 rlineto
          hintmask 11100110
          -221 25 -122 -83 0 -98 0 -53 37 -47 45 -43 rrcurveto
          hintmask 11101010
          -135 -89 -31 -54 0 -59 rrcurveto
          -81 72 -56 115 vhcurveto
          133 95 76 90 hvcurveto
          -205 -82 rmoveto
          -59 -49 26 49 hvcurveto
          0 30 17 33 101 67 52 -46 46 -43 0 -41 rrcurveto
          -43 -46 -32 -62 vhcurveto
          endchar
        </CharString>
        <CharString name="eight.den">
          -220 64 176 -21 22 -21 126 69 hstemhm
          53 80 -24 79 90 78 hintmask 10110110
          356 -109 rmoveto
          55 callsubr
          hintmask 11010110
          56 callsubr
          hintmask 10111010
          43 callsubr
          -149 -47 rmoveto
          44 callsubr
          endchar
        </CharString>
        <CharString name="eight.inf">
          -160 64 282 69 hstemhm
          65 80 -24 79 90 78 hintmask 11011000
          368 -49 rmoveto
          47 callsubr
          hintmask 11101000
          43 callsubr
          -149 -47 rmoveto
          44 callsubr
          endchar
        </CharString>
        <CharString name="eight.num">
          415 64 155 -20 21 -20 146 69 hstemhm
          165 80 -24 79 90 78 hintmask 10110110
          468 526 rmoveto
          55 callsubr
          hintmask 11010110
          56 callsubr
          hintmask 10111010
          43 callsubr
          -149 -47 rmoveto
          44 callsubr
          endchar
        </CharString>
        <CharString name="eight.small">
          -10 64 282 69 hstemhm
          88 80 -24 79 90 78 hintmask 11011000
          391 101 rmoveto
          47 callsubr
          hintmask 11101000
          43 callsubr
          -149 -47 rmoveto
          44 callsubr
          endchar
        </CharString>
        <CharString name="eight.sup">
          318 64 257 -20 45 69 hstemhm
          145 80 -24 79 90 78 hintmask 10101100
          448 429 rmoveto
          0 41 -36 36 -39 32 rrcurveto
          hintmask 11101100
          33 16 40 18 49 21 rrcurveto
          -25 46 rlineto
          hintmask 10101100
          -57 -24 -47 -22 -39 -19 -26 21 -21 20 0 18 0 27 34 18 113 -28 rrcurveto
          29 78 rlineto
          -167 24 -88 -61 0 -65 0 -33 26 -29 31 -27 rrcurveto
          hintmask 10110100
          43 callsubr
          -149 -47 rmoveto
          44 callsubr
          endchar
        </CharString>
        <CharString name="ellipsis">
          0 146 hstem
          -2 145 38 145 38 145 vstem
          cntrmask 01110000
          476 hmoveto
          34 callsubr
          -71 hmoveto
          34 callsubr
          -71 hmoveto
          34 callsubr
          endchar
        </CharString>
        <CharString name="emacron">
          -11 92 104 59 180 88 102 89 hstem
          53 103 248 101 vstem
          550 703 rmoveto
          -19 callsubr
          -53 -556 rmoveto
          -65 callsubr
          -149 366 rmoveto
          -64 callsubr
          endchar
        </CharString>
        <CharString name="emdash">
          255 85 hstem
          64 462 vstem
          526 340 rmoveto
          -446 0 -16 -85 446 0 rlineto
          endchar
        </CharString>
        <CharString name="endash">
          255 85 hstem
          72 425 vstem
          497 340 rmoveto
          -409 0 -16 -85 409 0 rlineto
          endchar
        </CharString>
        <CharString name="eogonek">
          -211 73 -30 30 129 90 104 59 180 88 hstemhm
          53 103 16 98 134 101 hintmask 10111111
          418 -168 rmoveto
          hintmask 01111111
          -11 49 rlineto
          -98 -33 -39 15 0 31 0 49 100 63 110 52 rrcurveto
          -12 55 rlineto
          hintmask 01111101
          -231 -59 -78 21 -3 110 227 16 122 71 0 115 rrcurveto
          77 -55 48 -91 -172 -134 -175 -159 vhcurveto
          0 -118 75 -85 147 16 rrcurveto
          hintmask 10111111
          -72 -43 -31 -44 0 -41 rrcurveto
          0 -67 85 -43 161 79 rrcurveto
          hintmask 01111101
          -87 592 rmoveto
          45 28 -25 -35 hvcurveto
          0 -70 -93 -38 -150 -12 rrcurveto
          18 92 64 88 88 0 rrcurveto
          endchar
        </CharString>
        <CharString name="equal">
          180 72 118 72 hstem
          81 388 vstem
          469 442 rmoveto
          -388 -72 388 hlineto
          -118 vmoveto
          -388 -72 388 hlineto
          endchar
        </CharString>
        <CharString name="eth">
          -13 86 304 84 160 -20 hstem
          47 108 245 105 vstem
          237 -13 rmoveto
          154 114 132 195 hvcurveto
          0 92 -28 83 -53 77 rrcurveto
          87 25 -15 62 -113 -32 rlineto
          -27 32 -32 31 -35 30 rrcurveto
          -84 -54 rlineto
          27 -23 25 -23 21 -22 rrcurveto
          -113 -32 18 -62 140 40 rlineto
          19 -27 16 -27 12 -27 -18 3 -17 1 -16 0 rrcurveto
          -154 -118 -130 -150 -116 74 -78 116 hvcurveto
          20 86 rmoveto
          -63 -39 50 78 91 57 85 80 hvcurveto
          24 0 40 -7 41 -17 2 -17 1 -17 0 -17 rrcurveto
          -129 -55 -100 -88 vhcurveto
          endchar
        </CharString>
        <CharString name="exclam">
          -11 134 566 -20 hstemhm
          208 134 -110 84.5 hintmask 11010000
          321 689 rmoveto
          -94 0 10 -462 75 0 rlineto
          hintmask 11100000
          -37 -104 rmoveto
          -107 callsubr
          endchar
        </CharString>
        <CharString name="exclamdown">
          489 131 hstem
          137 276 vstem
          278 620 rmoveto
          -26 -131 135 0 26 131 rlineto
          -156 -245 rmoveto
          -10 -46 -98 -338 -12 -48 rrcurveto
          140 hlineto
          8 48 35 338 10 46 rrcurveto
          endchar
        </CharString>
        <CharString name="f">
          -178 84 335.5 84 267.5 112 hstem
          69 105 166 71 62 92 vstem
          411 14 rmoveto
          0 72 -39 79 -95 79 rrcurveto
          208 -5 16 87 -281 -1 rlineto
          50 149 84 119 75 0 55 0 6 -63 -59 -80 rrcurveto
          46 -19 rlineto
          125 142 -14 132 -117 0 -135 0 -144 -173 -74 -207 rrcurveto
          -52 0 -16 -67 43 -16 rlineto
          -15 -61 -9 -63 0 -60 rrcurveto
          -160 65 -76 91 97 89 79 113 vhcurveto
          -147 -108 rmoveto
          -49 -41 39 119 hvcurveto
          0 50 6 51 10 51 105 -74 45 -78 0 -69 rrcurveto
          -54 -31 -35 -45 vhcurveto
          endchar
        </CharString>
        <CharString name="f.lig">
          -150 84 307.5 84 267.5 112 hstem
          70 105 165 71 62 92 vstem
          411 29 rmoveto
          0 67 -39 74 -93 74 rrcurveto
          206 -5 16 87 -283 -1 rlineto
          50 147 85 121 76 0 55 0 6 -63 -59 -80 rrcurveto
          46 -19 rlineto
          125 142 -14 132 -117 0 -136 0 -145 -177 -73 -203 rrcurveto
          -51 0 -16 -67 42 -16 rlineto
          -14 -56 -8 -57 0 -54 rrcurveto
          -153 64 -72 91 97 89 73 106 vhcurveto
          -147 -95 rmoveto
          -49 -40 35 113 hvcurveto
          0 44 5 46 9 46 106 -70 45 -73 0 -62 rrcurveto
          -49 -31 -30 -45 vhcurveto
          endchar
        </CharString>
        <CharString name="five">
          -3 98 -74 -21 527 93 hstemhm
          375 101 hintmask 10110000
          476 204 rmoveto
          0 73 -59 70 -184 39 rrcurveto
          32 141 241 0 27 93 -344 0 -69 -302 rlineto
          189 -32 66 -44 0 -54 0 -57 -72 -55 -243 25 rrcurveto
          hintmask 01110000
          -12 -101 rlineto
          311 -26 117 121 0 109 rrcurveto
          endchar
        </CharString>
        <CharString name="five.den">
          -211 72 146 -21 128 71 hstem
          281 83 vstem
          364 -80 rmoveto
          39 callsubr
          endchar
        </CharString>
        <CharString name="five.inf">
          -151 72 253 71 hstem
          293 83 vstem
          376 -20 rmoveto
          39 callsubr
          endchar
        </CharString>
        <CharString name="five.num">
          424 72 3 -20 142 -20 148 71 hstemhm
          393 83 hintmask 10111000
          476 555 rmoveto
          52 callsubr
          hintmask 01111000
          53 callsubr
          hintmask 10111000
          54 callsubr
          endchar
        </CharString>
        <CharString name="five.small">
          -1 72 253 71 hstem
          316 83 vstem
          399 130 rmoveto
          39 callsubr
          endchar
        </CharString>
        <CharString name="five.sup">
          327 72 253 71 hstem
          373 83 vstem
          456 458 rmoveto
          39 callsubr
          endchar
        </CharString>
        <CharString name="fiveeighths">
          -220 64 176 -21 22 -21 126 69 76 68 85 72 3 -20 142 -20 148 71 hstemhm
          53 80 -24 79 90 78 37 83 hintmask 1011110110111000
          476 555 rmoveto
          52 callsubr
          hintmask 1011101110111000
          53 callsubr
          hintmask 1011110110111000
          54 callsubr
          -419 -284 rmoveto
          -10 callsubr
          285 -448 rmoveto
          55 callsubr
          hintmask 1101110110111000
          56 callsubr
          hintmask 1011110111011000
          57 callsubr
          -149 -47 rmoveto
          44 callsubr
          endchar
        </CharString>
        <CharString name="fivesixths">
          -220 64 133 53 241 68 85 72 3 -20 142 -20 148 71 hstemhm
          62 81 151 79 20 83 hintmask 1111011111000000
          476 555 rmoveto
          52 callsubr
          hintmask 1110111111000000
          53 callsubr
          hintmask 1111011110000000
          54 callsubr
          -419 -284 rmoveto
          -10 callsubr
          137 -559 rmoveto
          40 callsubr
          13 64 rmoveto
          41 callsubr
          endchar
        </CharString>
        <CharString name="four">
          0 214 -92 92 407 -20 26 -20 hstemhm
          41 466 hintmask 01011000
          481 122 rmoveto
          26 92 -67 0 40 205 -99 -8 -39 -197 -193 0 rlineto
          hintmask 01101000
          75 112 55 109 62 186 rrcurveto
          hintmask 01011000
          -113 6 rlineto
          -56 -186 -51 -116 -76 -133 rrcurveto
          -4 -70 283 0 rlineto
          hintmask 10011000
          -24 -122 98 0 rlineto
          hintmask 01011000
          24 122 rlineto
          endchar
        </CharString>
        <CharString name="four.den">
          -136 70 hstem
          50 341 vstem
          371 -136 rmoveto
          -9 callsubr
          endchar
        </CharString>
        <CharString name="four.inf">
          -76 70 hstem
          62 341 vstem
          383 -76 rmoveto
          -9 callsubr
          endchar
        </CharString>
        <CharString name="four.num">
          499 70 hstem
          162 341 vstem
          483 499 rmoveto
          -9 callsubr
          endchar
        </CharString>
        <CharString name="four.small">
          0 144 -70 70 hstemhm
          85 341 hintmask 01100000
          406 74 rmoveto
          hintmask 10100000
          20 70 -51 0 25 124 -79 -6 -23 -118 -123 0 rlineto
          47 69 37 69 39 114 rrcurveto
          -90 4 rlineto
          hintmask 01100000
          -35 -114 -33 -70 -49 -84 rrcurveto
          -6 -58 199 0 rlineto
          hintmask 10100000
          -14 -74 77 0 rlineto
          hintmask 01100000
          15 74 rlineto
          endchar
        </CharString>
        <CharString name="four.sup">
          402 70 hstem
          142 341 vstem
          463 402 rmoveto
          -9 callsubr
          endchar
        </CharString>
        <CharString name="fourfifths">
          -211 72 146 -21 128 71 86 68 160 70 hstem
          281 83 vstem
          483 499 rmoveto
          -9 callsubr
          -382 -228 rmoveto
          -10 callsubr
          293 -419 rmoveto
          39 callsubr
          endchar
        </CharString>
        <CharString name="fraction">
          -160 917 hstem
          -51 659 vstem
          34 -160 rmoveto
          574 871 -84 46 -575 -872 rlineto
          endchar
        </CharString>
        <CharString name="fraction.afrc">
          271 68 hstem
          57 450 vstem
          57 271 rmoveto
          -10 callsubr
          endchar
        </CharString>
        <CharString name="g">
          -171 98 101 96 299 87 4 -20 hstemhm
          48 106 190 84 hintmask 11101100
          220 124 rmoveto
          -38 -28 26 61 96 59 116 81 hvcurveto
          22 0 31 -7 37 -20 -22 -59 -19 -74 -7 -67 rrcurveto
          -38 -47 -41 -25 -37 0 rrcurveto
          208 -193 rmoveto
          -63 callsubr
          hintmask 11011100
          -62 callsubr
          hintmask 11101100
          -61 callsubr
          endchar
        </CharString>
        <CharString name="gbreve">
          -171 98 101 96 299 87 4 -20 86 84 hstemhm
          48 106 190 84 hintmask 11101110
          519 764 rmoveto
          21 callsubr
          -360 -603 rmoveto
          25 callsubr
          208 -193 rmoveto
          -63 callsubr
          hintmask 11011110
          -62 callsubr
          hintmask 11101110
          -61 callsubr
          endchar
        </CharString>
        <CharString name="gcommaaccent">
          -171 98 101 96 299 87 4 -20 hstemhm
          48 106 110 135 -55 84 hintmask 11101100
          434 778 rmoveto
          27 callsubr
          -214 -654 rmoveto
          25 callsubr
          hintmask 11011010
          208 -193 rmoveto
          28 56 -28 74 0 122 0 9 0 9 1 10 57 102 46 121 0 43 0 19 -44 18 -25 0 -9 0 -12 -9 -11 -16 rrcurveto
          hintmask 11101010
          -61 callsubr
          endchar
        </CharString>
        <CharString name="gdotaccent">
          -171 98 101 96 299 87 4 -20 97.5 135 hstemhm
          48 106 190 84 hintmask 11101110
          407 592 rmoveto
          22 callsubr
          -71 -467 rmoveto
          25 callsubr
          208 -193 rmoveto
          -63 callsubr
          hintmask 11011110
          -62 callsubr
          hintmask 11101110
          -61 callsubr
          endchar
        </CharString>
        <CharString name="germandbls">
          -8 93 -93 97 -89 85 532 88 hstemhm
          396 109 -97 110 hintmask 10011000
          213 -8 rmoveto
          218 -9 74 77 0 87 0 66 -49 66 -73 66 rrcurveto
          hintmask 00110100
          83 84 52 72 0 77 0 67 -44 60 -97 0 -129 0 -94 -95 -30 -153 rrcurveto
          -89 -457 107 0 90 463 rlineto
          20 104 42 50 54 0 40 0 20 -28 0 -37 0 -59 -44 -59 -105 -112 rrcurveto
          hintmask 01011000
          97 -85 40 -59 0 -43 0 -44 -48 -14 -124 12 rrcurveto
          endchar
        </CharString>
        <CharString name="grave">
          555 223 hstem
          135 275 vstem
          410 599 rmoveto
          -73 callsubr
          endchar
        </CharString>
        <CharString name="greater">
          530 -20 hstem
          415 72 vstem
          103 594 rmoveto
          -41 -64 353 -217 -353 -218 45 -62 380 237 0 86 rlineto
          endchar
        </CharString>
        <CharString name="greaterequal">
          7 92 hstem
          23 480 vstem
          384 371 rmoveto
          -1 -7 -301 -134 20 -87 387 175 14 83 -303 207 -57 -79 rlineto
          309 -430 rmoveto
          -411 0 -18 -92 412 0 rlineto
          endchar
        </CharString>
        <CharString name="guillemotleft">
          8 -21 526 -20 22 -20 hstemhm
          33 538 hintmask 10110000
          161 -13 rmoveto
          -21 callsubr
          371 -209 rmoveto
          87 54 -127 206 rlineto
          hintmask 11010000
          -20 callsubr
          endchar
        </CharString>
        <CharString name="guillemotleft.cap">
          507 -20 24 -20 hstemhm
          45 538 hintmask 01100000
          173 50 rmoveto
          -21 callsubr
          371 -209 rmoveto
          87 54 -127 206 rlineto
          hintmask 10100000
          -20 callsubr
          endchar
        </CharString>
        <CharString name="guillemotright">
          9 -21 22 -21 527 -20 hstemhm
          0 539 hintmask 10110000
          314 -12 rmoveto
          -14 callsubr
          hintmask 01110000
          -180 -65 rmoveto
          -13 callsubr
          endchar
        </CharString>
        <CharString name="guillemotright.cap">
          51 528 hstem
          12 539 vstem
          326 51 rmoveto
          -14 callsubr
          -180 -65 rmoveto
          -13 callsubr
          endchar
        </CharString>
        <CharString name="guilsinglleft">
          -22 541 hstem
          109 357 vstem
          298 -22 rmoveto
          35 callsubr
          endchar
        </CharString>
        <CharString name="guilsinglleft.cap">
          499 -20 hstem
          121 357 vstem
          310 41 rmoveto
          35 callsubr
          endchar
        </CharString>
        <CharString name="guilsinglright">
          -19 541 hstem
          78 358 vstem
          139 -19 rmoveto
          36 callsubr
          endchar
        </CharString>
        <CharString name="guilsinglright.cap">
          512 -20 hstem
          90 358 vstem
          151 44 rmoveto
          36 callsubr
          endchar
        </CharString>
        <CharString name="h">
          -11 92 -60 -21 409 102 194 -20 hstemhm
          321 112 -52 114 hintmask 10111000
          518 41 rmoveto
          -60 callsubr
          hintmask 01110100
          0 51 62 162 0 99 0 53 -22 45 -67 0 -59 0 -63 -35 -64 -65 rrcurveto
          57 294 -107 -8 -135 -697 105 0 63 327 rlineto
          53 54 47 28 35 0 30 0 13 -18 0 -32 rrcurveto
          hintmask 10111000
          0 -74 -60 -154 0 -76 rrcurveto
          0 -74 65 -21 132 81 rrcurveto
          endchar
        </CharString>
        <CharString name="hbar">
          -11 92 -60 -21 407 101 63 68 -68 134 hstemhm
          321 112 -52 114 hintmask 10110100
          518 41 rmoveto
          -60 callsubr
          hintmask 10110010
          0 51 62 160 0 98 0 53 -22 45 -67 0 -59 0 -64 -35 -64 -66 rrcurveto
          32 164 128 0 14 68 -129 0 rlineto
          hintmask 10101100
          13 66 -107 -8 rlineto
          hintmask 01110010
          -11 -58 -63 0 -13 -69 62 0 -110 -570 105 0 63 323 rlineto
          53 55 47 29 35 0 30 0 13 -19 0 -31 rrcurveto
          hintmask 10110100
          0 -74 -60 -152 0 -76 rrcurveto
          0 -74 65 -21 132 81 rrcurveto
          endchar
        </CharString>
        <CharString name="hcoslug">
          -100 75 5 10 -6 10 -4 11 -10 10 -9 7 0 12 -11 11 -7 15 -15 26 -25 26 -15 8 -8 15 -12 12 0 14 -9 10 -10 19 -9 11 2 8 -7 32 71.5 22.5 514 -20 hstemhm
          50 64 10 16 -3 8 5 40 -35 12 -1 12 14 10 -2 10 -10 42 -31 9 -1 7 3 12 -6 11 9 40 -29 13 -9 10 0 12 -4 11 -2 12 -5 16 18 11 10 8 hintmask 000000100000000000010110000010000010000010010000
          500 700 rmoveto
          -450 hlineto
          hintmask 100000000000000000011010000000100000001000000000
          -800 450 vlineto
          -300 396 rmoveto
          0 -17 11 -11 17 -16 9 13 5 12 0 12 rrcurveto
          18 -9 11 -13 -12 -8 -9 -13 vhcurveto
          49 -64 rmoveto
          12 -12 9 -12 9 -11 15 25 3 18 -17 17 -7 -7 -10 -9 -14 -9 rrcurveto
          -39 -93 rmoveto
          12 0 9 3 8 6 -21 27 -21 22 -14 13 -8 -8 -4 -11 0 -11 0 -23 17 -18 22 0 rrcurveto
          91 34 rmoveto
          19 -22 13 -9 15 0 15 0 9 9 8 13 rrcurveto
          5 -1 rlineto
          -1 -44 -27 -27 -32 0 -22 0 -17 8 -25 26 -21 -23 -25 -11 -32 0 -45 0 -36 30 0 40 0 31 21 24 40 13 -16 17 -7 13 0 22 rrcurveto
          32 31 32 51 46 25 -30 -26 vhcurveto
          0 -10 -2 -8 -5 -7 20 0 15 -8 2 -20 12 18 14 10 19 0 rrcurveto
          21 16 -15 -24 -23 -16 -17 -21 hvcurveto
          -14 0 -12 7 -6 12 -12 -7 -12 -10 -11 -15 rrcurveto
          hintmask 000000000000000000010000000000000100000000000000
          -72 -105 rmoveto
          -8 10 -5 -10 vlineto
          hintmask 000000000000000010000000000000000100000000000000
          -15 vlineto
          -3 1 -1 2 vhcurveto
          2 0 1 1 1 4 rrcurveto
          4 -1 rlineto
          -2 -7 -3 -3 -6 0 rrcurveto
          -6 -3 4 6 hvcurveto
          hintmask 000000000000000001000000000000010000000000000000
          15 -5 5 5 7 vlineto
          hintmask 000000000000000100000000100000000000000000000000
          -75 -21 rmoveto
          58 callsubr
          hintmask 000000000000000100000010000000000000000000000000
          22 hmoveto
          59 callsubr
          hintmask 000000000000001000000000000000000000000100000000
          132 -1 rmoveto
          6 -2 4 -3 -5 -1 -5 -5 -6 1 -4 5 vhcurveto
          3 2 4 6 hvcurveto
          hintmask 000000000000000100000010000000000000000000000000
          -120 -9 rmoveto
          4 hlineto
          hintmask 000000000000000001000010000000000000000000000000
          19 -4 5 vlineto
          hintmask 000000000000000000010000000010000000000000000000
          13 -6 hlineto
          2 4 3 3 5 0 rrcurveto
          7 2 -5 -6 hvcurveto
          hintmask 000000000000000100000000000000010000000000000000
          -14 5 -5 vlineto
          hintmask 000000000010000000000000000010000000000000000000
          -17 5 3 hlineto
          hintmask 000000000000000001000000000010000000000000000000
          13 vlineto
          3 -1 3 -3 -3 -3 -3 -5 vhcurveto
          -11 3 -5 vlineto
          hintmask 000000000000000100000010000000000000000000000000
          -16 hlineto
          -71 5 rmoveto
          6 hlineto
          hintmask 000000000000000000100010000000000000000000000000
          31 -6 5 vlineto
          hintmask 000000000000000000010000001000000000000000000000
          38 hlineto
          hintmask 000000000000000001000000001000000000000000000000
          -15 -5 vlineto
          -2 8 -1 2 -6 0 rrcurveto
          -8 hlineto
          hintmask 000000000000000000100001000000000000000000000000
          -14 3 vlineto
          4 0 0 1 1 5 rrcurveto
          5 hlineto
          hintmask 000000000000000100000000100000000000000000000000
          -17 -5 vlineto
          -1 5 0 1 -4 0 rrcurveto
          -3 hlineto
          hintmask 000000000000000100000001000000000000000000000000
          -12 7 -5 vlineto
          hintmask 000000000000000100000010000000000000000000000000
          -23 hlineto
          hintmask 000000000000000010000000000000000100000000000000
          133 10 rmoveto
          5 hlineto
          3 -4 3 -3 3 0 3 0 1 2 0 1 rrcurveto
          hintmask 000000000000000000100000000000000100000000000000
          0 7 -18 -4 0 12 0 4 4 5 7 0 3 0 3 -1 2 -3 rrcurveto
          1 4 5 0 0 -10 -5 0 rlineto
          -3 4 -2 1 -3 0 -2 0 -2 -1 0 -2 rrcurveto
          hintmask 000000000010000000000000000000000000100000000000
          0 -5 18 2 0 -11 0 -5 -3 -4 -7 0 -5 0 -3 2 -2 2 rrcurveto
          -1 -3 -5 0 rlineto
          hintmask 000000000000000000100000000000000000100000000000
          38 38 rmoveto
          -5 5 hlineto
          hintmask 000000000000000000010000000000000000000100000000
          14 hlineto
          hintmask 000000000000000000100000000000000000000100000000
          -20 vlineto
          1 4 4 3 4 0 rrcurveto
          hintmask 000000000100000000000000000000000000000010000000
          7 5 -6 -9 -7 -3 -9 -9 hvcurveto
          -6 0 -3 2 -2 4 rrcurveto
          -3 -6 -4 0 rlineto
          hintmask 100000000000000000010000000000000000000010000000
          39 -6 rmoveto
          3 3 2 4 hvcurveto
          -3 7 -9 18 0 0 rrcurveto
          -3 5 18 -5 -4 hlineto
          7 -15 6 15 -4 0 0 5 13 0 0 -5 -4 0 rlineto
          hintmask 000000001000000000000000000000000000000010000000
          -10 -24 rlineto
          -3 -7 -4 -5 -6 0 rrcurveto
          -6 -3 3 4 3 2 2 3 hvcurveto
          5 0 1 -5 -2 -2 rrcurveto
          hintmask 000000010000000000000000000000000000000000000000
          45 -24 rmoveto
          -6 -4 vlineto
          -2 -4 -2 -3 -3 -3 2 -2 2 -2 1 0 1 0 1 1 1 3 rrcurveto
          3 -1 rlineto
          -1 -5 -2 -4 -6 0 rrcurveto
          hintmask 100000000000000000000000000000000000000001000000
          -4 0 -2 2 -3 3 -3 -3 -4 -2 -6 0 -7 0 -5 4 0 6 0 6 4 3 6 2 -3 3 -2 3 0 4 rrcurveto
          hintmask 000000000001000000000000000000000000000000100000
          5 4 6 9 6 4 -4 -5 vhcurveto
          0 -5 -3 -2 -5 -3 2 -2 4 -5 3 -3 2 2 2 3 1 2 rrcurveto
          -5 6 hlineto
          hintmask 000000000100000000000000000000000010000000000000
          -114 4 rmoveto
          11 4 hlineto
          -3 -2 2 2 2 1 1 0 hvcurveto
          0 -1 1 -2 -2 -2 -2 -6 vhcurveto
          hintmask 100000000000000000000000000000000000000000010000
          132 -13 rmoveto
          hintmask 000100000000000000000000000000000000000000010000
          15 9 8 11 vhcurveto
          hintmask 000100000000000000000000000000000000000000000000
          5 0 4 -2 3 -3 rrcurveto
          4 6 -16 -6 vlineto
          hintmask 000000100000000000000000000000000000000000000000
          -3 9 -2 3 -6 0 rrcurveto
          -6 -4 -5 -12 hvcurveto
          hintmask 010000000000000000000000000000000000000000000000
          -11 4 -6 8 vhcurveto
          hintmask 000010000000000000000000000000000000000000000000
          6 0 3 6 1 6 rrcurveto
          6 hlineto
          hintmask 100000000000000000000000000000000000000000000000
          -1 -10 -6 -7 -11 0 rrcurveto
          -13 -8 7 14 hvcurveto
          hintmask 000000100000000000000000000000000000000000100000
          -29 4 rmoveto
          2 1 2 3 0 3 rrcurveto
          3 -2 2 -3 -2 -2 -1 -3 vhcurveto
          0 -2 2 -3 3 -3 rrcurveto
          hintmask 010000000000000000000000000000000000010000000000
          -68 -11 rmoveto
          60 callsubr
          hintmask 100000000000000000000000000000000000010000000000
          -1 -6 -4 -5 -8 0 rrcurveto
          -10 -6 6 9 hvcurveto
          hintmask 000000000010000000000000000000000000010000000000
          10 7 6 8 vhcurveto
          11 0 4 -7 -1 -10 rrcurveto
          hintmask 010000000000000000000000000001000000000000000000
          -89 hmoveto
          60 callsubr
          hintmask 100000000000000000000000000000001000000000000000
          -1 -6 -4 -5 -8 0 rrcurveto
          hintmask 100000000000000000000000010000000000000000000000
          -10 -6 6 9 hvcurveto
          hintmask 000000000010000000000000010000000000000000000000
          10 7 6 8 vhcurveto
          hintmask 000000000010000000000000000000001000000000000000
          11 0 4 -7 -1 -10 rrcurveto
          hintmask 010000000000000000000010000001000000000000000000
          -63 2 rmoveto
          58 callsubr
          252 hmoveto
          hintmask 010000000000000000000000000000000000000000000000
          9 7 6 9 9 7 -6 -9 vhcurveto
          hintmask 010000000000000000000010000001000000000000000000
          -9 -7 -7 -9 -9 -7 6 10 vhcurveto
          hintmask 000001000000000000000000000001000000010000000000
          -138 2 rmoveto
          10 hlineto
          6 -1 3 -4 vhcurveto
          -3 -2 -2 -7 hvcurveto
          -70 hmoveto
          10 hlineto
          6 -1 3 -4 -3 -2 -2 -7 vhcurveto
          hintmask 010000000000000000000000000100000000000000000000
          -22 -2 rmoveto
          59 callsubr
          hintmask 010000000000000000000000000000000000000000000000
          252 hmoveto
          59 callsubr
          hintmask 100000000000000000000000000000001000000000000000
          -208 -10 rmoveto
          4 hlineto
          hintmask 000001000000000000000000000000001000000000000000
          19 -5 5 5 1 vlineto
          hintmask 000000000000010000000000000000001000000000000000
          10 7 4 6 vhcurveto
          4 0 2 -1 2 -1 rrcurveto
          8 2 rlineto
          hintmask 010000000000000000000000000000000000100000000000
          -39 4 -5 vlineto
          hintmask 100000000000000000000000000000000010000000000000
          -17 5 4 hlineto
          hintmask 000001000000000000000000000000000010000000000000
          19 -11 vlineto
          hintmask 010000000000000000000000000000000010000000000000
          -19 4 -5 vlineto
          hintmask 100000000000000000000000000000001000000000000000
          -17 hlineto
          hintmask 100000000000000000000000000000000001000000000000
          69 5 rmoveto
          4 hlineto
          hintmask 000001000000000000000000000000000001000000000000
          19 -4 5 vlineto
          hintmask 000000000010000000000000000000000000000001000000
          13 -6 hlineto
          2 5 3 2 4 0 rrcurveto
          4 2 -2 -4 -3 -2 -2 -3 -2 -3 1 3 hvcurveto
          1 vlineto
          -1 0 -3 -3 -1 -4 rrcurveto
          hintmask 010000000000000000000000000000000000000001000000
          -12 6 -5 vlineto
          hintmask 100000000000000000000000000000000001000000000000
          -19 hlineto
          hintmask 100000000000000000000010000000000000000000000000
          -183 5 rmoveto
          6 hlineto
          hintmask 000000100000000000000010000000000000000000000000
          31 -6 5 vlineto
          hintmask 000000000000100000000001000000000000000000000000
          21 -5 -5 hlineto
          hintmask 000000100000000000000001000000000000000000000000
          -12 16 12 -5 5 vlineto
          hintmask 000000000000100000000000000100000000000000000000
          21 -5 -6 hlineto
          hintmask 010000000000000000000000000100000000000000000000
          -31 6 -5 vlineto
          hintmask 100000000000000000000001000000000000000000000000
          -21 5 5 hlineto
          hintmask 001000000000000000000001000000000000000000000000
          14 -16 vlineto
          hintmask 010000000000000000000001000000000000000000000000
          -14 5 -5 vlineto
          hintmask 100000000000000000000010000000000000000000000000
          -21 hlineto
          hintmask 001000000000000000000000000000000000000000100000
          234 7 rmoveto
          -2 2 -4 5 -4 4 -2 -2 -1 -2 0 -3 0 -4 3 -3 4 0 rrcurveto
          2 0 2 1 2 2 rrcurveto
          hintmask 100000000000000000000000000000000000000000000000
          111 -2 rmoveto
          -3 -2 -3 -4 -4 -2 3 3 3 2 3 4 vhcurveto
          4 2 -3 -3 hvcurveto
          endchar
        </CharString>
        <CharString name="hungarumlaut">
          561 234 hstem
          131 444 vstem
          177 562 rmoveto
          29 callsubr
          260 -37 rmoveto
          30 callsubr
          endchar
        </CharString>
        <CharString name="hyphen">
          277 72 hstem
          75 400 vstem
          75 277 rmoveto
          400 72 -400 hlineto
          endchar
        </CharString>
        <CharString name="i">
          -11 94 317 98 0 -20 98.5 136.5 hstemhm
          163 112 hintmask 10111000
          391 579 rmoveto
          -59 callsubr
          206 -525 rmoveto
          -58 callsubr
          hintmask 11011000
          -57 callsubr
          endchar
        </CharString>
        <CharString name="iacute">
          -11 94 317 98 0 -20 hstemhm
          163 112 hintmask 10110000
          202 606 rmoveto
          -16 callsubr
          281 -557 rmoveto
          -58 callsubr
          hintmask 11010000
          -57 callsubr
          endchar
        </CharString>
        <CharString name="ibreve">
          -11 94 317 98 0 -20 86 84 hstemhm
          163 112 hintmask 10111000
          498 748 rmoveto
          21 callsubr
          -76 -662 rmoveto
          -58 callsubr
          hintmask 11011000
          -57 callsubr
          endchar
        </CharString>
        <CharString name="icircumflex">
          -11 94 317 98 0 -20 138 -20 hstemhm
          163 112 hintmask 10111000
          455 557 rmoveto
          -6 callsubr
          126 -614 rmoveto
          -58 callsubr
          hintmask 11011000
          -57 callsubr
          endchar
        </CharString>
        <CharString name="idieresis">
          -11 94 317 98 0 -20 96.5 135 hstemhm
          163 112 hintmask 10111000
          495 577 rmoveto
          -23 callsubr
          -106 -1 rmoveto
          -22 callsubr
          321 -525 rmoveto
          -58 callsubr
          hintmask 11011000
          -57 callsubr
          endchar
        </CharString>
        <CharString name="igrave">
          -11 94 317 98 0 -20 hstemhm
          163 112 hintmask 10110000
          480 599 rmoveto
          -73 callsubr
          27 -506 rmoveto
          -58 callsubr
          hintmask 11010000
          -57 callsubr
          endchar
        </CharString>
        <CharString name="imacron">
          -11 94 317 98 0 -20 122 89 hstemhm
          163 112 hintmask 10111000
          531 689 rmoveto
          -19 callsubr
          -31 -551 rmoveto
          -58 callsubr
          hintmask 11011000
          -57 callsubr
          endchar
        </CharString>
        <CharString name="iogonek">
          -211 73 -30 30 127 94 317 98 0 -20 98.5 136.5 hstemhm
          163 112 -110 98 hintmask 01101110
          391 579 rmoveto
          -59 callsubr
          hintmask 10101101
          134 -742 rmoveto
          hintmask 01101101
          -12 49 rlineto
          -98 -33 -38 15 0 31 0 43 53 42 167 70 rrcurveto
          -10 56 rlineto
          hintmask 01101110
          -197 -41 -16 14 22 87 rrcurveto
          87 333 -91 0 rlineto
          hintmask 01110110
          -208 -49 7 -56 167 14 -71 -261 rlineto
          -27 -99 24 -58 93 0 rrcurveto
          hintmask 10101101
          -69 -42 -29 -43 0 -41 rrcurveto
          0 -67 85 -43 161 79 rrcurveto
          endchar
        </CharString>
        <CharString name="j">
          -173 103 473 96 0 -20 97.5 139.5 hstemhm
          305 69.81 hintmask 10111000
          456 579 rmoveto
          42 140 -123 -6 -34 -139 rlineto
          -348 -747 rmoveto
          209 2 65 11 42 42 71 72 -65 146 118 398 rrcurveto
          -99 1 rlineto
          hintmask 11011000
          -224 -47 8 -55 187 12 rlineto
          -75 -307 35 -124 -32 -33 -18 -18 -24 -2 -189 5 rrcurveto
          endchar
        </CharString>
        <CharString name="k">
          14 -21 28 -21 28 -21 406 98 194 -20 hstemhm
          411 116 hintmask 10011100
          381 -7 rmoveto
          hintmask 00111100
          -56 callsubr
          hintmask 01011100
          -55 callsubr
          endchar
        </CharString>
        <CharString name="kcommaaccent">
          14 -21 28 -21 28 -21 406 98 194 -20 hstemhm
          185 132 94 116 hintmask 10011110
          381 -7 rmoveto
          hintmask 00111110
          -56 callsubr
          hintmask 01011110
          -55 callsubr
          -77 -464 rmoveto
          26 callsubr
          endchar
        </CharString>
        <CharString name="l">
          -9 87 524 105 hstem
          116 108 215 99 vstem
          475 63 rmoveto
          -54 callsubr
          -78 539 rmoveto
          -53 callsubr
          endchar
        </CharString>
        <CharString name="l.ultra">
          -8 87 523 105 hstem
          104 109 214 99 vstem
          463 63 rmoveto
          -16 54 rlineto
          -134 -56 -73 2 -21 86 206 165 101 158 0 123 rrcurveto
          72 -39 40 -63 -149 -171 -240 -274 vhcurveto
          0 -212 137 -47 222 129 rrcurveto
          -77 539 rmoveto
          23 18 -17 -36 hvcurveto
          0 -75 -63 -121 -151 -139 rrcurveto
          217 98 171 75 vhcurveto
          endchar
        </CharString>
        <CharString name="lacute">
          -9 87 524 105 hstem
          116 108 215 99 vstem
          355 808 rmoveto
          -16 callsubr
          120 -745 rmoveto
          -54 callsubr
          -78 539 rmoveto
          -53 callsubr
          endchar
        </CharString>
        <CharString name="lcaron">
          -9 87 524 105 hstem
          116 108 215 99 79 118 vstem
          617 800 rmoveto
          24 callsubr
          -260 -741 rmoveto
          -54 callsubr
          -78 539 rmoveto
          -53 callsubr
          endchar
        </CharString>
        <CharString name="lcommaaccent">
          -9 87 524 105 hstemhm
          116 108 -43 132 126 99 hintmask 11101000
          475 63 rmoveto
          -17 54 rlineto
          -142 -60 -74 5 -15 104 209 153 102 152 0 124 rrcurveto
          72 -39 40 -63 -150 -170 -240 -274 vhcurveto
          0 -9 0 -9 1 -9 -26 -17 -36 -23 -4 -3 rrcurveto
          26 -44 rlineto
          3 2 23 14 22 13 rrcurveto
          34 -139 127 -16 189 110 rrcurveto
          -78 539 rmoveto
          -53 callsubr
          hintmask 11011000
          -254 -872 rmoveto
          26 callsubr
          endchar
        </CharString>
        <CharString name="ldot">
          -9 87 177 127 220 105 hstem
          116 108 215 99 vstem
          475 63 rmoveto
          -54 callsubr
          -78 539 rmoveto
          -53 callsubr
          196 -347 rmoveto
          27 127 -104 0 -26 -127 rlineto
          endchar
        </CharString>
        <CharString name="less">
          530 -20 hstem
          62 72 vstem
          446 594 rmoveto
          -384 -237 0 -87 380 -237 45 61 -353 219 353 217 rlineto
          endchar
        </CharString>
        <CharString name="lessequal">
          7 92 hstem
          23 495 vstem
          214 367 rmoveto
          304 157 -28 84 -383 -205 -17 -83 319 -176 52 82 -249 134 rlineto
          240 -261 rmoveto
          -411 0 -18 -92 412 0 rlineto
          endchar
        </CharString>
        <CharString name="lig.1">
          -11 68 296 67 216 63 hstemhm
          -454.66699 75.16699 -42.16699 75.16699 215.41699 70.58301 64.16699 75.16602 -42.16602 75.16602 215.41699 70.58301 hintmask 1110110110000000
          225.5 420 rmoveto
          -64.16699 -49.5 53 61 59 32.08398 43 65.08301 hvcurveto
          45.83301 0 30.25 -19 32.08398 -39 rrcurveto
          45.83301 46 rlineto
          -50.41699 61 -47.66602 14 -55 0 -107.25 0 -66 -77 0 -88 0 -43 12.83301 -42 35.75 -29 rrcurveto
          -318.08301 hlineto
          -64.16699 -49.5 53 61 59 32.08301 43 65.08398 hvcurveto
          45.83301 0 30.25 -19 32.08301 -39 rrcurveto
          45.83398 46 rlineto
          -50.41699 61 -47.66699 14 -55 0 -107.25 0 -66 -77 0 -88 0 -62 27.5 -61 82.5 -21 rrcurveto
          -3 vlineto
          hintmask 1111011010000000
          -91.66602 -21 -51.33398 -68 0 -103 0 -103 61.41699 -103 143 0 105.41699 0 56.83301 54 27.5 38 rrcurveto
          272 132 vlineto
          -44 -34 -23.83301 -54 0 -70 0 -103 61.41602 -103 143 0 105.41699 0 56.83301 54 27.5 38 rrcurveto
          272 82.5 67 vlineto
          -611.41602 -311 rmoveto
          -24.75 -34 -42.16699 -18 -50.41699 0 rrcurveto
          -92.58301 -38.5 68 73 71 40.33301 84 94.41699 hvcurveto
          113.66699 hlineto
          458.33301 -244 rmoveto
          -24.75 -34 -42.16699 -18 -50.41602 0 rrcurveto
          -92.58398 -38.5 68 73 71 40.33398 84 94.41602 hvcurveto
          113.66699 hlineto
          endchar
        </CharString>
        <CharString name="lig.10">
          34.83301 -103 rmoveto
          65 callsubr
          -253 675 rmoveto
          66 callsubr
          endchar
        </CharString>
        <CharString name="lig.100">
          26 -21 626 -20 hstemhm
          -314.41699 81.58398 -71.5 61.41602 hintmask 11100000
          -314.41699 631 rmoveto
          hintmask 11010000
          10.08398 -261 -223.66699 89 -27.5 -85 231.91699 -68 -139.33398 -197 68.75 -52 121.91699 210 135.66699 -216 66.91602 56 -152.16602 199 227.33301 69 -22.91699 84 -225.5 -88 rlineto
          hintmask 11100000
          10.08398 260 rlineto
          -305.25 -12 rmoveto
          115 callsubr
          527.08301 89 rmoveto
          116 callsubr
          endchar
        </CharString>
        <CharString name="lig.101">
          -292.41699 69.66699 296.08301 69.66699 vstem
          -292.41699 712 rmoveto
          -528.91602 -356 0 -86 528.91602 -359 69.66699 0 0 801 rlineto
          296.08301 hmoveto
          117 callsubr
          -435.41699 -711 rmoveto
          -462.91602 312 462.91602 310 rlineto
          endchar
        </CharString>
        <CharString name="lig.102">
          5 -21 657 -20 hstem
          -309.83301 68.75 vstem
          -241.08301 724 rmoveto
          -68.75 -826 68.75 hlineto
          -174.16699 743 rmoveto
          -420.75 -284 0 -87 420.75 -286 0 90 -354.75 239 354.75 239 rlineto
          279.58301 89 rmoveto
          0 -89 356.58398 -239 -356.58398 -240 0 -90 422.58398 287 0 86 rlineto
          endchar
        </CharString>
        <CharString name="lig.103">
          -57 77 616 66 hstem
          -462.91699 81.58398 86.16602 62.33398 115.5 83.41602 vstem
          -11 619 rmoveto
          -62.33301 44 -87.08398 31 -72.41602 8 rrcurveto
          146 -62.33398 -145 vlineto
          -112.75 -12 -55 -83 0 -80 0 -93 60.5 -59 107.25 -39 rrcurveto
          -317 vlineto
          -60.5 -4 -47.66602 8 -107.25 70 rrcurveto
          -323.58398 219 272.25 181 13.75 100 -352 -237 0 -87 389.58398 -265 rlineto
          90.75 -53 44.91602 -12 79.75 3 rrcurveto
          -96 62.33398 98 vlineto
          113.66602 18 85.25 88 0 126 0 124 -107.25 67 -91.66602 33 rrcurveto
          235 vlineto
          45.83301 -6 66 -23 110 -77 rrcurveto
          323.58301 -217 -253 -168 -20.16602 -108 339.16602 233 0 86 rlineto
          -673.75 67 rmoveto
          -66.91602 29 -19.25 30 0 47 0 57 36.66602 39 49.5 9 rrcurveto
          177.83398 -457 rmoveto
          76 callsubr
          endchar
        </CharString>
        <CharString name="lig.104">
          27 -21 174 72 118 72 174 -20 hstem
          433.58301 370 rmoveto
          72 -1275.08301 vlineto
          27.5 18 15.58301 17 13.75 17 rrcurveto
          57.75 68 -57.75 54 -248.41602 -305 248.41602 -305 57.75 54 -57.75 69 rlineto
          -13.75 17 -15.58301 16 -27.5 18 rrcurveto
          1275.08301 72 -1321.83301 hlineto
          -48.58301 59 48.58301 59 rlineto
          endchar
        </CharString>
        <CharString name="lig.105">
          27 -21 174 72 118 72 174 -20 hstem
          234.66699 616 rmoveto
          -57.75 -54 57.75 -68 rlineto
          13.75 -17 15.58301 -17 27.5 -18 rrcurveto
          -1133 hlineto
          27.5 18 15.58301 17 13.75 17 rrcurveto
          57.75 68 -57.75 54 -248.41602 -305 248.41602 -305 57.75 54 -57.75 69 rlineto
          -13.75 17 -15.58301 16 -27.5 18 rrcurveto
          1133 hlineto
          -27.5 -18 -15.58301 -16 -13.75 -17 rrcurveto
          -57.75 -69 57.75 -54 248.41602 305 rlineto
          -1371.33301 -59 rmoveto
          -48.58301 59 48.58301 59 1226.5 0 48.58301 -59 -48.58301 -59 rlineto
          endchar
        </CharString>
        <CharString name="lig.106">
          27 -21 174 72 118 72 174 -20 hstem
          -842.41699 252 rmoveto
          -48.58301 59 48.58301 59 1101.83398 0 160.41602 192 -57.75 54 -141.16602 -174 -1016.58398 0 rlineto
          27.5 18 15.58398 17 13.75 17 rrcurveto
          57.75 68 -57.75 54 -248.41699 -305 248.41699 -305 57.75 54 -57.75 69 rlineto
          -13.75 17 -15.58398 16 -27.5 18 rrcurveto
          1016.58398 0 141.16602 -174 57.75 54 -160.41602 192 rlineto
          endchar
        </CharString>
        <CharString name="lig.107">
          29 -21 268 74 268 -20 hstem
          188.83301 618 rmoveto
          -57.75 -54 131.08398 -156 rlineto
          25.66602 -31 6.41699 -9 26.58301 -18 rrcurveto
          -1191.66602 hlineto
          26.58301 18 6.41699 9 25.66602 31 rrcurveto
          131.08398 156 -57.75 54 -248.41699 -305 248.41699 -305 57.75 54 -131.08398 156 rlineto
          -18.33301 22 -18.33301 20 -22 16 rrcurveto
          1191.66602 hlineto
          -22 -16 -18.33301 -20 -18.33301 -22 rrcurveto
          -131.08398 -156 57.75 -54 248.41699 305 rlineto
          endchar
        </CharString>
        <CharString name="lig.108">
          29 -21 268 74 268 -20 hstem
          -738.83301 618 rmoveto
          -248.41699 -305 248.41699 -305 57.75 54 -131.08398 156 rlineto
          -18.33301 22 -18.33301 20 -22 16 rrcurveto
          1306.25 74 -1306.25 hlineto
          26.58301 18 6.41699 9 25.66602 31 rrcurveto
          131.08398 156 rlineto
          endchar
        </CharString>
        <CharString name="lig.109">
          29 -21 268 74 268 -20 hstem
          418.91699 564 rmoveto
          -57.75 54 -218.16699 -268 -1028.5 0 rlineto
          25.66699 18 7.33301 9 25.66699 31 rrcurveto
          137.5 163 -50.41699 47 -249.33301 -305 249.33301 -305 50.41699 47 -137.5 163 rlineto
          -18.33398 22 -18.33301 20 -22 16 rrcurveto
          1028.5 0 218.16699 -268 57.75 54 -209.91699 251 rlineto
          endchar
        </CharString>
        <CharString name="lig.11">
          -199.83301 68.75 261.25 68.75 vstem
          -131.08301 807 rmoveto
          67 callsubr
          330 909 rmoveto
          67 callsubr
          endchar
        </CharString>
        <CharString name="lig.110">
          27 -21 174 72 118 72 174 -20 hstem
          -681.08301 562 rmoveto
          113 callsubr
          1324.58301 59 rmoveto
          72 -997.33301 vlineto
          27.5 18 15.58301 17 13.75 17 rrcurveto
          57.75 68 -57.75 54 -248.41602 -305 248.41602 -305 57.75 54 -57.75 69 rlineto
          -13.75 17 -15.58301 16 -27.5 18 rrcurveto
          997.33301 72 -1044.08301 hlineto
          -48.58301 59 48.58301 59 rlineto
          endchar
        </CharString>
        <CharString name="lig.111">
          29 -21 268 74 268 -20 hstem
          -738.83301 618 rmoveto
          111 callsubr
          220.91602 54 rmoveto
          -249.33301 -305 249.33301 -305 56.83398 54 -131.08398 156 rlineto
          -17.41602 22 -18.33398 20 -22.91602 16 rrcurveto
          1028.5 74 -1027.58398 hlineto
          25.66699 18 7.33301 9 24.75 31 rrcurveto
          131.08398 156 rlineto
          endchar
        </CharString>
        <CharString name="lig.112">
          -523.41699 582 rmoveto
          89 callsubr
          428.08398 65 rmoveto
          88 callsubr
          428.08301 65 rmoveto
          88 callsubr
          endchar
        </CharString>
        <CharString name="lig.113">
          26 -21 271 70 273 -20 hstem
          -311.66699 71.5 vstem
          -538.08301 619 rmoveto
          115 callsubr
          527.08301 89 rmoveto
          116 callsubr
          -618.75 239 rmoveto
          -71.5 -249 -223.66602 -70 223.66602 -249 71.5 249 225.5 70 -225.5 hlineto
          endchar
        </CharString>
        <CharString name="lig.114">
          -93.5 675 rmoveto
          44.91699 102 -61.41699 32 -343.75 -772 -407.91699 276 323.58398 217 -37.58398 64 -352 -237 0 -87 443.66699 -301 -38.5 -87 62.33301 -30 336.41699 755 436.33301 -294 -323.58301 -218 41.25 -62 rlineto
          348.33301 237 0 86 rlineto
          endchar
        </CharString>
        <CharString name="lig.115">
          21 -21 170 64 222 66 hstem
          501.41699 456 rmoveto
          66 -73.33398 vlineto
          21.08398 167 -65.08398 0 -21.08301 -167 -133.83301 0 21.08301 167 -65.08301 0 -21.08398 -167 -286 0 21.08398 167 -65.08398 0 -21.08301 -167 -133.83301 0 21.08301 167 -65.08301 0 -21.08398 -167 rlineto
          -286 0 21.08398 167 -65.08398 0 -21.08301 -167 -133.83301 0 21.08301 167 -65.08301 0 -21.08398 -167 -81.58301 0 0 -66 74.25 0 -28.41699 -222 -79.75 0 0 -64 72.41699 0 rlineto
          -20.16699 -170 65.08398 0 21.08301 170 132.91699 0 -20.16699 -170 65.08301 0 19.25 170 286.91699 0 -20.16699 -170 65.08398 0 21.08301 170 132.91699 0 -20.16699 -170 65.08301 0 19.25 170 rlineto
          286.91699 0 -20.16699 -170 65.08398 0 21.08301 170 132.91699 0 -20.16699 -170 65.08301 0 19.25 170 83.41699 0 0 64 -74.25 0 26.58301 222 rlineto
          -1192.58301 -222 rmoveto
          69 callsubr
          322.66602 -222 rmoveto
          94 callsubr
          170.5 -222 rmoveto
          69 callsubr
          322.66602 -222 rmoveto
          94 callsubr
          170.5 -222 rmoveto
          69 callsubr
          endchar
        </CharString>
        <CharString name="lig.116">
          -182 74 129 -21 170 64 222 66 hstem
          114.58301 80.66699 vstem
          429.91699 -139 rmoveto
          -134.75 120 -106.33398 148 6.41699 221 6.41699 210 56.83301 106 132 128 rrcurveto
          -39.41699 46 rlineto
          -149.41602 -133 -89.83398 -129 2.75 -228 1.83398 -209 83.41602 -140 111.83398 -109 rrcurveto
          -1003.75 0 31.16602 278 83.41699 0 0 64 -74.25 0 26.58301 222 81.58398 0 0 66 -73.33398 0 21.08398 167 -65.08398 0 -21.08301 -167 -133.83301 0 21.08301 167 -65.08301 0 rlineto
          -21.08398 -167 -81.58301 0 0 -66 74.25 0 -28.41699 -222 -79.75 0 0 -64 72.41699 0 -20.16699 -170 65.08398 0 21.08301 170 132.91699 0 -41.25 -352 1160.5 1 0 1 rlineto
          0.91602 -1 rlineto
          -1245.75 415 rmoveto
          95 callsubr
          endchar
        </CharString>
        <CharString name="lig.117">
          180 72 -65 243 -60 72 hstemhm
          -936.83301 223.66602 188.83398 223.66602 hintmask 00111000
          452.83301 442 rmoveto
          -550 -72 550 hlineto
          hintmask 01011000
          -1277.83301 -183 rmoveto
          64.16699 47.66602 51 70 70 -47.66602 52 -64.16699 -64.16699 -47.66602 -51 -70 hvcurveto
          -70 47.66602 -52 64.16699 vhcurveto
          412.5 hmoveto
          64.16699 47.66602 51 70 70 -47.66602 52 -64.16699 -64.16699 -47.66602 -51 -70 -70 47.66602 -52 64.16699 hvcurveto
          hintmask 10011000
          865.33301 65 rmoveto
          -550 -72 550 hlineto
          endchar
        </CharString>
        <CharString name="lig.118">
          -11 176 hstem
          -732.41699 161.33398 168.66602 161.33398 vstem
          249.33301 594 rmoveto
          114 callsubr
          -1019.33398 -453 rmoveto
          118 callsubr
          330 hmoveto
          118 callsubr
          endchar
        </CharString>
        <CharString name="lig.119">
          -11 176 hstem
          -722.33301 161.33301 205.33301 161.33398 205.33301 161.33301 vstem
          cntrmask 01110000
          -722.33301 77 rmoveto
          97 callsubr
          366.66602 hmoveto
          118 callsubr
          366.66699 hmoveto
          -50 34.83301 -38 45.83398 46.75 33.91602 38 50 49 -33.91602 39 -46.75 -45.83398 -34.83301 -39 -49 vhcurveto
          endchar
        </CharString>
        <CharString name="lig.12">
          -138 66 388 68 388 66 hstem
          -267.66699 68.75 417.08398 71.5 vstem
          cntrmask 11100000
          -267.66699 838 rmoveto
          -976 68.75 976 vlineto
          320.83398 hmoveto
          -253 -66 253 hlineto
          66.91602 29.33398 -16 -61 hvcurveto
          -211 vlineto
          0 -84 22.91602 -37 62.33398 -13 -64.16699 -13 -21.08301 -33 0 -88 rrcurveto
          -208 vlineto
          -63 -28.41699 -17 -67.83301 vhcurveto
          -253 -66 253 hlineto
          102.66602 65.08398 33 123 hvcurveto
          192 vlineto
          69 15.58301 37 122.83301 vhcurveto
          68 vlineto
          -122.83301 -15.58301 36 68 hvcurveto
          -0.91699 199 rlineto
          -0.91699 124 -63.25 27 -102.66602 0 rrcurveto
          endchar
        </CharString>
        <CharString name="lig.120">
          276 70 hstem
          -770 71.5 386.83301 71.5 386.83398 71.5 vstem
          -240.16699 276 rmoveto
          386.83398 -199 71.5 199 179.66602 70 -179.66602 199 -71.5 -199 -386.83398 199 -71.5 -199 -386.83301 hlineto
          199 -71.5 -199 -177.83301 -70 177.83301 -199 71.5 199 386.83301 -199 71.5 vlineto
          endchar
        </CharString>
        <CharString name="lig.121">
          180 72 118 72 hstem
          -943.25 -103 rmoveto
          102 callsubr
          862.58301 515 rmoveto
          103 callsubr
          595.83301 72 rmoveto
          -528 -72 528 hlineto
          -595.83301 -118 rmoveto
          104 callsubr
          595.83301 72 rmoveto
          -528 -72 528 hlineto
          endchar
        </CharString>
        <CharString name="lig.122">
          -897.41699 -103 rmoveto
          65 callsubr
          520.66699 -30 rmoveto
          390.5 880 -61.41699 32 -391.41699 -882 rlineto
          520.66699 -30 rmoveto
          102 callsubr
          endchar
        </CharString>
        <CharString name="lig.123">
          -182 74 hstem
          -309.83301 68.75 vstem
          -241.08301 -108 rmoveto
          832 -68.75 -832 -606.83398 -74 1283.33398 74 vlineto
          endchar
        </CharString>
        <CharString name="lig.124">
          -11 134 hstemhm
          -841.5 122.83301 -105.41602 86.16602 -77 68.75 408.83398 122.83301 -105.41699 86.16699 -77 68.75 410.66699 122.83301 hintmask 10100001
          -737.91699 689 rmoveto
          -86.16602 0 rlineto
          hintmask 10010001
          9.16602 -462 68.75 0 rlineto
          hintmask 10000101
          512.41699 462 rmoveto
          78 callsubr
          hintmask 10000011
          79 callsubr
          -538.08301 -104 rmoveto
          hintmask 11000001
          99 callsubr
          504.16602 hmoveto
          hintmask 10001001
          80 callsubr
          505.08398 hmoveto
          -34.83398 -25.66602 -30 -37 -38 25.66602 -29 34.83398 35.75 26.58301 29 38 37 -26.58301 30 -35.75 hvcurveto
          endchar
        </CharString>
        <CharString name="lig.125">
          21 -21 hstem
          -1010.16699 78.83398 1316.33301 75.16699 vstem
          385 527 rmoveto
          -61.41699 -475 -72.41602 408 -90.75 0 -87.08398 -408 -64.16602 408 -92.58398 0 -71.5 -408 -69.66602 408 -91.66699 0 -75.16699 -408 -71.5 408 -92.58301 0 -75.16699 -408 -71.5 408 -90.75 0 rlineto
          -77 -408 -61.41602 475 -78.83398 0 88 -527 106.33398 0 66.91602 386 61.41699 -386 113.66699 0 63.25 386 62.33301 -386 110 0 66 386 60.5 -386 113.66699 0 59.58301 386 rlineto
          55.91699 -386 110.91602 0 76.08398 386 62.33301 -386 109.08301 0 84.33398 527 rlineto
          endchar
        </CharString>
        <CharString name="lig.126">
          -1198.08301 69.66602 352 69.66699 333.66699 69.66602 vstem
          -1128.41699 712 rmoveto
          -69.66602 -801 69.66602 hlineto
          421.66699 801 rmoveto
          105 callsubr
          403.33301 801 rmoveto
          -69.66602 -801 69.66602 hlineto
          528.91699 359 0 86 rlineto
          -528.91699 -355 rmoveto
          68 callsubr
          endchar
        </CharString>
        <CharString name="lig.127">
          -796.58301 69.66602 333.66699 69.66699 352 69.66602 vstem
          -796.58301 712 rmoveto
          -528.91699 -356 0 -86 528.91699 -359 69.66602 0 0 801 rlineto
          333.66699 hmoveto
          117 callsubr
          352 hmoveto
          -801 69.66602 801 vlineto
          -894.66602 -711 rmoveto
          85 callsubr
          endchar
        </CharString>
        <CharString name="lig.128">
          -11 134 -94 -21 269 72 269 -20 hstemhm
          -1162.33301 122.83301 -105.41699 86.16699 -77 68.75 hintmask 00110100
          -1058.75 689 rmoveto
          78 callsubr
          hintmask 00110010
          79 callsubr
          -313.5 391 rmoveto
          -248.41699 -305 rlineto
          hintmask 01110000
          248.41699 -305 57.75 54 -131.08301 156 rlineto
          -18.33398 22 -18.33301 20 -22 16 rrcurveto
          276.83301 74 -276.83301 hlineto
          26.58301 18 6.41699 9 25.66699 31 rrcurveto
          131.08301 156 rlineto
          365.75 -287 rmoveto
          1392.41699 72 -1392.41699 hlineto
          hintmask 10111000
          -143.91699 -226 rmoveto
          -34.83301 -26.58301 -30 -37 -38 26.58301 -29 34.83301 35.75 25.66699 29 38 hvcurveto
          37 -25.66699 30 -35.75 vhcurveto
          endchar
        </CharString>
        <CharString name="lig.129">
          21 -21 170 64 222 66 hstem
          501.41699 456 rmoveto
          66 -73.33398 vlineto
          21.08398 167 -65.08398 0 -21.08301 -167 -133.83301 0 21.08301 167 -65.08301 0 -21.08398 -167 -286 0 21.08398 167 -65.08398 0 -21.08301 -167 -133.83301 0 21.08301 167 -65.08301 0 -21.08398 -167 rlineto
          -286 0 21.08398 167 -65.08398 0 -21.08301 -167 -133.83301 0 21.08301 167 -65.08301 0 -21.08398 -167 -286 0 21.08398 167 -65.08398 0 -21.08301 -167 -133.83301 0 21.08301 167 -65.08301 0 rlineto
          -21.08398 -167 -81.58301 0 0 -66 74.25 0 -28.41699 -222 -79.75 0 0 -64 72.41699 0 -20.16699 -170 65.08398 0 21.08301 170 132.91699 0 -20.16699 -170 65.08301 0 19.25 170 rlineto
          286.91699 0 -20.16699 -170 65.08398 0 21.08301 170 132.91699 0 -20.16699 -170 65.08301 0 19.25 170 286.91699 0 -20.16699 -170 65.08398 0 21.08301 170 132.91699 0 -20.16699 -170 65.08301 0 rlineto
          19.25 170 286.91699 0 -20.16699 -170 65.08398 0 21.08301 170 132.91699 0 -20.16699 -170 65.08301 0 19.25 170 83.41699 0 0 64 -74.25 0 26.58301 222 rlineto
          -1742.58301 -222 rmoveto
          69 callsubr
          322.66602 -222 rmoveto
          94 callsubr
          170.5 -222 rmoveto
          69 callsubr
          322.66602 -222 rmoveto
          94 callsubr
          170.5 -222 rmoveto
          69 callsubr
          322.66602 -222 rmoveto
          94 callsubr
          170.5 -222 rmoveto
          69 callsubr
          endchar
        </CharString>
        <CharString name="lig.13">
          -115 71 787 72 hstem
          -267.66699 68.75 415.25 73.33398 vstem
          -267.66699 815 rmoveto
          -930 68.75 930 vlineto
          488.58398 -930 rmoveto
          930 -419.83398 -72 346.5 -787 -346.5 -71 vlineto
          endchar
        </CharString>
        <CharString name="lig.130">
          27 -21 174 72 118 72 174 -20 hstem
          234.66699 616 rmoveto
          -57.75 -54 57.75 -68 rlineto
          13.75 -17 15.58301 -17 27.5 -18 rrcurveto
          -1683 hlineto
          27.5 18 15.58301 17 13.75 17 rrcurveto
          57.75 68 -57.75 54 -248.41602 -305 248.41602 -305 57.75 54 -57.75 69 rlineto
          -13.75 17 -15.58301 16 -27.5 18 rrcurveto
          1683 hlineto
          -27.5 -18 -15.58301 -16 -13.75 -17 rrcurveto
          -57.75 -69 57.75 -54 248.41602 305 rlineto
          -1921.33301 -59 rmoveto
          -48.58301 59 48.58301 59 1776.5 0 48.58301 -59 -48.58301 -59 rlineto
          endchar
        </CharString>
        <CharString name="lig.14">
          180 72 118 72 hstem
          -309.83301 68.75 vstem
          361.16699 370 rmoveto
          72 -602.25 282 -68.75 -826 68.75 282 602.25 72 -602.25 118 vlineto
          endchar
        </CharString>
        <CharString name="lig.15">
          -281.41699 69.66699 vstem
          -211.75 712 rmoveto
          -69.66699 -801 69.66699 hlineto
          528.91699 359 0 86 rlineto
          -528.91699 -355 rmoveto
          68 callsubr
          endchar
        </CharString>
        <CharString name="lig.16">
          277 72 hstem
          -309.83301 68.75 vstem
          360.25 349 rmoveto
          -601.33301 375 -68.75 -826 68.75 379 601.33301 hlineto
          endchar
        </CharString>
        <CharString name="lig.17">
          -138 66 388 68 388 66 hstem
          -289.66699 71.5 417.08398 68.75 vstem
          cntrmask 11100000
          -121.91699 838 rmoveto
          -102.66602 0 -63.25 -27 -0.91699 -124 rrcurveto
          -0.91699 -199 rlineto
          -68 -15.58301 -36 -122.83301 vhcurveto
          -68 vlineto
          122.83301 15.58301 -37 -69 hvcurveto
          -192 vlineto
          -123 65.08398 -33 102.66602 vhcurveto
          253 66 -253 hlineto
          -67.83301 -28.41699 17 63 hvcurveto
          208 vlineto
          0 88 -21.08301 33 -64.16699 13 62.33398 13 22.91602 37 0 84 rrcurveto
          211 vlineto
          61 29.33398 16 66.91602 vhcurveto
          253 66 hlineto
          136.58398 hmoveto
          -68.75 -976 68.75 hlineto
          endchar
        </CharString>
        <CharString name="lig.18">
          -115 71 787 72 hstem
          -289.66699 73.33398 415.25 68.75 vstem
          -289.66699 -115 rmoveto
          419.83398 71 -346.5 787 346.5 72 -419.83398 hlineto
          557.33398 hmoveto
          -68.75 -930 68.75 hlineto
          endchar
        </CharString>
        <CharString name="lig.19">
          -115 71 65 -21 170 64 222 66 221 72 hstemhm
          -398.75 230.08301 -73.33301 73.33301 hintmask 11111010
          446.41699 456 rmoveto
          66 -73.33398 vlineto
          21.08398 167 -65.08398 0 -21.08301 -167 -133.83301 0 21.08301 167 -65.08301 0 -21.08398 -167 -277.75 0 rlineto
          hintmask 11111100
          293 -230.08301 -72 vlineto
          hintmask 11111010
          156.75 -787 hlineto
          hintmask 11111100
          -156.75 -71 230.08301 hlineto
          hintmask 11111010
          285 234.66699 vlineto
          -20.16699 -170 65.08398 0 21.08301 170 132.91699 0 -20.16699 -170 65.08301 0 19.25 170 83.41699 0 0 64 -74.25 0 26.58301 222 rlineto
          -291.5 -222 rmoveto
          -242 222 270.41699 hlineto
          170.5 -222 rmoveto
          69 callsubr
          endchar
        </CharString>
        <CharString name="lig.2">
          180 72 118 72 hstem
          -18.33301 442 rmoveto
          -176.91699 318 -67.83301 0 -173.25 -313 82.5 0 123.75 237 165 -314 472.08301 0 0 72 rlineto
          -472.08301 -262 rmoveto
          472.08301 72 -472.08301 hlineto
          endchar
        </CharString>
        <CharString name="lig.20">
          -11 162 198 162 hstem
          -257.58301 147.58301 219.08301 147.58398 vstem
          -257.58301 431 rmoveto
          -45 31.16602 -37 42.16699 43.08301 31.16699 37 45 44 -31.16699 36 -43.08301 -42.16699 -31.16602 -36 -44 vhcurveto
          366.66602 hmoveto
          70 callsubr
          -366.66602 -361 rmoveto
          -46 31.16602 -35 42.16699 43.08301 31.16699 35 46 44 -31.16699 37 -43.08301 -42.16699 -31.16602 -37 -44 vhcurveto
          366.66602 hmoveto
          71 callsubr
          endchar
        </CharString>
        <CharString name="lig.21">
          107 162 -89 72 100 162 -144 72 hstemhm
          -352 148.5 hintmask 00101000
          -352 434 rmoveto
          -45 32.08301 -37 41.25 43.08398 32.08301 37 45 45 -32.08301 35 -43.08398 vhcurveto
          -41.25 -32.08301 -35 -45 hvcurveto
          hintmask 00011000
          804.83301 8 rmoveto
          72 callsubr
          -804.83301 -182 rmoveto
          hintmask 10001000
          -46 32.08301 -35 41.25 43.08398 32.08301 35 46 44 -32.08301 37 -43.08398 -41.25 -32.08301 -37 -44 vhcurveto
          hintmask 01001000
          804.83301 64 rmoveto
          72 callsubr
          endchar
        </CharString>
        <CharString name="lig.22">
          47 162 198 162 hstem
          -371.25 147.58301 vstem
          10.08301 598 rmoveto
          0 -81 363 -204 -363 -204 0 -81 435.41699 242 0 85 rlineto
          -816.75 134 rmoveto
          73 callsubr
          -361 vmoveto
          74 callsubr
          endchar
        </CharString>
        <CharString name="lig.23">
          -57 77 616 66 hstem
          -371.25 81.58301 86.16699 62.33301 115.5 83.41699 vstem
          80.66699 619 rmoveto
          -62.33398 44 -87.08301 31 -72.41699 8 rrcurveto
          146 -62.33301 -145 vlineto
          -112.75 -12 -55 -83 0 -80 0 -93 60.5 -59 107.25 -39 rrcurveto
          -317 vlineto
          -60.5 -4 -47.66699 8 -107.25 70 rrcurveto
          -89 vlineto
          90.75 -53 44.91699 -12 79.75 3 rrcurveto
          -96 62.33301 98 vlineto
          113.66699 18 85.25 88 0 126 0 124 -107.25 67 -91.66699 33 rrcurveto
          235 vlineto
          45.83398 -6 66 -23 110 -77 rrcurveto
          323.58301 -217 -253 -168 -20.16699 -108 339.16699 233 0 86 rlineto
          -673.75 67 rmoveto
          75 callsubr
          177.83301 -457 rmoveto
          76 callsubr
          endchar
        </CharString>
        <CharString name="lig.24">
          180 72 118 72 hstem
          452.83301 442 rmoveto
          77 callsubr
          -118 vmoveto
          77 callsubr
          endchar
        </CharString>
        <CharString name="lig.25">
          27 -21 174 72 118 72 174 -20 hstem
          234.66699 616 rmoveto
          -57.75 -54 57.75 -68 rlineto
          13.75 -17 15.58301 -17 27.5 -18 rrcurveto
          -725.08301 -72 771.83301 hlineto
          48.58301 -59 -48.58301 -59 -771.83301 0 0 -72 725.08301 0 rlineto
          -27.5 -18 -15.58301 -16 -13.75 -17 rrcurveto
          -57.75 -69 57.75 -54 248.41602 305 rlineto
          endchar
        </CharString>
        <CharString name="lig.26">
          180 72 118 72 hstem
          452.83301 370 rmoveto
          72 -344.66602 vlineto
          98.08301 180 -59.58301 33 -117.33398 -213 -482.16602 0 0 -72 442.75 0 -64.16699 -118 -378.58301 0 0 -72 339.16602 0 -92.58301 -168 61.41699 -34 110 202 487.66602 0 0 72 rlineto
          -448.25 0 64.16699 118 rlineto
          endchar
        </CharString>
        <CharString name="lig.27">
          -11 134 hstemhm
          -227.33301 122.83301 -105.41699 86.16699 -77 68.75 234.66699 122.83301 -105.41699 86.16699 -77 68.75 hintmask 10100000
          -123.75 689 rmoveto
          78 callsubr
          hintmask 10010000
          79 callsubr
          hintmask 10000100
          338.25 462 rmoveto
          78 callsubr
          hintmask 10000010
          79 callsubr
          -363.91699 -104 rmoveto
          hintmask 11000000
          80 callsubr
          330 hmoveto
          hintmask 10001000
          80 callsubr
          endchar
        </CharString>
        <CharString name="lig.28">
          -237.41699 117 rmoveto
          503.25 244 0 80 -503.25 244 -27.5 -68 451 -216 -451 -216 rlineto
          519.75 9 rmoveto
          -502.33301 -241 27.5 -68 502.33301 244 rlineto
          endchar
        </CharString>
        <CharString name="lig.29">
          -439.08301 582 rmoveto
          81 callsubr
          53.16699 227 rmoveto
          82 callsubr
          endchar
        </CharString>
        <CharString name="lig.3">
          228 73 27 73 hstem
          355.66699 386 rmoveto
          61 callsubr
          endchar
        </CharString>
        <CharString name="lig.30">
          29 -21 269 72 269 -20 hstem
          435.41699 349 rmoveto
          -596.75 0 -219.08398 269 -57.75 -54 209.91699 -251 -209.91699 -251 57.75 -54 219.08398 269 596.75 0 rlineto
          endchar
        </CharString>
        <CharString name="lig.31">
          228 73 -24 72 -21 73 hstemhm
          hintmask 10100000
          382.25 386 rmoveto
          -23.83301 -48 -29.33398 -37 -37.58301 0 -55.91699 0 -29.33301 100 -91.66699 0 rrcurveto
          hintmask 01000000
          -75.16602 0 -4.58398 -51 -73.33301 -1 rrcurveto
          -396.91699 -72 411.58398 hlineto
          hintmask 10100000
          68.75 0 9.16602 51 57.75 0 58.66699 0 32.08301 -100 86.16699 0 80.66699 0 40.33301 69 27.5 57 rrcurveto
          endchar
        </CharString>
        <CharString name="lig.32">
          277 72 hstem
          241.08301 68.75 vstem
          241.08301 724 rmoveto
          -375 -601.33301 -72 601.33301 -379 68.75 826 vlineto
          endchar
        </CharString>
        <CharString name="lig.33">
          29 -21 268 74 268 -20 hstem
          188.83301 618 rmoveto
          -57.75 -54 131.08398 -156 rlineto
          25.66602 -31 6.41699 -9 26.58301 -18 rrcurveto
          -756.25 -74 756.25 hlineto
          -22 -16 -18.33301 -20 -18.33301 -22 rrcurveto
          -131.08398 -156 57.75 -54 248.41699 305 rlineto
          endchar
        </CharString>
        <CharString name="lig.34">
          277 72 hstem
          -388.66699 277 rmoveto
          83 callsubr
          429 -72 rmoveto
          83 callsubr
          endchar
        </CharString>
        <CharString name="lig.35">
          29 -21 269 72 269 -20 hstem
          438.16699 564 rmoveto
          -57.75 54 -219.08398 -269 -596.75 0 0 -72 596.75 0 219.08398 -269 57.75 54 -209.91699 251 rlineto
          endchar
        </CharString>
        <CharString name="lig.36">
          29 -21 221 72 28 78 211 -20 hstem
          235.58301 401 rmoveto
          -105.41602 0 -15.58398 -100 -62.33301 0 -62.33301 0 -15.58398 106 -105.41602 0 -103.58398 0 -1.83301 -72 -76.08301 -8 rrcurveto
          23 vlineto
          22 16 18.33301 20 18.33301 22 rrcurveto
          131.08398 156 -57.75 54 -248.41699 -305 248.41699 -305 57.75 54 -131.08398 156 rlineto
          -10.08301 13 -7.33301 9 -7.33398 7 77.91699 13 14.66699 69 55 0 62.33301 0 15.58301 -100 105.41699 0 105.41699 0 15.58301 100 62.33301 0 33.91699 0 33.91699 -36 21.08301 -46 rrcurveto
          65.08301 35 rlineto
          -18.33301 49 -68.75 70 -66.91699 0 rrcurveto
          endchar
        </CharString>
        <CharString name="lig.37">
          26 -21 626 -20 hstemhm
          189.75 81.58301 -71.5 61.41699 hintmask 11100000
          189.75 631 rmoveto
          hintmask 11010000
          10.08301 -261 -223.66602 89 -27.5 -85 231.91602 -68 -139.33301 -197 68.75 -52 121.91699 210 135.66602 -216 66.91699 56 -152.16699 199 227.33398 69 -22.91699 84 -225.5 -88 rlineto
          hintmask 11100000
          10.08301 260 rlineto
          -305.25 -12 rmoveto
          84 callsubr
          endchar
        </CharString>
        <CharString name="lig.38">
          211.75 69.66699 vstem
          211.75 712 rmoveto
          -528.91699 -356 0 -86 528.91699 -359 69.66699 0 0 801 rlineto
          -69.66699 -711 rmoveto
          85 callsubr
          endchar
        </CharString>
        <CharString name="lig.39">
          47 162 198 162 hstem
          223.66699 147.58301 vstem
          -10.08301 598 rmoveto
          -435.41699 -243 0 -85 435.41699 -242 0 81 -363 204 363 204 rlineto
          381.33301 -28 rmoveto
          86 callsubr
          -361 vmoveto
          87 callsubr
          endchar
        </CharString>
        <CharString name="lig.4">
          -91 68 -23 63 211 73 27 73 -22 62 185 74 hstemhm
          27.5 74.25 166.83301 67.83398 121 79.75 hintmask 1011011110000000
          260.33301 700 rmoveto
          -45.83301 0 -142.08301 -4 -66 -91 -53.16699 -72 -31.16699 -116 -16.5 -31 -23.83301 -48 -29.33301 -37 -37.58398 0 -55.91602 0 -29.33398 100 -91.66602 0 -81.58398 0 -39.41602 -70 -27.5 -58 rrcurveto
          55 -30 rlineto
          23.83301 48 27.5 37 39.41699 0 58.66602 0 32.08398 -100 86.16602 0 80.66699 0 40.33301 69 27.5 57 15.58398 33 26.58301 103 49.5 64 53.16699 70 122.83301 2 33 0 rrcurveto
          167.75 28.41699 -151 -191 -172 0.91602 -135 -57.75 -35.75 -28.41602 24 107 hvcurveto
          296 vlineto
          hintmask 0110111110000000
          -51.33398 30 -35.75 7 -42.16602 0 rrcurveto
          -113.66699 -66 -83 -175 -132 37.58301 -97 99.91699 hvcurveto
          73.33301 0 34.83398 51 17.41602 47 rrcurveto
          3.66699 hlineto
          hintmask 1011011110000000
          -0.91699 -49 32.08398 -94 77 0 rrcurveto
          110 24.75 124 252 hvcurveto
          204 -40.33398 211 -236.5 vhcurveto
          8.25 -595 rmoveto
          hintmask 0110111110000000
          -11 -28 -19.25 -60 -64.16602 0 rrcurveto
          -55 -17.41699 69 97 130 24.75 66 83.41699 hvcurveto
          22 0 17.41602 -4 19.25 -10 rrcurveto
          endchar
        </CharString>
</ttFont>
